<svg width="146" height="68" viewBox="0 0 146 68" fill="none" xmlns="http://www.w3.org/2000/svg">
<path d="M117.001 0H8.29774C4.94804 0 3.08201 3.87095 5.16845 6.49149L25.0867 31.5085C26.2476 32.9666 26.2476 35.0334 25.0867 36.4915L5.16845 61.5085C3.08201 64.129 4.94804 68 8.29773 68H117.001C118.22 68 119.372 67.4447 120.131 66.4915L144.016 36.4915C145.177 35.0334 145.177 32.9666 144.016 31.5085L120.131 1.5085C119.372 0.555319 118.22 0 117.001 0Z" fill="#FAFAFA"/>
<path d="M42.6826 29H43.8311V21.3779H43.8721L47.0234 29H48.0625L51.2139 21.3779H51.2549V29H52.4033V19.1357H50.9814L47.5635 27.4482H47.5225L44.1045 19.1357H42.6826V29ZM57.0791 29.1367C59.041 29.1367 60.3672 27.7148 60.3672 25.4453V25.4316C60.3672 23.1621 59.0342 21.7539 57.0723 21.7539C55.1104 21.7539 53.7842 23.1689 53.7842 25.4316V25.4453C53.7842 27.708 55.1035 29.1367 57.0791 29.1367ZM57.0859 28.084C55.8281 28.084 55.001 27.1201 55.001 25.4453V25.4316C55.001 23.7705 55.835 22.8066 57.0723 22.8066C58.3301 22.8066 59.1504 23.7637 59.1504 25.4316V25.4453C59.1504 27.1133 58.3369 28.084 57.0859 28.084ZM61.5703 29H62.7598V24.8164C62.7598 23.6064 63.4912 22.8066 64.6123 22.8066C65.7061 22.8066 66.2461 23.4424 66.2461 24.5977V29H67.4355V24.3857C67.4355 22.7656 66.5332 21.7539 64.9746 21.7539C63.8945 21.7539 63.1699 22.2393 62.7871 22.9023H62.7598V21.8906H61.5703V29ZM69.623 20.6875C70.04 20.6875 70.3682 20.3525 70.3682 19.9424C70.3682 19.5254 70.04 19.1973 69.623 19.1973C69.2129 19.1973 68.8779 19.5254 68.8779 19.9424C68.8779 20.3525 69.2129 20.6875 69.623 20.6875ZM69.0283 29H70.2178V21.8906H69.0283V29ZM74.1484 29.1367C74.3809 29.1367 74.6338 29.1094 74.7842 29.0889V28.125C74.6816 28.1318 74.5449 28.1523 74.4014 28.1523C73.7656 28.1523 73.4307 27.9404 73.4307 27.1816V22.875H74.7842V21.8906H73.4307V19.9697H72.2002V21.8906H71.1611V22.875H72.2002V27.1885C72.2002 28.5488 72.8428 29.1367 74.1484 29.1367ZM78.8037 29.1367C80.7656 29.1367 82.0918 27.7148 82.0918 25.4453V25.4316C82.0918 23.1621 80.7588 21.7539 78.7969 21.7539C76.835 21.7539 75.5088 23.1689 75.5088 25.4316V25.4453C75.5088 27.708 76.8281 29.1367 78.8037 29.1367ZM78.8105 28.084C77.5527 28.084 76.7256 27.1201 76.7256 25.4453V25.4316C76.7256 23.7705 77.5596 22.8066 78.7969 22.8066C80.0547 22.8066 80.875 23.7637 80.875 25.4316V25.4453C80.875 27.1133 80.0615 28.084 78.8105 28.084ZM83.2949 29H84.4844V24.5566C84.4844 23.5518 85.0859 22.8887 86.0088 22.8887C86.2959 22.8887 86.5488 22.9229 86.6445 22.957V21.8018C86.5488 21.7881 86.3711 21.7539 86.166 21.7539C85.332 21.7539 84.6758 22.2529 84.4434 23.0391H84.416V21.8906H83.2949V29ZM93.583 29.1641C94.8818 29.1641 95.9551 28.7607 96.748 28.0088L97.6504 29H99.1543V28.959L97.4453 27.127C97.9854 26.2383 98.2793 25.083 98.2793 23.7158V23.415H97.1445V23.709C97.1445 24.7275 96.9805 25.5957 96.6592 26.293L94.2324 23.6953C95.7842 22.8477 96.3447 22.1367 96.3447 21.166V21.1592C96.3447 19.8809 95.292 18.9717 93.8496 18.9717C92.4277 18.9717 91.3613 19.9082 91.3613 21.166V21.1729C91.3682 21.8838 91.7305 22.4922 92.5781 23.4424L92.2158 23.6338C90.917 24.3242 90.2744 25.2061 90.2744 26.3682V26.375C90.2744 28.0156 91.6348 29.1641 93.583 29.1641ZM92.5234 21.2275V21.2207C92.5234 20.4688 93.084 19.9355 93.8564 19.9355C94.6494 19.9355 95.1963 20.4551 95.1963 21.207V21.2139C95.1963 21.877 94.7998 22.3555 93.5898 22.998C92.8584 22.2051 92.5234 21.7676 92.5234 21.2275ZM91.4912 26.293V26.2861C91.4912 25.5342 91.8945 24.9531 92.9336 24.3584L93.2549 24.1807L96.0303 27.2295C95.4629 27.8174 94.6836 28.1387 93.6924 28.1387C92.3799 28.1387 91.4912 27.3936 91.4912 26.293ZM42.6826 49H46.4082C48.5068 49 49.751 47.9678 49.751 46.2314V46.2178C49.751 44.9121 48.8896 43.9551 47.4678 43.791V43.7637C48.4863 43.6201 49.252 42.6289 49.252 41.6104V41.5967C49.252 40.1201 48.1104 39.1357 46.4219 39.1357H42.6826V49ZM46.1416 40.2227C47.3311 40.2227 48.0078 40.7559 48.0078 41.7266V41.7402C48.0078 42.8066 47.2148 43.3877 45.7588 43.3877H43.9131V40.2227H46.1416ZM46.1074 44.4473C47.6797 44.4473 48.4863 45.0283 48.4863 46.1699V46.1836C48.4863 47.3184 47.7002 47.9131 46.2236 47.9131H43.9131V44.4473H46.1074ZM53.8867 49.1367C55.4385 49.1367 56.6006 48.207 56.833 47.0312L56.8467 46.9629H55.6777L55.6572 47.0244C55.4521 47.6328 54.8164 48.084 53.9141 48.084C52.6494 48.084 51.8428 47.2295 51.8154 45.7666H56.9355V45.3291C56.9355 43.1963 55.7529 41.7539 53.8115 41.7539C51.8701 41.7539 50.6123 43.2646 50.6123 45.4658V45.4727C50.6123 47.708 51.8428 49.1367 53.8867 49.1367ZM53.8047 42.8066C54.8438 42.8066 55.6094 43.4561 55.7256 44.8369H51.8359C51.9658 43.5107 52.7725 42.8066 53.8047 42.8066ZM58.1387 49H59.3281V44.8164C59.3281 43.6064 60.0596 42.8066 61.1807 42.8066C62.2744 42.8066 62.8145 43.4424 62.8145 44.5977V49H64.0039V44.3857C64.0039 42.7656 63.1016 41.7539 61.543 41.7539C60.4629 41.7539 59.7383 42.2393 59.3555 42.9023H59.3281V41.8906H58.1387V49ZM68.4678 49.1367C70.0742 49.1367 71.2432 48.0908 71.4346 46.7373L71.4414 46.6895H70.2725L70.2588 46.7441C70.0605 47.5371 69.4385 48.084 68.4678 48.084C67.2373 48.084 66.3896 47.1064 66.3896 45.4521V45.4453C66.3896 43.832 67.2168 42.8066 68.4541 42.8066C69.5 42.8066 70.0742 43.4355 70.252 44.1465L70.2656 44.2012H71.4277L71.4209 44.1465C71.2705 42.9297 70.2246 41.7539 68.4541 41.7539C66.4785 41.7539 65.1729 43.1895 65.1729 45.4316V45.4385C65.1729 47.7012 66.4512 49.1367 68.4678 49.1367ZM72.5967 49H73.7861V44.8506C73.7861 43.6406 74.5176 42.8066 75.6182 42.8066C76.7256 42.8066 77.3818 43.5654 77.3818 44.8506V49H78.5713V44.6455C78.5713 42.9229 77.5391 41.7539 76.0283 41.7539C74.9688 41.7539 74.1963 42.2256 73.8135 43.0254H73.7861V39.1357H72.5967V49ZM80.082 49H81.2715V44.543C81.2715 43.5518 81.9551 42.8066 82.8984 42.8066C83.7803 42.8066 84.3545 43.374 84.3545 44.2354V49H85.5439V44.4814C85.5439 43.5107 86.207 42.8066 87.1504 42.8066C88.0869 42.8066 88.627 43.3877 88.627 44.3652V49H89.8164V44.0918C89.8164 42.6768 88.9072 41.7539 87.499 41.7539C86.501 41.7539 85.667 42.2666 85.2705 43.1211H85.2432C84.9355 42.2529 84.2178 41.7539 83.2471 41.7539C82.3311 41.7539 81.6201 42.2256 81.2988 42.9297H81.2715V41.8906H80.082V49ZM93.4121 49.1367C94.3623 49.1367 95.2168 48.624 95.6338 47.8447H95.6611V49H96.8506V44.085C96.8506 42.6631 95.7979 41.7539 94.1162 41.7539C92.4414 41.7539 91.4229 42.6973 91.3203 43.8662L91.3135 43.9414H92.4619L92.4756 43.8799C92.6123 43.2441 93.1865 42.8066 94.1025 42.8066C95.0938 42.8066 95.6611 43.333 95.6611 44.2012V44.7959L93.624 44.9121C91.9902 45.0078 91.0469 45.7666 91.0469 46.9766V46.9902C91.0469 48.2822 91.9971 49.1367 93.4121 49.1367ZM92.2637 46.9902V46.9766C92.2637 46.3135 92.8105 45.8896 93.7607 45.835L95.6611 45.7188V46.2998C95.6611 47.332 94.7998 48.1045 93.6787 48.1045C92.8242 48.1045 92.2637 47.6738 92.2637 46.9902ZM98.3613 49H99.5508V44.5566C99.5508 43.5518 100.152 42.8887 101.075 42.8887C101.362 42.8887 101.615 42.9229 101.711 42.957V41.8018C101.615 41.7881 101.438 41.7539 101.232 41.7539C100.398 41.7539 99.7422 42.2529 99.5098 43.0391H99.4824V41.8906H98.3613V49ZM102.777 49H103.967V46.3203L104.63 45.6846L107.269 49H108.649L105.471 44.96L108.554 41.8906H107.111L103.994 45.0283H103.967V39.1357H102.777V49Z" fill="#555555"/>
</svg>
