<svg width="920" height="42" viewBox="0 0 920 42" fill="none" xmlns="http://www.w3.org/2000/svg">
<mask maskUnits="userSpaceOnUse" x="0" y="0" width="0" height="0" fill="black">
<rect fill="white" width="0" height="0"/>
</mask>
<path d="M0.292893 33.2929C-0.097631 33.6834 -0.097631 34.3166 0.292893 34.7071L6.65685 41.0711C7.04738 41.4616 7.68054 41.4616 8.07107 41.0711C8.46159 40.6805 8.46159 40.0474 8.07107 39.6569L2.41421 34L8.07107 28.3431C8.46159 27.9526 8.46159 27.3195 8.07107 26.9289C7.68054 26.5384 7.04738 26.5384 6.65685 26.9289L0.292893 33.2929ZM919.707 34.7072C920.098 34.3167 920.098 33.6835 919.707 33.293L913.343 26.929C912.953 26.5385 912.319 26.5385 911.929 26.929C911.538 27.3195 911.538 27.9527 911.929 28.3432L917.586 34.0001L911.929 39.6569C911.538 40.0475 911.538 40.6806 911.929 41.0711C912.319 41.4617 912.953 41.4617 913.343 41.0711L919.707 34.7072ZM1 35L919 35.0001L919 33.0001L1 33L1 35Z" fill="#303F92" mask="url(#)"/>
<path d="M1.14844 3.99219H6.09375C7.01042 3.99219 7.77344 4.14062 8.38281 4.4375C8.9974 4.73438 9.45312 5.15104 9.75 5.6875C10.0521 6.22396 10.2031 6.85417 10.2031 7.57812C10.2031 8.25 10.0547 8.86719 9.75781 9.42969C9.46615 9.99219 9.01823 10.4427 8.41406 10.7812C7.8151 11.1198 7.07292 11.2891 6.1875 11.2891H3.45312V15H1.14844V3.99219ZM5.89844 9.35156C6.5599 9.35156 7.05469 9.19792 7.38281 8.89062C7.71615 8.57812 7.88281 8.15104 7.88281 7.60938C7.88281 7.0625 7.71094 6.64844 7.36719 6.36719C7.02344 6.08594 6.51302 5.94531 5.83594 5.94531H3.45312V9.35156H5.89844ZM11.8672 8.53906C11.8672 8.17448 11.8594 7.78646 11.8438 7.375C11.8333 6.95833 11.8203 6.6849 11.8047 6.55469H13.8984C13.9193 6.64844 13.9401 6.8724 13.9609 7.22656C13.987 7.58073 14 7.84635 14 8.02344H14.0312C14.1979 7.6276 14.3568 7.31771 14.5078 7.09375C14.6589 6.86979 14.8542 6.69531 15.0938 6.57031C15.3333 6.4401 15.6458 6.375 16.0312 6.375C16.1719 6.375 16.3073 6.38802 16.4375 6.41406C16.5729 6.4401 16.6719 6.47135 16.7344 6.50781L16.6719 8.40625C16.599 8.39583 16.5443 8.38542 16.5078 8.375C16.2266 8.32292 15.987 8.29688 15.7891 8.29688C15.2474 8.29688 14.8229 8.51823 14.5156 8.96094C14.2135 9.39844 14.0625 10.0312 14.0625 10.8594V15H11.8672V8.53906ZM21.6797 15.1562C20.7943 15.1562 20.0312 14.9635 19.3906 14.5781C18.7552 14.1927 18.2734 13.6667 17.9453 13C17.6172 12.3333 17.4531 11.5859 17.4531 10.7578C17.4531 9.95052 17.612 9.21615 17.9297 8.55469C18.2526 7.89323 18.7344 7.36719 19.375 6.97656C20.0156 6.58594 20.7995 6.39062 21.7266 6.39062C22.7005 6.39062 23.5026 6.58594 24.1328 6.97656C24.7682 7.36198 25.2344 7.88281 25.5312 8.53906C25.8281 9.1901 25.9766 9.92969 25.9766 10.7578C25.9766 11.5859 25.8125 12.3333 25.4844 13C25.1615 13.6615 24.6771 14.1875 24.0312 14.5781C23.3854 14.9635 22.6016 15.1562 21.6797 15.1562ZM21.6562 13.4141C22.3073 13.4141 22.8073 13.1849 23.1562 12.7266C23.5052 12.2682 23.6797 11.612 23.6797 10.7578C23.6797 9.91406 23.5156 9.26562 23.1875 8.8125C22.8594 8.35938 22.3828 8.13281 21.7578 8.13281C21.112 8.13281 20.6172 8.36198 20.2734 8.82031C19.9297 9.27344 19.7578 9.91927 19.7578 10.7578C19.7578 11.3151 19.8359 11.7943 19.9922 12.1953C20.1536 12.5911 20.375 12.8932 20.6562 13.1016C20.9427 13.3099 21.276 13.4141 21.6562 13.4141ZM30.6094 15.1562C29.8906 15.1562 29.2786 14.9714 28.7734 14.6016C28.2734 14.2266 27.8958 13.7083 27.6406 13.0469C27.3906 12.3854 27.2656 11.6276 27.2656 10.7734C27.2656 9.91406 27.3984 9.15625 27.6641 8.5C27.9297 7.83854 28.3255 7.32292 28.8516 6.95312C29.3776 6.57812 30.0156 6.39062 30.7656 6.39062C31.2656 6.39062 31.7318 6.5 32.1641 6.71875C32.5964 6.9375 32.9271 7.27083 33.1562 7.71875H33.1719C33.1719 7.58333 33.1693 7.46094 33.1641 7.35156L33.1562 6.48438V3.39844H35.3438V13.1562C35.3438 13.5156 35.349 13.8542 35.3594 14.1719C35.375 14.4844 35.3854 14.6745 35.3906 14.7422C35.401 14.8776 35.4062 14.9635 35.4062 15H33.2812C33.2552 14.9271 33.2292 14.7552 33.2031 14.4844C33.1823 14.2083 33.1719 13.974 33.1719 13.7812H33.1406C32.901 14.25 32.5625 14.5964 32.125 14.8203C31.6875 15.0443 31.1823 15.1562 30.6094 15.1562ZM31.2969 13.4141C31.6198 13.4141 31.9245 13.3281 32.2109 13.1562C32.4974 12.9844 32.7318 12.6979 32.9141 12.2969C33.0964 11.8958 33.1875 11.3724 33.1875 10.7266C33.1875 9.78906 33.0052 9.11979 32.6406 8.71875C32.2812 8.31771 31.8385 8.11719 31.3125 8.11719C30.7812 8.11719 30.3542 8.33594 30.0312 8.77344C29.7135 9.21094 29.5547 9.8776 29.5547 10.7734C29.5547 11.6276 29.7109 12.2812 30.0234 12.7344C30.3359 13.1875 30.7604 13.4141 31.2969 13.4141ZM40.2422 15.1562C39.2786 15.1562 38.5729 14.8646 38.125 14.2812C37.6823 13.6927 37.4609 12.9036 37.4609 11.9141V6.55469H39.6562V11.2891C39.6562 11.9193 39.763 12.4089 39.9766 12.7578C40.1901 13.1016 40.5573 13.2734 41.0781 13.2734C41.4271 13.2734 41.7422 13.1823 42.0234 13C42.3047 12.8125 42.526 12.5521 42.6875 12.2188C42.849 11.8854 42.9297 11.5052 42.9297 11.0781V6.55469H45.125V13.1094C45.125 13.4635 45.1302 13.8333 45.1406 14.2188C45.1562 14.599 45.1719 14.8594 45.1875 15H43.0938C43.0781 14.875 43.0573 14.6406 43.0312 14.2969C43.0104 13.9479 43 13.6745 43 13.4766H42.9609C42.6745 14.0547 42.3047 14.4792 41.8516 14.75C41.4036 15.0208 40.8672 15.1562 40.2422 15.1562ZM51.0469 15.1562C50.1562 15.1562 49.3984 14.9766 48.7734 14.6172C48.1484 14.2578 47.6745 13.7526 47.3516 13.1016C47.0339 12.4505 46.875 11.6901 46.875 10.8203C46.875 9.88802 47.0469 9.09115 47.3906 8.42969C47.7344 7.76302 48.224 7.25781 48.8594 6.91406C49.4948 6.5651 50.2474 6.39062 51.1172 6.39062C52.5599 6.39062 53.6458 6.98438 54.375 8.17188L52.8438 9.21094C52.6146 8.86719 52.3672 8.60156 52.1016 8.41406C51.8411 8.22656 51.513 8.13281 51.1172 8.13281C50.487 8.13281 50.0052 8.35677 49.6719 8.80469C49.3438 9.2526 49.1797 9.89323 49.1797 10.7266C49.1797 11.5964 49.349 12.2604 49.6875 12.7188C50.0312 13.1719 50.513 13.3984 51.1328 13.3984C51.5495 13.3984 51.9089 13.3047 52.2109 13.1172C52.5182 12.9245 52.8411 12.651 53.1797 12.2969L54.4922 13.5625C54.0859 14.0625 53.5938 14.4531 53.0156 14.7344C52.4427 15.0156 51.7865 15.1562 51.0469 15.1562ZM58.1094 15.1406C57.4062 15.1406 56.8672 14.9505 56.4922 14.5703C56.1224 14.1849 55.9375 13.6146 55.9375 12.8594V8.1875H54.8672V6.55469H56.0469L56.1562 4.64844L58.1094 4.48438V6.55469H59.7891V8.1875H58.1094V12.2656C58.1094 12.6302 58.1745 12.8984 58.3047 13.0703C58.4349 13.237 58.6432 13.3203 58.9297 13.3203C59.1589 13.3203 59.4245 13.2891 59.7266 13.2266L59.8906 14.8906C59.2917 15.0573 58.6979 15.1406 58.1094 15.1406ZM69.5234 13.1094C70.5078 13.1719 71.2552 13.2578 71.7656 13.3672C72.2812 13.4714 72.7031 13.7005 73.0312 14.0547C73.3594 14.4089 73.5234 14.9531 73.5234 15.6875C73.5234 16.5781 73.1667 17.2396 72.4531 17.6719C71.7396 18.1094 70.6094 18.3281 69.0625 18.3281C68.0833 18.3281 67.2995 18.2604 66.7109 18.125C66.1224 17.9948 65.6901 17.7786 65.4141 17.4766C65.1432 17.1745 65.0078 16.7656 65.0078 16.25C65.0078 15.8906 65.1016 15.5677 65.2891 15.2812C65.4766 15 65.7552 14.7292 66.125 14.4688C65.776 14.1927 65.6016 13.7943 65.6016 13.2734C65.6016 12.9193 65.6901 12.6016 65.8672 12.3203C66.0443 12.0339 66.2995 11.7604 66.6328 11.5C66.237 11.2604 65.9349 10.9479 65.7266 10.5625C65.5182 10.1771 65.4141 9.73698 65.4141 9.24219C65.4141 8.70052 65.5339 8.21615 65.7734 7.78906C66.0182 7.36198 66.4036 7.02344 66.9297 6.77344C67.4609 6.51823 68.138 6.39062 68.9609 6.39062C69.8307 6.39062 70.5495 6.54688 71.1172 6.85938C71.388 6.49479 71.6849 6.22135 72.0078 6.03906C72.3359 5.85677 72.724 5.76562 73.1719 5.76562H73.2031L73.2812 7.54688H73.25C72.7969 7.54688 72.4036 7.60417 72.0703 7.71875C72.3464 8.15625 72.4844 8.66406 72.4844 9.24219C72.4844 9.76823 72.3594 10.2422 72.1094 10.6641C71.8594 11.0859 71.4661 11.4219 70.9297 11.6719C70.3984 11.9167 69.7266 12.0391 68.9141 12.0391C68.5339 12.0391 68.1797 12.0078 67.8516 11.9453C67.7422 12.0547 67.6589 12.1536 67.6016 12.2422C67.5495 12.3307 67.5234 12.4297 67.5234 12.5391C67.5234 12.6849 67.5781 12.7917 67.6875 12.8594C67.7969 12.9271 67.9531 12.9766 68.1562 13.0078C68.3594 13.0339 68.6849 13.0599 69.1328 13.0859L69.5234 13.1094ZM68.9453 7.88281C68.4609 7.88281 68.0964 8.00521 67.8516 8.25C67.612 8.48958 67.4922 8.82031 67.4922 9.24219C67.4922 9.65885 67.612 9.98177 67.8516 10.2109C68.0964 10.4401 68.4453 10.5547 68.8984 10.5547C69.4401 10.5547 69.8255 10.4401 70.0547 10.2109C70.2891 9.98177 70.4062 9.65885 70.4062 9.24219C70.4062 8.82031 70.2865 8.48958 70.0469 8.25C69.8125 8.00521 69.4453 7.88281 68.9453 7.88281ZM69.1406 16.7578C69.9271 16.7578 70.5052 16.6979 70.875 16.5781C71.2448 16.4635 71.4297 16.2578 71.4297 15.9609C71.4297 15.7526 71.3542 15.5964 71.2031 15.4922C71.0521 15.3932 70.8281 15.3203 70.5312 15.2734C70.2396 15.2318 69.776 15.1875 69.1406 15.1406L68.8281 15.1172C68.776 15.112 68.5859 15.0964 68.2578 15.0703C67.9297 15.0495 67.6302 15.013 67.3594 14.9609C67.2344 15.1172 67.1406 15.2708 67.0781 15.4219C67.0208 15.5729 66.9922 15.7422 66.9922 15.9297C66.9922 16.1641 67.0651 16.3411 67.2109 16.4609C67.362 16.5807 67.5859 16.6589 67.8828 16.6953C68.1849 16.737 68.6042 16.7578 69.1406 16.7578ZM78.4609 15.1562C77.5755 15.1562 76.8125 14.9635 76.1719 14.5781C75.5365 14.1927 75.0547 13.6667 74.7266 13C74.3984 12.3333 74.2344 11.5859 74.2344 10.7578C74.2344 9.95052 74.3932 9.21615 74.7109 8.55469C75.0339 7.89323 75.5156 7.36719 76.1562 6.97656C76.7969 6.58594 77.5807 6.39062 78.5078 6.39062C79.4818 6.39062 80.2839 6.58594 80.9141 6.97656C81.5495 7.36198 82.0156 7.88281 82.3125 8.53906C82.6094 9.1901 82.7578 9.92969 82.7578 10.7578C82.7578 11.5859 82.5938 12.3333 82.2656 13C81.9427 13.6615 81.4583 14.1875 80.8125 14.5781C80.1667 14.9635 79.3828 15.1562 78.4609 15.1562ZM78.4375 13.4141C79.0885 13.4141 79.5885 13.1849 79.9375 12.7266C80.2865 12.2682 80.4609 11.612 80.4609 10.7578C80.4609 9.91406 80.2969 9.26562 79.9688 8.8125C79.6406 8.35938 79.1641 8.13281 78.5391 8.13281C77.8932 8.13281 77.3984 8.36198 77.0547 8.82031C76.7109 9.27344 76.5391 9.91927 76.5391 10.7578C76.5391 11.3151 76.6172 11.7943 76.7734 12.1953C76.9349 12.5911 77.1562 12.8932 77.4375 13.1016C77.724 13.3099 78.0573 13.4141 78.4375 13.4141ZM86.5234 15.1562C86.0026 15.1562 85.5443 15.0573 85.1484 14.8594C84.7578 14.6615 84.4531 14.3724 84.2344 13.9922C84.0156 13.6068 83.9062 13.1484 83.9062 12.6172C83.9062 11.6797 84.2083 11 84.8125 10.5781C85.4219 10.151 86.2344 9.92969 87.25 9.91406L89.0703 9.88281V9.47656C89.0703 8.96094 88.9453 8.60156 88.6953 8.39844C88.4505 8.1901 88.112 8.08594 87.6797 8.08594C86.9349 8.08594 86.1771 8.42708 85.4062 9.10938L84.3672 7.73438C85.3776 6.83854 86.5234 6.39062 87.8047 6.39062C88.9036 6.39062 89.7552 6.65104 90.3594 7.17188C90.9635 7.69271 91.2656 8.4401 91.2656 9.41406V12.5078C91.2656 13.4349 91.2865 14.2656 91.3281 15H89.25C89.2135 14.6302 89.1953 14.2344 89.1953 13.8125H89.1484C88.8724 14.2448 88.513 14.5781 88.0703 14.8125C87.6328 15.0417 87.1172 15.1562 86.5234 15.1562ZM87.2109 13.4922C87.5703 13.4922 87.8906 13.4062 88.1719 13.2344C88.4583 13.0625 88.6797 12.8385 88.8359 12.5625C88.9922 12.2812 89.0703 11.9844 89.0703 11.6719V11.2422L87.9375 11.2578C87.5521 11.2786 87.2396 11.3177 87 11.375C86.7604 11.4271 86.5651 11.5365 86.4141 11.7031C86.263 11.8646 86.1875 12.1094 86.1875 12.4375C86.1875 12.7812 86.2786 13.0443 86.4609 13.2266C86.6484 13.4036 86.8984 13.4922 87.2109 13.4922ZM95.5938 15.1094C94.8281 15.1094 94.2604 14.9141 93.8906 14.5234C93.5208 14.1328 93.3359 13.6094 93.3359 12.9531V3.39844H95.5312V12.4062C95.5312 12.651 95.5495 12.8411 95.5859 12.9766C95.6276 13.1068 95.7005 13.2031 95.8047 13.2656C95.9141 13.3229 96.0729 13.3516 96.2812 13.3516C96.4062 13.3516 96.5391 13.3359 96.6797 13.3047L96.7578 15C96.3828 15.0729 95.9948 15.1094 95.5938 15.1094Z" fill="#303F92"/>
</svg>
