<svg width="146" height="68" viewBox="0 0 146 68" fill="none" xmlns="http://www.w3.org/2000/svg">
<path d="M117.001 0H8.29774C4.94804 0 3.08201 3.87095 5.16845 6.49149L25.0867 31.5085C26.2476 32.9666 26.2476 35.0334 25.0867 36.4915L5.16845 61.5085C3.08201 64.129 4.94804 68 8.29773 68H117.001C118.22 68 119.372 67.4447 120.131 66.4915L144.016 36.4915C145.177 35.0334 145.177 32.9666 144.016 31.5085L120.131 1.5085C119.372 0.555319 118.22 0 117.001 0Z" fill="#FAFAFA"/>
<path d="M39.3213 29H40.6133L41.6113 26.1768H45.583L46.5811 29H47.873L44.209 19.1357H42.9922L39.3213 29ZM43.5869 20.6123H43.6143L45.2139 25.1309H41.9873L43.5869 20.6123ZM48.8232 29H50.0127V24.8164C50.0127 23.6064 50.7441 22.8066 51.8652 22.8066C52.959 22.8066 53.499 23.4424 53.499 24.5977V29H54.6885V24.3857C54.6885 22.7656 53.7861 21.7539 52.2275 21.7539C51.1475 21.7539 50.4229 22.2393 50.04 22.9023H50.0127V21.8906H48.8232V29ZM58.2842 29.1367C59.2344 29.1367 60.0889 28.624 60.5059 27.8447H60.5332V29H61.7227V24.085C61.7227 22.6631 60.6699 21.7539 58.9883 21.7539C57.3135 21.7539 56.2949 22.6973 56.1924 23.8662L56.1855 23.9414H57.334L57.3477 23.8799C57.4844 23.2441 58.0586 22.8066 58.9746 22.8066C59.9658 22.8066 60.5332 23.333 60.5332 24.2012V24.7959L58.4961 24.9121C56.8623 25.0078 55.9189 25.7666 55.9189 26.9766V26.9902C55.9189 28.2822 56.8691 29.1367 58.2842 29.1367ZM57.1357 26.9902V26.9766C57.1357 26.3135 57.6826 25.8896 58.6328 25.835L60.5332 25.7188V26.2998C60.5332 27.332 59.6719 28.1045 58.5508 28.1045C57.6963 28.1045 57.1357 27.6738 57.1357 26.9902ZM63.2949 29H64.4844V19.1357H63.2949V29ZM66.7744 31.3926C68.0596 31.3926 68.6816 30.8047 69.1875 29.4443L71.9629 21.8906H70.7119L68.7432 27.8105H68.7158L66.7539 21.8906H65.4824L68.1211 29.0068L67.9775 29.4102C67.6904 30.2168 67.2734 30.4082 66.5215 30.4082C66.3779 30.4082 66.2412 30.3877 66.1387 30.3672V31.3379C66.2891 31.3652 66.542 31.3926 66.7744 31.3926ZM72.749 29H78.0537V28.0156H74.1299V27.9951L78.0332 22.7588V21.8906H72.7559V22.875H76.6797V22.8955L72.749 28.1523V29ZM82.1006 29.1367C83.6523 29.1367 84.8145 28.207 85.0469 27.0312L85.0605 26.9629H83.8916L83.8711 27.0244C83.666 27.6328 83.0303 28.084 82.1279 28.084C80.8633 28.084 80.0566 27.2295 80.0293 25.7666H85.1494V25.3291C85.1494 23.1963 83.9668 21.7539 82.0254 21.7539C80.084 21.7539 78.8262 23.2646 78.8262 25.4658V25.4727C78.8262 27.708 80.0566 29.1367 82.1006 29.1367ZM82.0186 22.8066C83.0576 22.8066 83.8232 23.4561 83.9395 24.8369H80.0498C80.1797 23.5107 80.9863 22.8066 82.0186 22.8066ZM39.9229 49H41.1123V44.543C41.1123 43.5518 41.7959 42.8066 42.7393 42.8066C43.6211 42.8066 44.1953 43.374 44.1953 44.2354V49H45.3848V44.4814C45.3848 43.5107 46.0479 42.8066 46.9912 42.8066C47.9277 42.8066 48.4678 43.3877 48.4678 44.3652V49H49.6572V44.0918C49.6572 42.6768 48.748 41.7539 47.3398 41.7539C46.3418 41.7539 45.5078 42.2666 45.1113 43.1211H45.084C44.7764 42.2529 44.0586 41.7539 43.0879 41.7539C42.1719 41.7539 41.4609 42.2256 41.1396 42.9297H41.1123V41.8906H39.9229V49ZM53.2529 49.1367C54.2031 49.1367 55.0576 48.624 55.4746 47.8447H55.502V49H56.6914V44.085C56.6914 42.6631 55.6387 41.7539 53.957 41.7539C52.2822 41.7539 51.2637 42.6973 51.1611 43.8662L51.1543 43.9414H52.3027L52.3164 43.8799C52.4531 43.2441 53.0273 42.8066 53.9434 42.8066C54.9346 42.8066 55.502 43.333 55.502 44.2012V44.7959L53.4648 44.9121C51.8311 45.0078 50.8877 45.7666 50.8877 46.9766V46.9902C50.8877 48.2822 51.8379 49.1367 53.2529 49.1367ZM52.1045 46.9902V46.9766C52.1045 46.3135 52.6514 45.8896 53.6016 45.835L55.502 45.7188V46.2998C55.502 47.332 54.6406 48.1045 53.5195 48.1045C52.665 48.1045 52.1045 47.6738 52.1045 46.9902ZM58.2021 49H59.3916V44.5566C59.3916 43.5518 59.9932 42.8887 60.916 42.8887C61.2031 42.8887 61.4561 42.9229 61.5518 42.957V41.8018C61.4561 41.7881 61.2783 41.7539 61.0732 41.7539C60.2393 41.7539 59.583 42.2529 59.3506 43.0391H59.3232V41.8906H58.2021V49ZM62.6182 49H63.8076V46.3203L64.4707 45.6846L67.1094 49H68.4902L65.3115 44.96L68.3945 41.8906H66.9521L63.835 45.0283H63.8076V39.1357H62.6182V49ZM71.9014 49.1367C73.4531 49.1367 74.6152 48.207 74.8477 47.0312L74.8613 46.9629H73.6924L73.6719 47.0244C73.4668 47.6328 72.8311 48.084 71.9287 48.084C70.6641 48.084 69.8574 47.2295 69.8301 45.7666H74.9502V45.3291C74.9502 43.1963 73.7676 41.7539 71.8262 41.7539C69.8848 41.7539 68.627 43.2646 68.627 45.4658V45.4727C68.627 47.708 69.8574 49.1367 71.9014 49.1367ZM71.8193 42.8066C72.8584 42.8066 73.624 43.4561 73.7402 44.8369H69.8506C69.9805 43.5107 70.7871 42.8066 71.8193 42.8066ZM78.4639 49.1367C78.6963 49.1367 78.9492 49.1094 79.0996 49.0889V48.125C78.9971 48.1318 78.8604 48.1523 78.7168 48.1523C78.0811 48.1523 77.7461 47.9404 77.7461 47.1816V42.875H79.0996V41.8906H77.7461V39.9697H76.5156V41.8906H75.4766V42.875H76.5156V47.1885C76.5156 48.5488 77.1582 49.1367 78.4639 49.1367Z" fill="#555555"/>
</svg>
