<svg width="146" height="68" viewBox="0 0 146 68" fill="none" xmlns="http://www.w3.org/2000/svg">
<path d="M116.492 0H8.27582C4.92997 0 3.06276 3.86318 5.14138 6.48502L24.9854 31.515C26.1395 32.9707 26.1395 35.0293 24.9854 36.485L5.14138 61.515C3.06276 64.1368 4.92997 68 8.27581 68H116.492C117.713 68 118.867 67.442 119.626 66.485L143.41 36.485C144.564 35.0293 144.564 32.9707 143.41 31.515L119.626 1.51499C118.867 0.557959 117.713 0 116.492 0Z" fill="#FAFAFA"/>
<path d="M48.0322 29.1641C50.2881 29.1641 51.6758 28.0566 51.6758 26.3066V26.2998C51.6758 24.7959 50.8281 23.9756 48.8047 23.5312L47.7109 23.292C46.4258 23.0117 45.8311 22.5059 45.8311 21.6992V21.6924C45.8311 20.7422 46.6924 20.1133 48.0117 20.1064C49.2627 20.1064 50.1035 20.7012 50.2539 21.7061L50.2676 21.8018H51.498L51.4912 21.6992C51.3818 20.0859 49.9736 18.9717 48.0459 18.9717C46.0156 18.9717 44.5801 20.1064 44.5732 21.7266V21.7334C44.5732 23.1758 45.4756 24.0439 47.4033 24.4678L48.4971 24.707C49.8506 25.0078 50.418 25.4932 50.418 26.3613V26.3682C50.418 27.3867 49.5225 28.0293 48.1006 28.0293C46.6719 28.0293 45.7148 27.4209 45.5713 26.4297L45.5576 26.334H44.3271L44.334 26.4297C44.457 28.1182 45.8994 29.1641 48.0322 29.1641ZM55.2441 29.1367C55.4766 29.1367 55.7295 29.1094 55.8799 29.0889V28.125C55.7773 28.1318 55.6406 28.1523 55.4971 28.1523C54.8613 28.1523 54.5264 27.9404 54.5264 27.1816V22.875H55.8799V21.8906H54.5264V19.9697H53.2959V21.8906H52.2568V22.875H53.2959V27.1885C53.2959 28.5488 53.9385 29.1367 55.2441 29.1367ZM57.1582 29H58.3477V24.5566C58.3477 23.5518 58.9492 22.8887 59.8721 22.8887C60.1592 22.8887 60.4121 22.9229 60.5078 22.957V21.8018C60.4121 21.7881 60.2344 21.7539 60.0293 21.7539C59.1953 21.7539 58.5391 22.2529 58.3066 23.0391H58.2793V21.8906H57.1582V29ZM63.4199 29.1367C64.3701 29.1367 65.2246 28.624 65.6416 27.8447H65.6689V29H66.8584V24.085C66.8584 22.6631 65.8057 21.7539 64.124 21.7539C62.4492 21.7539 61.4307 22.6973 61.3281 23.8662L61.3213 23.9414H62.4697L62.4834 23.8799C62.6201 23.2441 63.1943 22.8066 64.1104 22.8066C65.1016 22.8066 65.6689 23.333 65.6689 24.2012V24.7959L63.6318 24.9121C61.998 25.0078 61.0547 25.7666 61.0547 26.9766V26.9902C61.0547 28.2822 62.0049 29.1367 63.4199 29.1367ZM62.2715 26.9902V26.9766C62.2715 26.3135 62.8184 25.8896 63.7686 25.835L65.6689 25.7188V26.2998C65.6689 27.332 64.8076 28.1045 63.6865 28.1045C62.832 28.1045 62.2715 27.6738 62.2715 26.9902ZM70.6797 29.1367C70.9121 29.1367 71.165 29.1094 71.3154 29.0889V28.125C71.2129 28.1318 71.0762 28.1523 70.9326 28.1523C70.2969 28.1523 69.9619 27.9404 69.9619 27.1816V22.875H71.3154V21.8906H69.9619V19.9697H68.7314V21.8906H67.6924V22.875H68.7314V27.1885C68.7314 28.5488 69.374 29.1367 70.6797 29.1367ZM75.3145 29.1367C76.8662 29.1367 78.0283 28.207 78.2607 27.0312L78.2744 26.9629H77.1055L77.085 27.0244C76.8799 27.6328 76.2441 28.084 75.3418 28.084C74.0771 28.084 73.2705 27.2295 73.2432 25.7666H78.3633V25.3291C78.3633 23.1963 77.1807 21.7539 75.2393 21.7539C73.2979 21.7539 72.04 23.2646 72.04 25.4658V25.4727C72.04 27.708 73.2705 29.1367 75.3145 29.1367ZM75.2324 22.8066C76.2715 22.8066 77.0371 23.4561 77.1533 24.8369H73.2637C73.3936 23.5107 74.2002 22.8066 75.2324 22.8066ZM82.5742 31.5293C84.502 31.5293 85.7119 30.4492 85.7119 28.8018V21.8906H84.5225V23.0938H84.4951C84.0576 22.3008 83.2646 21.7539 82.2598 21.7539C80.4551 21.7539 79.2178 23.1895 79.2178 25.3975V25.4043C79.2178 27.626 80.4414 29.0684 82.2324 29.0684C83.251 29.0684 84.0713 28.5625 84.4951 27.7764H84.5225V28.6855C84.5225 29.7861 83.8115 30.4766 82.5605 30.4766C81.5898 30.4766 80.9131 30.1621 80.6875 29.6494L80.6602 29.5879H79.4639L79.4775 29.6494C79.71 30.7021 80.8174 31.5293 82.5742 31.5293ZM82.4922 28.0156C81.2275 28.0156 80.4346 27.0176 80.4346 25.4043V25.3975C80.4346 23.8184 81.2275 22.8066 82.4922 22.8066C83.6953 22.8066 84.5225 23.832 84.5225 25.3975V25.4043C84.5225 26.9834 83.7021 28.0156 82.4922 28.0156ZM87.9199 20.6875C88.3369 20.6875 88.665 20.3525 88.665 19.9424C88.665 19.5254 88.3369 19.1973 87.9199 19.1973C87.5098 19.1973 87.1748 19.5254 87.1748 19.9424C87.1748 20.3525 87.5098 20.6875 87.9199 20.6875ZM87.3252 29H88.5146V21.8906H87.3252V29ZM89.9844 29H95.2891V28.0156H91.3652V27.9951L95.2686 22.7588V21.8906H89.9912V22.875H93.915V22.8955L89.9844 28.1523V29ZM99.3359 29.1367C100.888 29.1367 102.05 28.207 102.282 27.0312L102.296 26.9629H101.127L101.106 27.0244C100.901 27.6328 100.266 28.084 99.3633 28.084C98.0986 28.084 97.292 27.2295 97.2646 25.7666H102.385V25.3291C102.385 23.1963 101.202 21.7539 99.2607 21.7539C97.3193 21.7539 96.0615 23.2646 96.0615 25.4658V25.4727C96.0615 27.708 97.292 29.1367 99.3359 29.1367ZM99.2539 22.8066C100.293 22.8066 101.059 23.4561 101.175 24.8369H97.2852C97.415 23.5107 98.2217 22.8066 99.2539 22.8066ZM47.1436 49.1367C48.7295 49.1367 49.9053 48.2617 49.9053 47.0176V47.0107C49.9053 45.999 49.3857 45.4316 47.9502 45.083L46.8223 44.8096C46.0361 44.6182 45.7148 44.2832 45.7148 43.7979V43.791C45.7148 43.1621 46.248 42.7451 47.1094 42.7451C47.9912 42.7451 48.5176 43.2031 48.6133 43.8936L48.6201 43.9414H49.7549L49.748 43.8525C49.6592 42.6631 48.668 41.7539 47.1094 41.7539C45.5713 41.7539 44.498 42.6221 44.498 43.8457V43.8525C44.498 44.8779 45.1475 45.5 46.4873 45.8213L47.6152 46.0947C48.4219 46.293 48.6885 46.5801 48.6885 47.0928V47.0996C48.6885 47.7422 48.1143 48.1455 47.1504 48.1455C46.1797 48.1455 45.6533 47.7285 45.5098 47.0176L45.4961 46.9492H44.3066L44.3135 47.0107C44.457 48.2822 45.4688 49.1367 47.1436 49.1367ZM54.0889 49.1367C56.0508 49.1367 57.377 47.7148 57.377 45.4453V45.4316C57.377 43.1621 56.0439 41.7539 54.082 41.7539C52.1201 41.7539 50.7939 43.1689 50.7939 45.4316V45.4453C50.7939 47.708 52.1133 49.1367 54.0889 49.1367ZM54.0957 48.084C52.8379 48.084 52.0107 47.1201 52.0107 45.4453V45.4316C52.0107 43.7705 52.8447 42.8066 54.082 42.8066C55.3398 42.8066 56.1602 43.7637 56.1602 45.4316V45.4453C56.1602 47.1133 55.3467 48.084 54.0957 48.084ZM61.0068 49.1367C62.0869 49.1367 62.8115 48.6514 63.1943 47.9883H63.2217V49H64.4111V41.8906H63.2217V46.0742C63.2217 47.2842 62.4902 48.084 61.3691 48.084C60.2754 48.084 59.7354 47.4482 59.7354 46.293V41.8906H58.5459V46.5049C58.5459 48.125 59.4482 49.1367 61.0068 49.1367ZM65.9629 49H67.1523V44.5566C67.1523 43.5518 67.7539 42.8887 68.6768 42.8887C68.9639 42.8887 69.2168 42.9229 69.3125 42.957V41.8018C69.2168 41.7881 69.0391 41.7539 68.834 41.7539C68 41.7539 67.3438 42.2529 67.1113 43.0391H67.084V41.8906H65.9629V49ZM72.8877 49.1367C74.4941 49.1367 75.6631 48.0908 75.8545 46.7373L75.8613 46.6895H74.6924L74.6787 46.7441C74.4805 47.5371 73.8584 48.084 72.8877 48.084C71.6572 48.084 70.8096 47.1064 70.8096 45.4521V45.4453C70.8096 43.832 71.6367 42.8066 72.874 42.8066C73.9199 42.8066 74.4941 43.4355 74.6719 44.1465L74.6855 44.2012H75.8477L75.8408 44.1465C75.6904 42.9297 74.6445 41.7539 72.874 41.7539C70.8984 41.7539 69.5928 43.1895 69.5928 45.4316V45.4385C69.5928 47.7012 70.8711 49.1367 72.8877 49.1367ZM77.625 40.6875C78.042 40.6875 78.3701 40.3525 78.3701 39.9424C78.3701 39.5254 78.042 39.1973 77.625 39.1973C77.2148 39.1973 76.8799 39.5254 76.8799 39.9424C76.8799 40.3525 77.2148 40.6875 77.625 40.6875ZM77.0303 49H78.2197V41.8906H77.0303V49ZM79.8398 49H81.0293V44.8164C81.0293 43.6064 81.7607 42.8066 82.8818 42.8066C83.9756 42.8066 84.5156 43.4424 84.5156 44.5977V49H85.7051V44.3857C85.7051 42.7656 84.8027 41.7539 83.2441 41.7539C82.1641 41.7539 81.4395 42.2393 81.0566 42.9023H81.0293V41.8906H79.8398V49ZM90.2305 51.5293C92.1582 51.5293 93.3682 50.4492 93.3682 48.8018V41.8906H92.1787V43.0938H92.1514C91.7139 42.3008 90.9209 41.7539 89.916 41.7539C88.1113 41.7539 86.874 43.1895 86.874 45.3975V45.4043C86.874 47.626 88.0977 49.0684 89.8887 49.0684C90.9072 49.0684 91.7275 48.5625 92.1514 47.7764H92.1787V48.6855C92.1787 49.7861 91.4678 50.4766 90.2168 50.4766C89.2461 50.4766 88.5693 50.1621 88.3438 49.6494L88.3164 49.5879H87.1201L87.1338 49.6494C87.3662 50.7021 88.4736 51.5293 90.2305 51.5293ZM90.1484 48.0156C88.8838 48.0156 88.0908 47.0176 88.0908 45.4043V45.3975C88.0908 43.8184 88.8838 42.8066 90.1484 42.8066C91.3516 42.8066 92.1787 43.832 92.1787 45.3975V45.4043C92.1787 46.9834 91.3584 48.0156 90.1484 48.0156ZM97.7773 51.3926H98.9668V47.8105H98.9941C99.4385 48.6309 100.266 49.1367 101.271 49.1367C103.055 49.1367 104.271 47.6943 104.271 45.4521V45.4453C104.271 43.2031 103.068 41.7539 101.25 41.7539C100.231 41.7539 99.4385 42.2666 98.9941 43.0938H98.9668V41.8906H97.7773V51.3926ZM101.018 48.084C99.8213 48.084 98.96 47.0381 98.96 45.4521V45.4453C98.96 43.8525 99.8145 42.8066 101.018 42.8066C102.275 42.8066 103.055 43.8115 103.055 45.4453V45.4521C103.055 47.0723 102.275 48.084 101.018 48.084ZM105.536 49H106.726V39.1357H105.536V49ZM110.41 49.1367C111.36 49.1367 112.215 48.624 112.632 47.8447H112.659V49H113.849V44.085C113.849 42.6631 112.796 41.7539 111.114 41.7539C109.439 41.7539 108.421 42.6973 108.318 43.8662L108.312 43.9414H109.46L109.474 43.8799C109.61 43.2441 110.185 42.8066 111.101 42.8066C112.092 42.8066 112.659 43.333 112.659 44.2012V44.7959L110.622 44.9121C108.988 45.0078 108.045 45.7666 108.045 46.9766V46.9902C108.045 48.2822 108.995 49.1367 110.41 49.1367ZM109.262 46.9902V46.9766C109.262 46.3135 109.809 45.8896 110.759 45.835L112.659 45.7188V46.2998C112.659 47.332 111.798 48.1045 110.677 48.1045C109.822 48.1045 109.262 47.6738 109.262 46.9902ZM115.359 49H116.549V44.8164C116.549 43.6064 117.28 42.8066 118.401 42.8066C119.495 42.8066 120.035 43.4424 120.035 44.5977V49H121.225V44.3857C121.225 42.7656 120.322 41.7539 118.764 41.7539C117.684 41.7539 116.959 42.2393 116.576 42.9023H116.549V41.8906H115.359V49Z" fill="#555555"/>
</svg>
