<svg width="146" height="68" viewBox="0 0 146 68" fill="none" xmlns="http://www.w3.org/2000/svg">
<path d="M117.001 0H8.29774C4.94805 0 3.08201 3.87096 5.16845 6.49149L25.0867 31.5085C26.2476 32.9666 26.2476 35.0334 25.0867 36.4915L5.16845 61.5085C3.08201 64.129 4.94804 68 8.29773 68H117.001C118.22 68 119.372 67.4447 120.131 66.4915L144.016 36.4915C145.177 35.0334 145.177 32.9666 144.016 31.5085L120.131 1.5085C119.372 0.555319 118.22 0 117.001 0Z" fill="#727272"/>
<path d="M46.5312 29H47.7617V19.1357H46.5312V29ZM49.4912 29H50.6807V24.543C50.6807 23.5518 51.3643 22.8066 52.3076 22.8066C53.1895 22.8066 53.7637 23.374 53.7637 24.2354V29H54.9531V24.4814C54.9531 23.5107 55.6162 22.8066 56.5596 22.8066C57.4961 22.8066 58.0361 23.3877 58.0361 24.3652V29H59.2256V24.0918C59.2256 22.6768 58.3164 21.7539 56.9082 21.7539C55.9102 21.7539 55.0762 22.2666 54.6797 23.1211H54.6523C54.3447 22.2529 53.627 21.7539 52.6562 21.7539C51.7402 21.7539 51.0293 22.2256 50.708 22.9297H50.6807V21.8906H49.4912V29ZM60.7432 31.3926H61.9326V27.8105H61.96C62.4043 28.6309 63.2314 29.1367 64.2363 29.1367C66.0205 29.1367 67.2373 27.6943 67.2373 25.4521V25.4453C67.2373 23.2031 66.0342 21.7539 64.2158 21.7539C63.1973 21.7539 62.4043 22.2666 61.96 23.0938H61.9326V21.8906H60.7432V31.3926ZM63.9834 28.084C62.7871 28.084 61.9258 27.0381 61.9258 25.4521V25.4453C61.9258 23.8525 62.7803 22.8066 63.9834 22.8066C65.2412 22.8066 66.0205 23.8115 66.0205 25.4453V25.4521C66.0205 27.0723 65.2412 28.084 63.9834 28.084ZM68.502 29H69.6914V19.1357H68.502V29ZM74.2236 29.1367C75.7754 29.1367 76.9375 28.207 77.1699 27.0312L77.1836 26.9629H76.0146L75.9941 27.0244C75.7891 27.6328 75.1533 28.084 74.251 28.084C72.9863 28.084 72.1797 27.2295 72.1523 25.7666H77.2725V25.3291C77.2725 23.1963 76.0898 21.7539 74.1484 21.7539C72.207 21.7539 70.9492 23.2646 70.9492 25.4658V25.4727C70.9492 27.708 72.1797 29.1367 74.2236 29.1367ZM74.1416 22.8066C75.1807 22.8066 75.9463 23.4561 76.0625 24.8369H72.1729C72.3027 23.5107 73.1094 22.8066 74.1416 22.8066ZM78.4756 29H79.665V24.543C79.665 23.5518 80.3486 22.8066 81.292 22.8066C82.1738 22.8066 82.748 23.374 82.748 24.2354V29H83.9375V24.4814C83.9375 23.5107 84.6006 22.8066 85.5439 22.8066C86.4805 22.8066 87.0205 23.3877 87.0205 24.3652V29H88.21V24.0918C88.21 22.6768 87.3008 21.7539 85.8926 21.7539C84.8945 21.7539 84.0605 22.2666 83.6641 23.1211H83.6367C83.3291 22.2529 82.6113 21.7539 81.6406 21.7539C80.7246 21.7539 80.0137 22.2256 79.6924 22.9297H79.665V21.8906H78.4756V29ZM92.6533 29.1367C94.2051 29.1367 95.3672 28.207 95.5996 27.0312L95.6133 26.9629H94.4443L94.4238 27.0244C94.2188 27.6328 93.583 28.084 92.6807 28.084C91.416 28.084 90.6094 27.2295 90.582 25.7666H95.7021V25.3291C95.7021 23.1963 94.5195 21.7539 92.5781 21.7539C90.6367 21.7539 89.3789 23.2646 89.3789 25.4658V25.4727C89.3789 27.708 90.6094 29.1367 92.6533 29.1367ZM92.5713 22.8066C93.6104 22.8066 94.376 23.4561 94.4922 24.8369H90.6025C90.7324 23.5107 91.5391 22.8066 92.5713 22.8066ZM96.9053 29H98.0947V24.8164C98.0947 23.6064 98.8262 22.8066 99.9473 22.8066C101.041 22.8066 101.581 23.4424 101.581 24.5977V29H102.771V24.3857C102.771 22.7656 101.868 21.7539 100.31 21.7539C99.2295 21.7539 98.5049 22.2393 98.1221 22.9023H98.0947V21.8906H96.9053V29ZM106.599 29.1367C106.831 29.1367 107.084 29.1094 107.234 29.0889V28.125C107.132 28.1318 106.995 28.1523 106.852 28.1523C106.216 28.1523 105.881 27.9404 105.881 27.1816V22.875H107.234V21.8906H105.881V19.9697H104.65V21.8906H103.611V22.875H104.65V27.1885C104.65 28.5488 105.293 29.1367 106.599 29.1367ZM49.293 49.1367C50.8994 49.1367 52.0684 48.0908 52.2598 46.7373L52.2666 46.6895H51.0977L51.084 46.7441C50.8857 47.5371 50.2637 48.084 49.293 48.084C48.0625 48.084 47.2148 47.1064 47.2148 45.4521V45.4453C47.2148 43.832 48.042 42.8066 49.2793 42.8066C50.3252 42.8066 50.8994 43.4355 51.0771 44.1465L51.0908 44.2012H52.2529L52.2461 44.1465C52.0957 42.9297 51.0498 41.7539 49.2793 41.7539C47.3037 41.7539 45.998 43.1895 45.998 45.4316V45.4385C45.998 47.7012 47.2764 49.1367 49.293 49.1367ZM56.3066 49.1367C58.2686 49.1367 59.5947 47.7148 59.5947 45.4453V45.4316C59.5947 43.1621 58.2617 41.7539 56.2998 41.7539C54.3379 41.7539 53.0117 43.1689 53.0117 45.4316V45.4453C53.0117 47.708 54.3311 49.1367 56.3066 49.1367ZM56.3135 48.084C55.0557 48.084 54.2285 47.1201 54.2285 45.4453V45.4316C54.2285 43.7705 55.0625 42.8066 56.2998 42.8066C57.5576 42.8066 58.3779 43.7637 58.3779 45.4316V45.4453C58.3779 47.1133 57.5645 48.084 56.3135 48.084ZM60.7979 49H61.9873V44.8164C61.9873 43.6064 62.7188 42.8066 63.8398 42.8066C64.9336 42.8066 65.4736 43.4424 65.4736 44.5977V49H66.6631V44.3857C66.6631 42.7656 65.7607 41.7539 64.2021 41.7539C63.1221 41.7539 62.3975 42.2393 62.0146 42.9023H61.9873V41.8906H60.7979V49ZM70.4912 49.1367C70.7236 49.1367 70.9766 49.1094 71.127 49.0889V48.125C71.0244 48.1318 70.8877 48.1523 70.7441 48.1523C70.1084 48.1523 69.7734 47.9404 69.7734 47.1816V42.875H71.127V41.8906H69.7734V39.9697H68.543V41.8906H67.5039V42.875H68.543V47.1885C68.543 48.5488 69.1855 49.1367 70.4912 49.1367ZM72.4053 49H73.5947V44.5566C73.5947 43.5518 74.1963 42.8887 75.1191 42.8887C75.4062 42.8887 75.6592 42.9229 75.7549 42.957V41.8018C75.6592 41.7881 75.4814 41.7539 75.2764 41.7539C74.4424 41.7539 73.7861 42.2529 73.5537 43.0391H73.5264V41.8906H72.4053V49ZM78.667 49.1367C79.6172 49.1367 80.4717 48.624 80.8887 47.8447H80.916V49H82.1055V44.085C82.1055 42.6631 81.0527 41.7539 79.3711 41.7539C77.6963 41.7539 76.6777 42.6973 76.5752 43.8662L76.5684 43.9414H77.7168L77.7305 43.8799C77.8672 43.2441 78.4414 42.8066 79.3574 42.8066C80.3486 42.8066 80.916 43.333 80.916 44.2012V44.7959L78.8789 44.9121C77.2451 45.0078 76.3018 45.7666 76.3018 46.9766V46.9902C76.3018 48.2822 77.252 49.1367 78.667 49.1367ZM77.5186 46.9902V46.9766C77.5186 46.3135 78.0654 45.8896 79.0156 45.835L80.916 45.7188V46.2998C80.916 47.332 80.0547 48.1045 78.9336 48.1045C78.0791 48.1045 77.5186 47.6738 77.5186 46.9902ZM86.5625 49.1367C88.1689 49.1367 89.3379 48.0908 89.5293 46.7373L89.5361 46.6895H88.3672L88.3535 46.7441C88.1553 47.5371 87.5332 48.084 86.5625 48.084C85.332 48.084 84.4844 47.1064 84.4844 45.4521V45.4453C84.4844 43.832 85.3115 42.8066 86.5488 42.8066C87.5947 42.8066 88.1689 43.4355 88.3467 44.1465L88.3604 44.2012H89.5225L89.5156 44.1465C89.3652 42.9297 88.3193 41.7539 86.5488 41.7539C84.5732 41.7539 83.2676 43.1895 83.2676 45.4316V45.4385C83.2676 47.7012 84.5459 49.1367 86.5625 49.1367ZM92.9404 49.1367C93.1729 49.1367 93.4258 49.1094 93.5762 49.0889V48.125C93.4736 48.1318 93.3369 48.1523 93.1934 48.1523C92.5576 48.1523 92.2227 47.9404 92.2227 47.1816V42.875H93.5762V41.8906H92.2227V39.9697H90.9922V41.8906H89.9531V42.875H90.9922V47.1885C90.9922 48.5488 91.6348 49.1367 92.9404 49.1367Z" fill="white"/>
</svg>
