<svg width="918" height="304" viewBox="0 0 918 304" fill="none" xmlns="http://www.w3.org/2000/svg">
<g id="GIFWrapper">
<g id="Frame 1146">
<g clip-path="url(#clip0)">
<rect x="362" y="1" width="108" height="135" rx="3" fill="white"/>
<rect id="Rectangle 1548" x="380" y="43" width="20" height="30" rx="2" fill="#E5E5E5"/>
<rect id="Rectangle 1558" x="406" y="43" width="20" height="30" rx="2" fill="#E5E5E5"/>
<rect id="Rectangle 1561" x="432" y="43" width="20" height="30" rx="2" fill="#E5E5E5"/>
<rect id="Rectangle 1552" x="380" y="81" width="20" height="30" rx="2" fill="#E5E5E5"/>
<rect id="Rectangle 1559" x="406" y="81" width="20" height="30" rx="2" fill="#E5E5E5"/>
<rect id="Rectangle 1562" x="432" y="81" width="20" height="30" rx="2" fill="#E5E5E5"/>
<rect id="Rectangle 1557" x="380" y="121" width="20" height="30" rx="2" fill="#E5E5E5"/>
<rect id="Rectangle 1560" x="406" y="121" width="20" height="30" rx="2" fill="#E5E5E5"/>
<rect id="Rectangle 1563" x="432" y="121" width="20" height="30" rx="2" fill="#E5E5E5"/>
<rect id="Rectangle 1556" x="363" y="2" width="108" height="29" fill="#E5E5E5"/>
<path id="Sketch" d="M369.76 17.63H368.24C368.233 18.07 368.313 18.45 368.48 18.77C368.647 19.09 368.87 19.3533 369.15 19.56C369.437 19.7667 369.763 19.9167 370.13 20.01C370.503 20.11 370.887 20.16 371.28 20.16C371.767 20.16 372.193 20.1033 372.56 19.99C372.933 19.8767 373.243 19.72 373.49 19.52C373.743 19.3133 373.933 19.07 374.06 18.79C374.187 18.51 374.25 18.2067 374.25 17.88C374.25 17.48 374.163 17.1533 373.99 16.9C373.823 16.64 373.623 16.4333 373.39 16.28C373.157 16.1267 372.92 16.0167 372.68 15.95C372.447 15.8767 372.263 15.8267 372.13 15.8C371.683 15.6867 371.32 15.5933 371.04 15.52C370.767 15.4467 370.55 15.3733 370.39 15.3C370.237 15.2267 370.133 15.1467 370.08 15.06C370.027 14.9733 370 14.86 370 14.72C370 14.5667 370.033 14.44 370.1 14.34C370.167 14.24 370.25 14.1567 370.35 14.09C370.457 14.0233 370.573 13.9767 370.7 13.95C370.827 13.9233 370.953 13.91 371.08 13.91C371.273 13.91 371.45 13.9267 371.61 13.96C371.777 13.9933 371.923 14.05 372.05 14.13C372.177 14.21 372.277 14.32 372.35 14.46C372.43 14.6 372.477 14.7767 372.49 14.99H374.01C374.01 14.5767 373.93 14.2267 373.77 13.94C373.617 13.6467 373.407 13.4067 373.14 13.22C372.873 13.0333 372.567 12.9 372.22 12.82C371.88 12.7333 371.523 12.69 371.15 12.69C370.83 12.69 370.51 12.7333 370.19 12.82C369.87 12.9067 369.583 13.04 369.33 13.22C369.077 13.4 368.87 13.6267 368.71 13.9C368.557 14.1667 368.48 14.4833 368.48 14.85C368.48 15.1767 368.54 15.4567 368.66 15.69C368.787 15.9167 368.95 16.1067 369.15 16.26C369.35 16.4133 369.577 16.54 369.83 16.64C370.083 16.7333 370.343 16.8133 370.61 16.88C370.87 16.9533 371.127 17.02 371.38 17.08C371.633 17.14 371.86 17.21 372.06 17.29C372.26 17.37 372.42 17.47 372.54 17.59C372.667 17.71 372.73 17.8667 372.73 18.06C372.73 18.24 372.683 18.39 372.59 18.51C372.497 18.6233 372.38 18.7133 372.24 18.78C372.1 18.8467 371.95 18.8933 371.79 18.92C371.63 18.94 371.48 18.95 371.34 18.95C371.133 18.95 370.933 18.9267 370.74 18.88C370.547 18.8267 370.377 18.75 370.23 18.65C370.09 18.5433 369.977 18.4067 369.89 18.24C369.803 18.0733 369.76 17.87 369.76 17.63ZM375.164 12.86V20H376.584V18.22L377.134 17.69L378.554 20H380.274L378.104 16.73L380.054 14.83H378.374L376.584 16.69V12.86H375.164ZM384.256 16.86H381.946C381.953 16.76 381.973 16.6467 382.006 16.52C382.046 16.3933 382.11 16.2733 382.196 16.16C382.29 16.0467 382.41 15.9533 382.556 15.88C382.71 15.8 382.9 15.76 383.126 15.76C383.473 15.76 383.73 15.8533 383.896 16.04C384.07 16.2267 384.19 16.5 384.256 16.86ZM381.946 17.76H385.676C385.703 17.36 385.67 16.9767 385.576 16.61C385.483 16.2433 385.33 15.9167 385.116 15.63C384.91 15.3433 384.643 15.1167 384.316 14.95C383.99 14.7767 383.606 14.69 383.166 14.69C382.773 14.69 382.413 14.76 382.086 14.9C381.766 15.04 381.49 15.2333 381.256 15.48C381.023 15.72 380.843 16.0067 380.716 16.34C380.59 16.6733 380.526 17.0333 380.526 17.42C380.526 17.82 380.586 18.1867 380.706 18.52C380.833 18.8533 381.01 19.14 381.236 19.38C381.463 19.62 381.74 19.8067 382.066 19.94C382.393 20.0667 382.76 20.13 383.166 20.13C383.753 20.13 384.253 19.9967 384.666 19.73C385.08 19.4633 385.386 19.02 385.586 18.4H384.336C384.29 18.56 384.163 18.7133 383.956 18.86C383.75 19 383.503 19.07 383.216 19.07C382.816 19.07 382.51 18.9667 382.296 18.76C382.083 18.5533 381.966 18.22 381.946 17.76ZM388.319 14.83V13.28H386.899V14.83H386.039V15.78H386.899V18.83C386.899 19.09 386.942 19.3 387.029 19.46C387.115 19.62 387.232 19.7433 387.379 19.83C387.532 19.9167 387.705 19.9733 387.899 20C388.099 20.0333 388.309 20.05 388.529 20.05C388.669 20.05 388.812 20.0467 388.959 20.04C389.105 20.0333 389.239 20.02 389.359 20V18.9C389.292 18.9133 389.222 18.9233 389.149 18.93C389.075 18.9367 388.999 18.94 388.919 18.94C388.679 18.94 388.519 18.9 388.439 18.82C388.359 18.74 388.319 18.58 388.319 18.34V15.78H389.359V14.83H388.319ZM393.554 16.65H394.944C394.924 16.3167 394.844 16.03 394.704 15.79C394.564 15.5433 394.381 15.34 394.154 15.18C393.934 15.0133 393.681 14.89 393.394 14.81C393.114 14.73 392.821 14.69 392.514 14.69C392.094 14.69 391.721 14.76 391.394 14.9C391.067 15.04 390.791 15.2367 390.564 15.49C390.337 15.7367 390.164 16.0333 390.044 16.38C389.931 16.72 389.874 17.09 389.874 17.49C389.874 17.8767 389.937 18.2333 390.064 18.56C390.191 18.88 390.367 19.1567 390.594 19.39C390.821 19.6233 391.094 19.8067 391.414 19.94C391.741 20.0667 392.097 20.13 392.484 20.13C393.171 20.13 393.734 19.95 394.174 19.59C394.614 19.23 394.881 18.7067 394.974 18.02H393.604C393.557 18.34 393.441 18.5967 393.254 18.79C393.074 18.9767 392.814 19.07 392.474 19.07C392.254 19.07 392.067 19.02 391.914 18.92C391.761 18.82 391.637 18.6933 391.544 18.54C391.457 18.38 391.394 18.2033 391.354 18.01C391.314 17.8167 391.294 17.6267 391.294 17.44C391.294 17.2467 391.314 17.0533 391.354 16.86C391.394 16.66 391.461 16.48 391.554 16.32C391.654 16.1533 391.781 16.02 391.934 15.92C392.087 15.8133 392.277 15.76 392.504 15.76C393.111 15.76 393.461 16.0567 393.554 16.65ZM395.776 12.86V20H397.196V17.29C397.196 16.7633 397.283 16.3867 397.456 16.16C397.63 15.9267 397.91 15.81 398.296 15.81C398.636 15.81 398.873 15.9167 399.006 16.13C399.14 16.3367 399.206 16.6533 399.206 17.08V20H400.626V16.82C400.626 16.5 400.596 16.21 400.536 15.95C400.483 15.6833 400.386 15.46 400.246 15.28C400.106 15.0933 399.913 14.95 399.666 14.85C399.426 14.7433 399.116 14.69 398.736 14.69C398.47 14.69 398.196 14.76 397.916 14.9C397.636 15.0333 397.406 15.25 397.226 15.55H397.196V12.86H395.776Z" fill="black"/>
</g>
<rect x="362" y="1" width="108" height="135" rx="3" stroke="black" stroke-width="2"/>
</g>
<g id="Frame 1147">
<g clip-path="url(#clip1)">
<rect x="401" y="168" width="108" height="135" rx="3" fill="white"/>
<rect id="Rectangle 1548_2" x="419" y="210" width="20" height="30" rx="2" fill="#E5E5E5"/>
<rect id="Rectangle 1558_2" x="445" y="210" width="20" height="30" rx="2" fill="#E5E5E5"/>
<rect id="Rectangle 1561_2" x="471" y="210" width="20" height="30" rx="2" fill="#E5E5E5"/>
<rect id="Rectangle 1552_2" x="419" y="248" width="20" height="30" rx="2" fill="#E5E5E5"/>
<rect id="Rectangle 1559_2" x="445" y="248" width="20" height="30" rx="2" fill="#E5E5E5"/>
<rect id="Rectangle 1562_2" x="471" y="248" width="20" height="30" rx="2" fill="#E5E5E5"/>
<rect id="Rectangle 1557_2" x="419" y="288" width="20" height="30" rx="2" fill="#E5E5E5"/>
<rect id="Rectangle 1560_2" x="445" y="288" width="20" height="30" rx="2" fill="#E5E5E5"/>
<rect id="Rectangle 1563_2" x="471" y="288" width="20" height="30" rx="2" fill="#E5E5E5"/>
<rect id="Rectangle 1556_2" x="402" y="169" width="108" height="29" fill="#E5E5E5"/>
<path id="Figma" d="M407.69 179.86V187H409.26V184.05H412.25V182.83H409.26V181.18H412.71V179.86H407.69ZM414.928 181.03V179.86H413.508V181.03H414.928ZM413.508 181.83V187H414.928V181.83H413.508ZM418.456 185.78C418.236 185.78 418.053 185.733 417.906 185.64C417.759 185.547 417.639 185.427 417.546 185.28C417.459 185.133 417.396 184.97 417.356 184.79C417.323 184.603 417.306 184.417 417.306 184.23C417.306 184.037 417.326 183.853 417.366 183.68C417.413 183.5 417.483 183.343 417.576 183.21C417.676 183.07 417.796 182.96 417.936 182.88C418.083 182.8 418.256 182.76 418.456 182.76C418.689 182.76 418.883 182.803 419.036 182.89C419.189 182.977 419.313 183.093 419.406 183.24C419.499 183.387 419.566 183.557 419.606 183.75C419.646 183.937 419.666 184.137 419.666 184.35C419.666 184.537 419.639 184.717 419.586 184.89C419.539 185.057 419.466 185.207 419.366 185.34C419.266 185.473 419.139 185.58 418.986 185.66C418.833 185.74 418.656 185.78 418.456 185.78ZM421.016 186.67V181.83H419.666V182.52H419.646C419.473 182.22 419.256 182.007 418.996 181.88C418.743 181.753 418.446 181.69 418.106 181.69C417.746 181.69 417.426 181.76 417.146 181.9C416.873 182.04 416.643 182.23 416.456 182.47C416.269 182.703 416.126 182.977 416.026 183.29C415.933 183.597 415.886 183.917 415.886 184.25C415.886 184.603 415.926 184.94 416.006 185.26C416.093 185.573 416.226 185.85 416.406 186.09C416.586 186.323 416.816 186.51 417.096 186.65C417.376 186.783 417.709 186.85 418.096 186.85C418.409 186.85 418.706 186.787 418.986 186.66C419.273 186.527 419.493 186.323 419.646 186.05H419.666V186.73C419.673 187.097 419.583 187.4 419.396 187.64C419.216 187.88 418.926 188 418.526 188C418.273 188 418.049 187.947 417.856 187.84C417.663 187.74 417.533 187.557 417.466 187.29H416.056C416.076 187.583 416.156 187.833 416.296 188.04C416.443 188.253 416.623 188.427 416.836 188.56C417.056 188.693 417.296 188.79 417.556 188.85C417.823 188.917 418.083 188.95 418.336 188.95C418.929 188.95 419.403 188.87 419.756 188.71C420.109 188.55 420.379 188.353 420.566 188.12C420.753 187.893 420.873 187.647 420.926 187.38C420.986 187.113 421.016 186.877 421.016 186.67ZM422.199 181.83V187H423.619V184C423.619 183.747 423.656 183.543 423.729 183.39C423.802 183.23 423.889 183.11 423.989 183.03C424.096 182.943 424.202 182.887 424.309 182.86C424.422 182.827 424.512 182.81 424.579 182.81C424.806 182.81 424.976 182.85 425.089 182.93C425.209 183.003 425.292 183.103 425.339 183.23C425.392 183.357 425.422 183.497 425.429 183.65C425.436 183.797 425.439 183.947 425.439 184.1V187H426.859V184.12C426.859 183.96 426.869 183.803 426.889 183.65C426.916 183.49 426.962 183.35 427.029 183.23C427.102 183.103 427.199 183.003 427.319 182.93C427.446 182.85 427.609 182.81 427.809 182.81C428.009 182.81 428.166 182.843 428.279 182.91C428.399 182.977 428.489 183.067 428.549 183.18C428.609 183.293 428.646 183.427 428.659 183.58C428.672 183.733 428.679 183.897 428.679 184.07V187H430.099V183.54C430.099 183.207 430.052 182.923 429.959 182.69C429.866 182.45 429.736 182.257 429.569 182.11C429.402 181.963 429.202 181.857 428.969 181.79C428.736 181.723 428.482 181.69 428.209 181.69C427.849 181.69 427.536 181.777 427.269 181.95C427.009 182.123 426.802 182.323 426.649 182.55C426.509 182.23 426.302 182.007 426.029 181.88C425.762 181.753 425.466 181.69 425.139 181.69C424.799 181.69 424.496 181.763 424.229 181.91C423.969 182.057 423.746 182.263 423.559 182.53H423.539V181.83H422.199ZM431.162 183.42C431.182 183.087 431.265 182.81 431.412 182.59C431.558 182.37 431.745 182.193 431.972 182.06C432.198 181.927 432.452 181.833 432.732 181.78C433.018 181.72 433.305 181.69 433.592 181.69C433.852 181.69 434.115 181.71 434.382 181.75C434.648 181.783 434.892 181.853 435.112 181.96C435.332 182.067 435.512 182.217 435.652 182.41C435.792 182.597 435.862 182.847 435.862 183.16V185.85C435.862 186.083 435.875 186.307 435.902 186.52C435.928 186.733 435.975 186.893 436.042 187H434.602C434.575 186.92 434.552 186.84 434.532 186.76C434.518 186.673 434.508 186.587 434.502 186.5C434.275 186.733 434.008 186.897 433.702 186.99C433.395 187.083 433.082 187.13 432.762 187.13C432.515 187.13 432.285 187.1 432.072 187.04C431.858 186.98 431.672 186.887 431.512 186.76C431.352 186.633 431.225 186.473 431.132 186.28C431.045 186.087 431.002 185.857 431.002 185.59C431.002 185.297 431.052 185.057 431.152 184.87C431.258 184.677 431.392 184.523 431.552 184.41C431.718 184.297 431.905 184.213 432.112 184.16C432.325 184.1 432.538 184.053 432.752 184.02C432.965 183.987 433.175 183.96 433.382 183.94C433.588 183.92 433.772 183.89 433.932 183.85C434.092 183.81 434.218 183.753 434.312 183.68C434.405 183.6 434.448 183.487 434.442 183.34C434.442 183.187 434.415 183.067 434.362 182.98C434.315 182.887 434.248 182.817 434.162 182.77C434.082 182.717 433.985 182.683 433.872 182.67C433.765 182.65 433.648 182.64 433.522 182.64C433.242 182.64 433.022 182.7 432.862 182.82C432.702 182.94 432.608 183.14 432.582 183.42H431.162ZM434.442 184.47C434.382 184.523 434.305 184.567 434.212 184.6C434.125 184.627 434.028 184.65 433.922 184.67C433.822 184.69 433.715 184.707 433.602 184.72C433.488 184.733 433.375 184.75 433.262 184.77C433.155 184.79 433.048 184.817 432.942 184.85C432.842 184.883 432.752 184.93 432.672 184.99C432.598 185.043 432.538 185.113 432.492 185.2C432.445 185.287 432.422 185.397 432.422 185.53C432.422 185.657 432.445 185.763 432.492 185.85C432.538 185.937 432.602 186.007 432.682 186.06C432.762 186.107 432.855 186.14 432.962 186.16C433.068 186.18 433.178 186.19 433.292 186.19C433.572 186.19 433.788 186.143 433.942 186.05C434.095 185.957 434.208 185.847 434.282 185.72C434.355 185.587 434.398 185.453 434.412 185.32C434.432 185.187 434.442 185.08 434.442 185V184.47Z" fill="black"/>
<path id="Polygon 1" d="M501 183L492 188.196L492 177.804L501 183Z" fill="#393939"/>
</g>
<rect x="401" y="168" width="108" height="135" rx="3" stroke="black" stroke-width="2"/>
</g>
<g id="Group 1128">
<path id="Rectangle 1543" d="M766.392 80.5L771.392 74.5L778.892 70L786.892 73.5L795.392 70L802.892 75L806.892 80.5L807.892 105H765.892L766.392 80.5Z" fill="#085CAF"/>
<g id="Group">
<g id="Group_2">
<path id="Vector" d="M808.759 84.1507C808.716 75.5731 798.037 70.3817 797.621 70.1844C796.245 69.4549 795.533 68.3802 796.523 65.5057C797.412 62.9456 798.181 60.3709 797.822 57.0355C797.262 51.785 792.386 47.5331 786.938 47.5331C786.922 47.5331 786.905 47.5331 786.888 47.5331C781.457 47.4891 776.516 51.7699 775.954 57.0345C775.595 60.3729 776.364 62.9466 777.253 65.5033C778.243 68.3797 777.53 69.4549 776.194 70.1649C775.739 70.3817 765.06 75.5731 765.018 84.1507C764.978 92.1117 765.018 104.875 765.018 105.003C765.02 105.554 765.467 106 766.018 106H807.78C808.331 106 808.779 105.553 808.78 105.001C808.78 104.873 808.799 92.1107 808.759 84.1507ZM777.943 57.2474C778.39 53.057 782.458 49.5331 786.839 49.5331C786.855 49.5331 786.869 49.5335 786.884 49.5331C786.886 49.5331 786.89 49.5331 786.892 49.5331C786.907 49.5311 786.921 49.5335 786.937 49.5331C791.317 49.5331 795.386 53.057 795.833 57.2484C796.119 59.9105 795.632 61.9735 794.633 64.8519C794.368 65.6185 793.781 67.3407 794.23 69.0291C791.864 71.2806 789.401 72.4012 786.822 72.3338C783.302 72.2391 780.539 69.9276 779.563 68.9935C779.988 67.3192 779.406 65.6131 779.143 64.8495C778.144 61.9745 777.656 59.9115 777.943 57.2474ZM806.78 104H767.015C767.007 100.831 766.985 90.8148 767.018 84.1605C767.053 76.8412 776.955 72.0179 777.093 71.951C777.726 71.6156 778.205 71.2274 778.582 70.8119C779.989 72.0677 782.942 74.2225 786.748 74.3324C786.849 74.3353 786.95 74.3368 787.051 74.3368C789.91 74.3368 792.654 73.1527 795.227 70.8338C795.607 71.2474 796.088 71.6346 796.722 71.9706C796.822 72.0179 806.723 76.8241 806.759 84.1605C806.792 90.8138 806.784 100.829 806.78 104Z" fill="black"/>
<path id="Vector_2" d="M785.888 62.9999L789.888 63.0145C789.89 63.0145 789.891 63.0145 789.892 63.0145C790.442 63.0145 790.89 62.5692 790.892 62.0184C790.894 61.4657 790.447 61.0165 789.896 61.0145L786.892 61.0033V55.9999C786.892 55.4476 786.444 54.9999 785.892 54.9999C785.339 54.9999 784.892 55.4476 784.892 55.9999V61.9999C784.892 62.5507 785.337 62.9979 785.888 62.9999Z" fill="black"/>
<path id="Vector_3" d="M784.035 83.1395C783.684 82.7142 783.055 82.6517 782.627 83.0043L776.92 87.7123C776.689 87.9027 776.556 88.1864 776.557 88.4857C776.558 88.785 776.691 89.0682 776.924 89.2577L782.42 93.7543C782.605 93.9061 782.829 93.9803 783.052 93.9803C783.342 93.9803 783.629 93.8553 783.827 93.6136C784.177 93.1859 784.113 92.556 783.686 92.2064L779.132 88.4803L783.9 84.5472C784.326 84.1957 784.387 83.5653 784.035 83.1395Z" fill="white"/>
<path id="Vector_4" d="M794.977 91.9803H788.212C787.659 91.9803 787.212 92.4281 787.212 92.9803C787.212 93.5326 787.659 93.9803 788.212 93.9803H794.977C795.529 93.9803 795.977 93.5326 795.977 92.9803C795.977 92.4281 795.529 91.9803 794.977 91.9803Z" fill="white"/>
</g>
</g>
</g>
<g id="Group 1138">
<path id="Rectangle 1543_2" d="M766.392 144.967L771.392 138.967L778.892 134.467L786.892 137.967L795.392 134.467L802.892 139.467L806.892 144.967L807.892 169.467H765.892L766.392 144.967Z" fill="#085CAF"/>
<g id="Group_3">
<g id="Group_4">
<path id="Vector_5" d="M808.759 148.618C808.716 140.04 798.037 134.849 797.621 134.652C796.245 133.922 795.533 132.848 796.523 129.973C797.412 127.413 798.181 124.838 797.822 121.503C797.262 116.252 792.386 112 786.938 112C786.922 112 786.905 112 786.888 112C781.457 111.956 776.516 116.237 775.954 121.502C775.595 124.84 776.364 127.414 777.253 129.971C778.243 132.847 777.53 133.922 776.194 134.632C775.739 134.849 765.06 140.04 765.018 148.618C764.978 156.579 765.018 169.342 765.018 169.47C765.02 170.021 765.467 170.467 766.018 170.467H807.78C808.331 170.467 808.779 170.02 808.78 169.469C808.78 169.341 808.799 156.578 808.759 148.618ZM777.943 121.715C778.39 117.524 782.458 114 786.839 114C786.855 114 786.869 114.001 786.884 114C786.886 114 786.89 114 786.892 114C786.907 113.998 786.921 114.001 786.937 114C791.317 114 795.386 117.524 795.833 121.716C796.119 124.378 795.632 126.441 794.633 129.319C794.368 130.086 793.781 131.808 794.23 133.496C791.864 135.748 789.401 136.868 786.822 136.801C783.302 136.706 780.539 134.395 779.563 133.461C779.988 131.786 779.406 130.08 779.143 129.317C778.144 126.442 777.656 124.379 777.943 121.715ZM806.78 168.467H767.015C767.007 165.299 766.985 155.282 767.018 148.628C767.053 141.308 776.955 136.485 777.093 136.418C777.726 136.083 778.205 135.695 778.582 135.279C779.989 136.535 782.942 138.69 786.748 138.8C786.849 138.803 786.95 138.804 787.051 138.804C789.91 138.804 792.654 137.62 795.227 135.301C795.607 135.715 796.088 136.102 796.722 136.438C796.822 136.485 806.723 141.291 806.759 148.628C806.792 155.281 806.784 165.296 806.78 168.467Z" fill="black"/>
<path id="Vector_6" d="M785.888 127.467L789.888 127.482C789.89 127.482 789.891 127.482 789.892 127.482C790.442 127.482 790.89 127.036 790.892 126.486C790.894 125.933 790.447 125.484 789.896 125.482L786.892 125.471V120.467C786.892 119.915 786.444 119.467 785.892 119.467C785.339 119.467 784.892 119.915 784.892 120.467V126.467C784.892 127.018 785.337 127.465 785.888 127.467Z" fill="black"/>
<path id="Vector_7" d="M784.035 147.607C783.684 147.182 783.055 147.119 782.627 147.472L776.92 152.18C776.689 152.37 776.556 152.654 776.557 152.953C776.558 153.252 776.691 153.536 776.924 153.725L782.42 158.222C782.605 158.373 782.829 158.448 783.052 158.448C783.342 158.448 783.629 158.323 783.827 158.081C784.177 157.653 784.113 157.023 783.686 156.674L779.132 152.948L783.9 149.015C784.326 148.663 784.387 148.033 784.035 147.607Z" fill="white"/>
<path id="Vector_8" d="M794.977 156.448H788.212C787.659 156.448 787.212 156.895 787.212 157.448C787.212 158 787.659 158.448 788.212 158.448H794.977C795.529 158.448 795.977 158 795.977 157.448C795.977 156.895 795.529 156.448 794.977 156.448Z" fill="white"/>
</g>
</g>
</g>
<g id="Group 1131">
<path id="Rectangle 1543_3" d="M766.392 209.967L771.392 203.967L778.892 199.467L786.892 202.967L795.392 199.467L802.892 204.467L806.892 209.967L807.892 234.467H765.892L766.392 209.967Z" fill="#74777A"/>
<g id="Group_5">
<g id="Group_6">
<path id="Vector_9" d="M808.759 213.618C808.716 205.04 798.037 199.849 797.621 199.652C796.245 198.922 795.533 197.848 796.523 194.973C797.412 192.413 798.181 189.838 797.822 186.503C797.262 181.252 792.386 177 786.938 177C786.922 177 786.905 177 786.888 177C781.457 176.956 776.516 181.237 775.954 186.502C775.595 189.84 776.364 192.414 777.253 194.971C778.243 197.847 777.53 198.922 776.194 199.632C775.739 199.849 765.06 205.04 765.018 213.618C764.978 221.579 765.018 234.342 765.018 234.47C765.02 235.021 765.467 235.467 766.018 235.467H807.78C808.331 235.467 808.779 235.02 808.78 234.469C808.78 234.341 808.799 221.578 808.759 213.618ZM777.943 186.715C778.39 182.524 782.458 179 786.839 179C786.855 179 786.869 179.001 786.884 179C786.886 179 786.89 179 786.892 179C786.907 178.998 786.921 179.001 786.937 179C791.317 179 795.386 182.524 795.833 186.716C796.119 189.378 795.632 191.441 794.633 194.319C794.368 195.086 793.781 196.808 794.23 198.496C791.864 200.748 789.401 201.868 786.822 201.801C783.302 201.706 780.539 199.395 779.563 198.461C779.988 196.786 779.406 195.08 779.143 194.317C778.144 191.442 777.656 189.379 777.943 186.715ZM806.78 233.467H767.015C767.007 230.299 766.985 220.282 767.018 213.628C767.053 206.308 776.955 201.485 777.093 201.418C777.726 201.083 778.205 200.695 778.582 200.279C779.989 201.535 782.942 203.69 786.748 203.8C786.849 203.803 786.95 203.804 787.051 203.804C789.91 203.804 792.654 202.62 795.227 200.301C795.607 200.715 796.088 201.102 796.722 201.438C796.822 201.485 806.723 206.291 806.759 213.628C806.792 220.281 806.784 230.296 806.78 233.467Z" fill="black"/>
<path id="Vector_10" d="M785.888 192.467L789.888 192.482C789.89 192.482 789.891 192.482 789.892 192.482C790.442 192.482 790.89 192.036 790.892 191.486C790.894 190.933 790.447 190.484 789.896 190.482L786.892 190.471V185.467C786.892 184.915 786.444 184.467 785.892 184.467C785.339 184.467 784.892 184.915 784.892 185.467V191.467C784.892 192.018 785.337 192.465 785.888 192.467Z" fill="black"/>
<path id="Vector_11" d="M784.035 212.607C783.684 212.182 783.055 212.119 782.627 212.472L776.92 217.18C776.689 217.37 776.556 217.654 776.557 217.953C776.558 218.252 776.691 218.536 776.924 218.725L782.42 223.222C782.605 223.373 782.829 223.448 783.052 223.448C783.342 223.448 783.629 223.323 783.827 223.081C784.177 222.653 784.113 222.023 783.686 221.674L779.132 217.948L783.9 214.015C784.326 213.663 784.387 213.033 784.035 212.607Z" fill="white"/>
<path id="Vector_12" d="M794.977 221.448H788.212C787.659 221.448 787.212 221.895 787.212 222.448C787.212 223 787.659 223.448 788.212 223.448H794.977C795.529 223.448 795.977 223 795.977 222.448C795.977 221.895 795.529 221.448 794.977 221.448Z" fill="white"/>
</g>
</g>
</g>
<g id="Group 1127">
<path id="Rectangle 1542" d="M110.5 79.9673L115.5 73.9673L123 69.4673L131 72.9673L139.5 69.4673L147 74.4673L151 79.9673L152 104.467H110L110.5 79.9673Z" fill="#BB0000"/>
<g id="Group_7">
<g id="Group_8">
<path id="Vector_13" d="M152.759 83.618C152.716 75.0404 142.037 69.849 141.621 69.6517C140.245 68.9222 139.533 67.8475 140.523 64.973C141.412 62.4129 142.181 59.8382 141.822 56.5028C141.262 51.2523 136.386 47.0003 130.938 47.0003C130.922 47.0003 130.905 47.0003 130.888 47.0003C125.457 46.9564 120.516 51.2372 119.954 56.5018C119.595 59.8402 120.364 62.4139 121.253 64.9706C122.243 67.847 121.53 68.9222 120.194 69.6322C119.739 69.849 109.06 75.0404 109.018 83.618C108.978 91.5789 109.018 104.342 109.018 104.47C109.02 105.021 109.467 105.467 110.018 105.467H151.78C152.331 105.467 152.779 105.02 152.78 104.469C152.78 104.341 152.799 91.578 152.759 83.618ZM121.943 56.7147C122.39 52.5243 126.458 49.0003 130.839 49.0003C130.855 49.0003 130.869 49.0008 130.884 49.0003H130.892C130.907 48.9984 130.921 49.0008 130.937 49.0003C135.317 49.0003 139.386 52.5243 139.833 56.7157C140.119 59.3778 139.632 61.4408 138.633 64.3192C138.368 65.0858 137.781 66.808 138.23 68.4964C135.864 70.7479 133.401 71.8685 130.822 71.8011C127.302 71.7064 124.539 69.3949 123.563 68.4608C123.988 66.7865 123.406 65.0804 123.143 64.3167C122.144 61.4417 121.656 59.3788 121.943 56.7147ZM150.78 103.467H111.015C111.007 100.299 110.985 90.2821 111.018 83.6278C111.053 76.3084 120.955 71.4852 121.093 71.4183C121.726 71.0829 122.205 70.6947 122.582 70.2791C123.989 71.535 126.942 73.6898 130.748 73.7997C130.849 73.8026 130.95 73.804 131.051 73.804C133.91 73.804 136.654 72.62 139.227 70.3011C139.607 70.7147 140.088 71.1019 140.722 71.4378C140.822 71.4852 150.723 76.2914 150.759 83.6278C150.792 90.2811 150.784 100.296 150.78 103.467Z" fill="black"/>
<g id="262-Pen">
<path id="Vector_14" d="M141.258 87.4526L137.044 80.1537C136.95 79.9923 136.797 79.8746 136.617 79.8264C136.437 79.7782 136.245 79.8034 136.084 79.8966L126.96 85.1641L127.663 86.3806L136.178 81.4642L136.881 82.6807L122.891 90.7576C122.772 90.8274 122.677 90.9305 122.616 91.0542L120.371 95.5942C120.321 95.6976 120.296 95.8119 120.3 95.9271C120.304 96.0422 120.336 96.1546 120.394 96.2543C120.451 96.3541 120.533 96.4381 120.63 96.4991C120.728 96.56 120.839 96.596 120.954 96.6039L126.008 96.9298C126.146 96.9392 126.283 96.908 126.403 96.8401L141.001 88.412C141.162 88.3189 141.28 88.1655 141.328 87.9855C141.376 87.8056 141.351 87.6139 141.258 87.4526V87.4526ZM139.69 87.5467L134.824 90.356L132.717 86.7066L137.583 83.8972L139.69 87.5467ZM124.202 91.623L131.5 87.4089L133.607 91.0584L126.309 95.2724L124.202 91.623ZM122.092 95.2738L123.291 92.8545L124.787 95.4456L122.092 95.2738Z" fill="white"/>
</g>
<path id="Vector_15" d="M129.888 62.4672L133.888 62.4818C133.89 62.4818 133.891 62.4818 133.892 62.4818C134.442 62.4818 134.89 62.0365 134.892 61.4857C134.894 60.933 134.447 60.4838 133.896 60.4818L130.892 60.4706V55.4672C130.892 54.9149 130.444 54.4672 129.892 54.4672C129.339 54.4672 128.892 54.9149 128.892 55.4672V61.4672C128.892 62.0179 129.337 62.4652 129.888 62.4672Z" fill="black"/>
</g>
</g>
</g>
<g id="Group 1132">
<path id="Rectangle 1542_2" d="M110.5 144.967L115.5 138.967L123 134.467L131 137.967L139.5 134.467L147 139.467L151 144.967L152 169.467H110L110.5 144.967Z" fill="#BB0000"/>
<g id="Group_9">
<g id="Group_10">
<path id="Vector_16" d="M152.759 148.618C152.716 140.04 142.037 134.849 141.621 134.652C140.245 133.922 139.533 132.848 140.523 129.973C141.412 127.413 142.181 124.838 141.822 121.503C141.262 116.252 136.386 112 130.938 112C130.922 112 130.905 112 130.888 112C125.457 111.956 120.516 116.237 119.954 121.502C119.595 124.84 120.364 127.414 121.253 129.971C122.243 132.847 121.53 133.922 120.194 134.632C119.739 134.849 109.06 140.04 109.018 148.618C108.978 156.579 109.018 169.342 109.018 169.47C109.02 170.021 109.467 170.467 110.018 170.467H151.78C152.331 170.467 152.779 170.02 152.78 169.469C152.78 169.341 152.799 156.578 152.759 148.618ZM121.943 121.715C122.39 117.524 126.458 114 130.839 114C130.855 114 130.869 114.001 130.884 114H130.892C130.907 113.998 130.921 114.001 130.937 114C135.317 114 139.386 117.524 139.833 121.716C140.119 124.378 139.632 126.441 138.633 129.319C138.368 130.086 137.781 131.808 138.23 133.496C135.864 135.748 133.401 136.868 130.822 136.801C127.302 136.706 124.539 134.395 123.563 133.461C123.988 131.786 123.406 130.08 123.143 129.317C122.144 126.442 121.656 124.379 121.943 121.715ZM150.78 168.467H111.015C111.007 165.299 110.985 155.282 111.018 148.628C111.053 141.308 120.955 136.485 121.093 136.418C121.726 136.083 122.205 135.695 122.582 135.279C123.989 136.535 126.942 138.69 130.748 138.8C130.849 138.803 130.95 138.804 131.051 138.804C133.91 138.804 136.654 137.62 139.227 135.301C139.607 135.715 140.088 136.102 140.722 136.438C140.822 136.485 150.723 141.291 150.759 148.628C150.792 155.281 150.784 165.296 150.78 168.467Z" fill="black"/>
<g id="262-Pen_2">
<path id="Vector_17" d="M141.258 152.453L137.044 145.154C136.95 144.992 136.797 144.875 136.617 144.826C136.437 144.778 136.245 144.803 136.084 144.897L126.96 150.164L127.663 151.381L136.178 146.464L136.881 147.681L122.891 155.758C122.772 155.827 122.677 155.931 122.616 156.054L120.371 160.594C120.321 160.698 120.296 160.812 120.3 160.927C120.304 161.042 120.336 161.155 120.394 161.254C120.451 161.354 120.533 161.438 120.63 161.499C120.728 161.56 120.839 161.596 120.954 161.604L126.008 161.93C126.146 161.939 126.283 161.908 126.403 161.84L141.001 153.412C141.162 153.319 141.28 153.165 141.328 152.986C141.376 152.806 141.351 152.614 141.258 152.453V152.453ZM139.69 152.547L134.824 155.356L132.717 151.707L137.583 148.897L139.69 152.547ZM124.202 156.623L131.5 152.409L133.607 156.058L126.309 160.272L124.202 156.623ZM122.092 160.274L123.291 157.854L124.787 160.446L122.092 160.274Z" fill="white"/>
</g>
<path id="Vector_18" d="M129.888 127.467L133.888 127.482C133.89 127.482 133.891 127.482 133.892 127.482C134.442 127.482 134.89 127.036 134.892 126.486C134.894 125.933 134.447 125.484 133.896 125.482L130.892 125.471V120.467C130.892 119.915 130.444 119.467 129.892 119.467C129.339 119.467 128.892 119.915 128.892 120.467V126.467C128.892 127.018 129.337 127.465 129.888 127.467Z" fill="black"/>
</g>
</g>
</g>
<g id="Group 1135">
<path id="Rectangle 1542_3" d="M110.5 209.967L115.5 203.967L123 199.467L131 202.967L139.5 199.467L147 204.467L151 209.967L152 234.467H110L110.5 209.967Z" fill="#BB0000"/>
<g id="Group_11">
<g id="Group_12">
<path id="Vector_19" d="M152.759 213.618C152.716 205.04 142.037 199.849 141.621 199.652C140.245 198.922 139.533 197.848 140.523 194.973C141.412 192.413 142.181 189.838 141.822 186.503C141.262 181.252 136.386 177 130.938 177C130.922 177 130.905 177 130.888 177C125.457 176.956 120.516 181.237 119.954 186.502C119.595 189.84 120.364 192.414 121.253 194.971C122.243 197.847 121.53 198.922 120.194 199.632C119.739 199.849 109.06 205.04 109.018 213.618C108.978 221.579 109.018 234.342 109.018 234.47C109.02 235.021 109.467 235.467 110.018 235.467H151.78C152.331 235.467 152.779 235.02 152.78 234.469C152.78 234.341 152.799 221.578 152.759 213.618ZM121.943 186.715C122.39 182.524 126.458 179 130.839 179C130.855 179 130.869 179.001 130.884 179H130.892C130.907 178.998 130.921 179.001 130.937 179C135.317 179 139.386 182.524 139.833 186.716C140.119 189.378 139.632 191.441 138.633 194.319C138.368 195.086 137.781 196.808 138.23 198.496C135.864 200.748 133.401 201.868 130.822 201.801C127.302 201.706 124.539 199.395 123.563 198.461C123.988 196.786 123.406 195.08 123.143 194.317C122.144 191.442 121.656 189.379 121.943 186.715ZM150.78 233.467H111.015C111.007 230.299 110.985 220.282 111.018 213.628C111.053 206.308 120.955 201.485 121.093 201.418C121.726 201.083 122.205 200.695 122.582 200.279C123.989 201.535 126.942 203.69 130.748 203.8C130.849 203.803 130.95 203.804 131.051 203.804C133.91 203.804 136.654 202.62 139.227 200.301C139.607 200.715 140.088 201.102 140.722 201.438C140.822 201.485 150.723 206.291 150.759 213.628C150.792 220.281 150.784 230.296 150.78 233.467Z" fill="black"/>
<g id="262-Pen_3">
<path id="Vector_20" d="M141.258 217.453L137.044 210.154C136.95 209.992 136.797 209.875 136.617 209.826C136.437 209.778 136.245 209.803 136.084 209.897L126.96 215.164L127.663 216.381L136.178 211.464L136.881 212.681L122.891 220.758C122.772 220.827 122.677 220.931 122.616 221.054L120.371 225.594C120.321 225.698 120.296 225.812 120.3 225.927C120.304 226.042 120.336 226.155 120.394 226.254C120.451 226.354 120.533 226.438 120.63 226.499C120.728 226.56 120.839 226.596 120.954 226.604L126.008 226.93C126.146 226.939 126.283 226.908 126.403 226.84L141.001 218.412C141.162 218.319 141.28 218.165 141.328 217.986C141.376 217.806 141.351 217.614 141.258 217.453V217.453ZM139.69 217.547L134.824 220.356L132.717 216.707L137.583 213.897L139.69 217.547ZM124.202 221.623L131.5 217.409L133.607 221.058L126.309 225.272L124.202 221.623ZM122.092 225.274L123.291 222.854L124.787 225.446L122.092 225.274Z" fill="white"/>
</g>
<path id="Vector_21" d="M129.888 192.467L133.888 192.482C133.89 192.482 133.891 192.482 133.892 192.482C134.442 192.482 134.89 192.036 134.892 191.486C134.894 190.933 134.447 190.484 133.896 190.482L130.892 190.471V185.467C130.892 184.915 130.444 184.467 129.892 184.467C129.339 184.467 128.892 184.915 128.892 185.467V191.467C128.892 192.018 129.337 192.465 129.888 192.467Z" fill="black"/>
</g>
</g>
</g>
<g id="Group 1130">
<path id="Rectangle 1542_4" d="M216.5 79.9673L221.5 73.9673L229 69.4673L237 72.9673L245.5 69.4673L253 74.4673L257 79.9673L258 104.467H216L216.5 79.9673Z" fill="#BB0000"/>
<g id="Group_13">
<g id="Group_14">
<path id="Vector_22" d="M258.759 83.618C258.716 75.0404 248.037 69.849 247.621 69.6517C246.245 68.9222 245.533 67.8475 246.523 64.973C247.412 62.4129 248.181 59.8382 247.822 56.5028C247.262 51.2523 242.386 47.0003 236.938 47.0003C236.922 47.0003 236.905 47.0003 236.888 47.0003C231.457 46.9564 226.516 51.2372 225.954 56.5018C225.595 59.8402 226.364 62.4139 227.253 64.9706C228.243 67.847 227.53 68.9222 226.194 69.6322C225.739 69.849 215.06 75.0404 215.018 83.618C214.978 91.5789 215.018 104.342 215.018 104.47C215.02 105.021 215.467 105.467 216.018 105.467H257.78C258.331 105.467 258.779 105.02 258.78 104.469C258.78 104.341 258.799 91.578 258.759 83.618ZM227.943 56.7147C228.39 52.5243 232.458 49.0003 236.839 49.0003C236.855 49.0003 236.869 49.0008 236.884 49.0003H236.892C236.907 48.9984 236.921 49.0008 236.937 49.0003C241.317 49.0003 245.386 52.5243 245.833 56.7157C246.119 59.3778 245.632 61.4408 244.633 64.3192C244.368 65.0858 243.781 66.808 244.23 68.4964C241.864 70.7479 239.401 71.8685 236.822 71.8011C233.302 71.7064 230.539 69.3949 229.563 68.4608C229.988 66.7865 229.406 65.0804 229.143 64.3167C228.144 61.4417 227.656 59.3788 227.943 56.7147ZM256.78 103.467H217.015C217.007 100.299 216.985 90.2821 217.018 83.6278C217.053 76.3084 226.955 71.4852 227.093 71.4183C227.726 71.0829 228.205 70.6947 228.582 70.2791C229.989 71.535 232.942 73.6898 236.748 73.7997C236.849 73.8026 236.95 73.804 237.051 73.804C239.91 73.804 242.654 72.62 245.227 70.3011C245.607 70.7147 246.088 71.1019 246.722 71.4378C246.822 71.4852 256.723 76.2914 256.759 83.6278C256.792 90.2811 256.784 100.296 256.78 103.467Z" fill="black"/>
<g id="262-Pen_4">
<path id="Vector_23" d="M247.258 87.4526L243.044 80.1537C242.95 79.9923 242.797 79.8746 242.617 79.8264C242.437 79.7782 242.245 79.8034 242.084 79.8966L232.96 85.1641L233.663 86.3806L242.178 81.4642L242.881 82.6807L228.891 90.7576C228.772 90.8274 228.677 90.9305 228.616 91.0542L226.371 95.5942C226.321 95.6976 226.296 95.8119 226.3 95.9271C226.304 96.0422 226.336 96.1546 226.394 96.2543C226.451 96.3541 226.533 96.4381 226.63 96.4991C226.728 96.56 226.839 96.596 226.954 96.6039L232.008 96.9298C232.146 96.9392 232.283 96.908 232.403 96.8401L247.001 88.412C247.162 88.3189 247.28 88.1655 247.328 87.9855C247.376 87.8056 247.351 87.6139 247.258 87.4526V87.4526ZM245.69 87.5467L240.824 90.356L238.717 86.7066L243.583 83.8972L245.69 87.5467ZM230.202 91.623L237.5 87.4089L239.607 91.0584L232.309 95.2724L230.202 91.623ZM228.092 95.2738L229.291 92.8545L230.787 95.4456L228.092 95.2738Z" fill="white"/>
</g>
<path id="Vector_24" d="M235.888 62.4672L239.888 62.4818C239.89 62.4818 239.891 62.4818 239.892 62.4818C240.442 62.4818 240.89 62.0365 240.892 61.4857C240.894 60.933 240.447 60.4838 239.896 60.4818L236.892 60.4706V55.4672C236.892 54.9149 236.444 54.4672 235.892 54.4672C235.339 54.4672 234.892 54.9149 234.892 55.4672V61.4672C234.892 62.0179 235.337 62.4652 235.888 62.4672Z" fill="black"/>
</g>
</g>
</g>
<g id="Group 1142">
<path id="Rectangle 1542_5" d="M653.5 79.9673L658.5 73.9673L666 69.4673L674 72.9673L682.5 69.4673L690 74.4673L694 79.9673L695 104.467H653L653.5 79.9673Z" fill="#BB0000"/>
<g id="Group_15">
<g id="Group_16">
<path id="Vector_25" d="M695.759 83.618C695.716 75.0404 685.037 69.849 684.621 69.6517C683.245 68.9222 682.533 67.8475 683.523 64.973C684.412 62.4129 685.181 59.8382 684.822 56.5028C684.262 51.2523 679.386 47.0003 673.938 47.0003C673.922 47.0003 673.905 47.0003 673.888 47.0003C668.457 46.9564 663.516 51.2372 662.954 56.5018C662.595 59.8402 663.364 62.4139 664.253 64.9706C665.243 67.847 664.53 68.9222 663.194 69.6322C662.739 69.849 652.06 75.0404 652.018 83.618C651.978 91.5789 652.018 104.342 652.018 104.47C652.02 105.021 652.467 105.467 653.018 105.467H694.78C695.331 105.467 695.779 105.02 695.78 104.469C695.78 104.341 695.799 91.578 695.759 83.618ZM664.943 56.7147C665.39 52.5243 669.458 49.0003 673.839 49.0003C673.855 49.0003 673.869 49.0008 673.884 49.0003H673.892C673.907 48.9984 673.921 49.0008 673.937 49.0003C678.317 49.0003 682.386 52.5243 682.833 56.7157C683.119 59.3778 682.632 61.4408 681.633 64.3192C681.368 65.0858 680.781 66.808 681.23 68.4964C678.864 70.7479 676.401 71.8685 673.822 71.8011C670.302 71.7064 667.539 69.3949 666.563 68.4608C666.988 66.7865 666.406 65.0804 666.143 64.3167C665.144 61.4417 664.656 59.3788 664.943 56.7147ZM693.78 103.467H654.015C654.007 100.299 653.985 90.2821 654.018 83.6278C654.053 76.3084 663.955 71.4852 664.093 71.4183C664.726 71.0829 665.205 70.6947 665.582 70.2791C666.989 71.535 669.942 73.6898 673.748 73.7997C673.849 73.8026 673.95 73.804 674.051 73.804C676.91 73.804 679.654 72.62 682.227 70.3011C682.607 70.7147 683.088 71.1019 683.722 71.4378C683.822 71.4852 693.723 76.2914 693.759 83.6278C693.792 90.2811 693.784 100.296 693.78 103.467Z" fill="black"/>
<g id="262-Pen_5">
<path id="Vector_26" d="M684.258 87.4526L680.044 80.1537C679.95 79.9923 679.797 79.8746 679.617 79.8264C679.437 79.7782 679.245 79.8034 679.084 79.8966L669.96 85.1641L670.663 86.3806L679.178 81.4642L679.881 82.6807L665.891 90.7576C665.772 90.8274 665.677 90.9305 665.616 91.0542L663.371 95.5942C663.321 95.6976 663.296 95.8119 663.3 95.9271C663.304 96.0422 663.336 96.1546 663.394 96.2543C663.451 96.3541 663.533 96.4381 663.63 96.4991C663.728 96.56 663.839 96.596 663.954 96.6039L669.008 96.9298C669.146 96.9392 669.283 96.908 669.403 96.8401L684.001 88.412C684.162 88.3189 684.28 88.1655 684.328 87.9855C684.376 87.8056 684.351 87.6139 684.258 87.4526V87.4526ZM682.69 87.5467L677.824 90.356L675.717 86.7066L680.583 83.8972L682.69 87.5467ZM667.202 91.623L674.5 87.4089L676.607 91.0584L669.309 95.2724L667.202 91.623ZM665.092 95.2738L666.291 92.8545L667.787 95.4456L665.092 95.2738Z" fill="white"/>
</g>
<path id="Vector_27" d="M672.888 62.4672L676.888 62.4818C676.89 62.4818 676.891 62.4818 676.892 62.4818C677.442 62.4818 677.89 62.0365 677.892 61.4857C677.894 60.933 677.447 60.4838 676.896 60.4818L673.892 60.4706V55.4672C673.892 54.9149 673.444 54.4672 672.892 54.4672C672.339 54.4672 671.892 54.9149 671.892 55.4672V61.4672C671.892 62.0179 672.337 62.4652 672.888 62.4672Z" fill="black"/>
</g>
</g>
</g>
<g id="Group 1134">
<path id="Rectangle 1542_6" d="M216.5 144.967L221.5 138.967L229 134.467L237 137.967L245.5 134.467L253 139.467L257 144.967L258 169.467H216L216.5 144.967Z" fill="#BB0000"/>
<g id="Group_17">
<g id="Group_18">
<path id="Vector_28" d="M258.759 148.618C258.716 140.04 248.037 134.849 247.621 134.652C246.245 133.922 245.533 132.848 246.523 129.973C247.412 127.413 248.181 124.838 247.822 121.503C247.262 116.252 242.386 112 236.938 112C236.922 112 236.905 112 236.888 112C231.457 111.956 226.516 116.237 225.954 121.502C225.595 124.84 226.364 127.414 227.253 129.971C228.243 132.847 227.53 133.922 226.194 134.632C225.739 134.849 215.06 140.04 215.018 148.618C214.978 156.579 215.018 169.342 215.018 169.47C215.02 170.021 215.467 170.467 216.018 170.467H257.78C258.331 170.467 258.779 170.02 258.78 169.469C258.78 169.341 258.799 156.578 258.759 148.618ZM227.943 121.715C228.39 117.524 232.458 114 236.839 114C236.855 114 236.869 114.001 236.884 114H236.892C236.907 113.998 236.921 114.001 236.937 114C241.317 114 245.386 117.524 245.833 121.716C246.119 124.378 245.632 126.441 244.633 129.319C244.368 130.086 243.781 131.808 244.23 133.496C241.864 135.748 239.401 136.868 236.822 136.801C233.302 136.706 230.539 134.395 229.563 133.461C229.988 131.786 229.406 130.08 229.143 129.317C228.144 126.442 227.656 124.379 227.943 121.715ZM256.78 168.467H217.015C217.007 165.299 216.985 155.282 217.018 148.628C217.053 141.308 226.955 136.485 227.093 136.418C227.726 136.083 228.205 135.695 228.582 135.279C229.989 136.535 232.942 138.69 236.748 138.8C236.849 138.803 236.95 138.804 237.051 138.804C239.91 138.804 242.654 137.62 245.227 135.301C245.607 135.715 246.088 136.102 246.722 136.438C246.822 136.485 256.723 141.291 256.759 148.628C256.792 155.281 256.784 165.296 256.78 168.467Z" fill="black"/>
<g id="262-Pen_6">
<path id="Vector_29" d="M247.258 152.453L243.044 145.154C242.95 144.992 242.797 144.875 242.617 144.826C242.437 144.778 242.245 144.803 242.084 144.897L232.96 150.164L233.663 151.381L242.178 146.464L242.881 147.681L228.891 155.758C228.772 155.827 228.677 155.931 228.616 156.054L226.371 160.594C226.321 160.698 226.296 160.812 226.3 160.927C226.304 161.042 226.336 161.155 226.394 161.254C226.451 161.354 226.533 161.438 226.63 161.499C226.728 161.56 226.839 161.596 226.954 161.604L232.008 161.93C232.146 161.939 232.283 161.908 232.403 161.84L247.001 153.412C247.162 153.319 247.28 153.165 247.328 152.986C247.376 152.806 247.351 152.614 247.258 152.453V152.453ZM245.69 152.547L240.824 155.356L238.717 151.707L243.583 148.897L245.69 152.547ZM230.202 156.623L237.5 152.409L239.607 156.058L232.309 160.272L230.202 156.623ZM228.092 160.274L229.291 157.854L230.787 160.446L228.092 160.274Z" fill="white"/>
</g>
<path id="Vector_30" d="M235.888 127.467L239.888 127.482C239.89 127.482 239.891 127.482 239.892 127.482C240.442 127.482 240.89 127.036 240.892 126.486C240.894 125.933 240.447 125.484 239.896 125.482L236.892 125.471V120.467C236.892 119.915 236.444 119.467 235.892 119.467C235.339 119.467 234.892 119.915 234.892 120.467V126.467C234.892 127.018 235.337 127.465 235.888 127.467Z" fill="black"/>
</g>
</g>
</g>
<g id="Group 1143">
<path id="Rectangle 1542_7" d="M653.5 144.967L658.5 138.967L666 134.467L674 137.967L682.5 134.467L690 139.467L694 144.967L695 169.467H653L653.5 144.967Z" fill="#BB0000"/>
<g id="Group_19">
<g id="Group_20">
<path id="Vector_31" d="M695.759 148.618C695.716 140.04 685.037 134.849 684.621 134.652C683.245 133.922 682.533 132.848 683.523 129.973C684.412 127.413 685.181 124.838 684.822 121.503C684.262 116.252 679.386 112 673.938 112C673.922 112 673.905 112 673.888 112C668.457 111.956 663.516 116.237 662.954 121.502C662.595 124.84 663.364 127.414 664.253 129.971C665.243 132.847 664.53 133.922 663.194 134.632C662.739 134.849 652.06 140.04 652.018 148.618C651.978 156.579 652.018 169.342 652.018 169.47C652.02 170.021 652.467 170.467 653.018 170.467H694.78C695.331 170.467 695.779 170.02 695.78 169.469C695.78 169.341 695.799 156.578 695.759 148.618ZM664.943 121.715C665.39 117.524 669.458 114 673.839 114C673.855 114 673.869 114.001 673.884 114H673.892C673.907 113.998 673.921 114.001 673.937 114C678.317 114 682.386 117.524 682.833 121.716C683.119 124.378 682.632 126.441 681.633 129.319C681.368 130.086 680.781 131.808 681.23 133.496C678.864 135.748 676.401 136.868 673.822 136.801C670.302 136.706 667.539 134.395 666.563 133.461C666.988 131.786 666.406 130.08 666.143 129.317C665.144 126.442 664.656 124.379 664.943 121.715ZM693.78 168.467H654.015C654.007 165.299 653.985 155.282 654.018 148.628C654.053 141.308 663.955 136.485 664.093 136.418C664.726 136.083 665.205 135.695 665.582 135.279C666.989 136.535 669.942 138.69 673.748 138.8C673.849 138.803 673.95 138.804 674.051 138.804C676.91 138.804 679.654 137.62 682.227 135.301C682.607 135.715 683.088 136.102 683.722 136.438C683.822 136.485 693.723 141.291 693.759 148.628C693.792 155.281 693.784 165.296 693.78 168.467Z" fill="black"/>
<g id="262-Pen_7">
<path id="Vector_32" d="M684.258 152.453L680.044 145.154C679.95 144.992 679.797 144.875 679.617 144.826C679.437 144.778 679.245 144.803 679.084 144.897L669.96 150.164L670.663 151.381L679.178 146.464L679.881 147.681L665.891 155.758C665.772 155.827 665.677 155.931 665.616 156.054L663.371 160.594C663.321 160.698 663.296 160.812 663.3 160.927C663.304 161.042 663.336 161.155 663.394 161.254C663.451 161.354 663.533 161.438 663.63 161.499C663.728 161.56 663.839 161.596 663.954 161.604L669.008 161.93C669.146 161.939 669.283 161.908 669.403 161.84L684.001 153.412C684.162 153.319 684.28 153.165 684.328 152.986C684.376 152.806 684.351 152.614 684.258 152.453V152.453ZM682.69 152.547L677.824 155.356L675.717 151.707L680.583 148.897L682.69 152.547ZM667.202 156.623L674.5 152.409L676.607 156.058L669.309 160.272L667.202 156.623ZM665.092 160.274L666.291 157.854L667.787 160.446L665.092 160.274Z" fill="white"/>
</g>
<path id="Vector_33" d="M672.888 127.467L676.888 127.482C676.89 127.482 676.891 127.482 676.892 127.482C677.442 127.482 677.89 127.036 677.892 126.486C677.894 125.933 677.447 125.484 676.896 125.482L673.892 125.471V120.467C673.892 119.915 673.444 119.467 672.892 119.467C672.339 119.467 671.892 119.915 671.892 120.467V126.467C671.892 127.018 672.337 127.465 672.888 127.467Z" fill="black"/>
</g>
</g>
</g>
<g id="Group 1137">
<path id="Rectangle 1542_8" d="M216.5 209.967L221.5 203.967L229 199.467L237 202.967L245.5 199.467L253 204.467L257 209.967L258 234.467H216L216.5 209.967Z" fill="#BB0000"/>
<g id="Group_21">
<g id="Group_22">
<path id="Vector_34" d="M258.759 213.618C258.716 205.04 248.037 199.849 247.621 199.652C246.245 198.922 245.533 197.848 246.523 194.973C247.412 192.413 248.181 189.838 247.822 186.503C247.262 181.252 242.386 177 236.938 177C236.922 177 236.905 177 236.888 177C231.457 176.956 226.516 181.237 225.954 186.502C225.595 189.84 226.364 192.414 227.253 194.971C228.243 197.847 227.53 198.922 226.194 199.632C225.739 199.849 215.06 205.04 215.018 213.618C214.978 221.579 215.018 234.342 215.018 234.47C215.02 235.021 215.467 235.467 216.018 235.467H257.78C258.331 235.467 258.779 235.02 258.78 234.469C258.78 234.341 258.799 221.578 258.759 213.618ZM227.943 186.715C228.39 182.524 232.458 179 236.839 179C236.855 179 236.869 179.001 236.884 179H236.892C236.907 178.998 236.921 179.001 236.937 179C241.317 179 245.386 182.524 245.833 186.716C246.119 189.378 245.632 191.441 244.633 194.319C244.368 195.086 243.781 196.808 244.23 198.496C241.864 200.748 239.401 201.868 236.822 201.801C233.302 201.706 230.539 199.395 229.563 198.461C229.988 196.786 229.406 195.08 229.143 194.317C228.144 191.442 227.656 189.379 227.943 186.715ZM256.78 233.467H217.015C217.007 230.299 216.985 220.282 217.018 213.628C217.053 206.308 226.955 201.485 227.093 201.418C227.726 201.083 228.205 200.695 228.582 200.279C229.989 201.535 232.942 203.69 236.748 203.8C236.849 203.803 236.95 203.804 237.051 203.804C239.91 203.804 242.654 202.62 245.227 200.301C245.607 200.715 246.088 201.102 246.722 201.438C246.822 201.485 256.723 206.291 256.759 213.628C256.792 220.281 256.784 230.296 256.78 233.467Z" fill="black"/>
<g id="262-Pen_8">
<path id="Vector_35" d="M247.258 217.453L243.044 210.154C242.95 209.992 242.797 209.875 242.617 209.826C242.437 209.778 242.245 209.803 242.084 209.897L232.96 215.164L233.663 216.381L242.178 211.464L242.881 212.681L228.891 220.758C228.772 220.827 228.677 220.931 228.616 221.054L226.371 225.594C226.321 225.698 226.296 225.812 226.3 225.927C226.304 226.042 226.336 226.155 226.394 226.254C226.451 226.354 226.533 226.438 226.63 226.499C226.728 226.56 226.839 226.596 226.954 226.604L232.008 226.93C232.146 226.939 232.283 226.908 232.403 226.84L247.001 218.412C247.162 218.319 247.28 218.165 247.328 217.986C247.376 217.806 247.351 217.614 247.258 217.453V217.453ZM245.69 217.547L240.824 220.356L238.717 216.707L243.583 213.897L245.69 217.547ZM230.202 221.623L237.5 217.409L239.607 221.058L232.309 225.272L230.202 221.623ZM228.092 225.274L229.291 222.854L230.787 225.446L228.092 225.274Z" fill="white"/>
</g>
<path id="Vector_36" d="M235.888 192.467L239.888 192.482C239.89 192.482 239.891 192.482 239.892 192.482C240.442 192.482 240.89 192.036 240.892 191.486C240.894 190.933 240.447 190.484 239.896 190.482L236.892 190.471V185.467C236.892 184.915 236.444 184.467 235.892 184.467C235.339 184.467 234.892 184.915 234.892 185.467V191.467C234.892 192.018 235.337 192.465 235.888 192.467Z" fill="black"/>
</g>
</g>
</g>
<g id="Group 1144">
<path id="Rectangle 1542_9" d="M653.5 209.967L658.5 203.967L666 199.467L674 202.967L682.5 199.467L690 204.467L694 209.967L695 234.467H653L653.5 209.967Z" fill="#BB0000"/>
<g id="Group_23">
<g id="Group_24">
<path id="Vector_37" d="M695.759 213.618C695.716 205.04 685.037 199.849 684.621 199.652C683.245 198.922 682.533 197.848 683.523 194.973C684.412 192.413 685.181 189.838 684.822 186.503C684.262 181.252 679.386 177 673.938 177C673.922 177 673.905 177 673.888 177C668.457 176.956 663.516 181.237 662.954 186.502C662.595 189.84 663.364 192.414 664.253 194.971C665.243 197.847 664.53 198.922 663.194 199.632C662.739 199.849 652.06 205.04 652.018 213.618C651.978 221.579 652.018 234.342 652.018 234.47C652.02 235.021 652.467 235.467 653.018 235.467H694.78C695.331 235.467 695.779 235.02 695.78 234.469C695.78 234.341 695.799 221.578 695.759 213.618ZM664.943 186.715C665.39 182.524 669.458 179 673.839 179C673.855 179 673.869 179.001 673.884 179H673.892C673.907 178.998 673.921 179.001 673.937 179C678.317 179 682.386 182.524 682.833 186.716C683.119 189.378 682.632 191.441 681.633 194.319C681.368 195.086 680.781 196.808 681.23 198.496C678.864 200.748 676.401 201.868 673.822 201.801C670.302 201.706 667.539 199.395 666.563 198.461C666.988 196.786 666.406 195.08 666.143 194.317C665.144 191.442 664.656 189.379 664.943 186.715ZM693.78 233.467H654.015C654.007 230.299 653.985 220.282 654.018 213.628C654.053 206.308 663.955 201.485 664.093 201.418C664.726 201.083 665.205 200.695 665.582 200.279C666.989 201.535 669.942 203.69 673.748 203.8C673.849 203.803 673.95 203.804 674.051 203.804C676.91 203.804 679.654 202.62 682.227 200.301C682.607 200.715 683.088 201.102 683.722 201.438C683.822 201.485 693.723 206.291 693.759 213.628C693.792 220.281 693.784 230.296 693.78 233.467Z" fill="black"/>
<g id="262-Pen_9">
<path id="Vector_38" d="M684.258 217.453L680.044 210.154C679.95 209.992 679.797 209.875 679.617 209.826C679.437 209.778 679.245 209.803 679.084 209.897L669.96 215.164L670.663 216.381L679.178 211.464L679.881 212.681L665.891 220.758C665.772 220.827 665.677 220.931 665.616 221.054L663.371 225.594C663.321 225.698 663.296 225.812 663.3 225.927C663.304 226.042 663.336 226.155 663.394 226.254C663.451 226.354 663.533 226.438 663.63 226.499C663.728 226.56 663.839 226.596 663.954 226.604L669.008 226.93C669.146 226.939 669.283 226.908 669.403 226.84L684.001 218.412C684.162 218.319 684.28 218.165 684.328 217.986C684.376 217.806 684.351 217.614 684.258 217.453V217.453ZM682.69 217.547L677.824 220.356L675.717 216.707L680.583 213.897L682.69 217.547ZM667.202 221.623L674.5 217.409L676.607 221.058L669.309 225.272L667.202 221.623ZM665.092 225.274L666.291 222.854L667.787 225.446L665.092 225.274Z" fill="white"/>
</g>
<path id="Vector_39" d="M672.888 192.467L676.888 192.482C676.89 192.482 676.891 192.482 676.892 192.482C677.442 192.482 677.89 192.036 677.892 191.486C677.894 190.933 677.447 190.484 676.896 190.482L673.892 190.471V185.467C673.892 184.915 673.444 184.467 672.892 184.467C672.339 184.467 671.892 184.915 671.892 185.467V191.467C671.892 192.018 672.337 192.465 672.888 192.467Z" fill="black"/>
</g>
</g>
</g>
<g id="Rectangle 1544" filter="url(#filter0_d)">
<rect x="164" y="62" width="40" height="157" rx="4" fill="#C4C4C4"/>
</g>
<g id="Rectangle 1545" filter="url(#filter1_d)">
<rect x="710" y="62" width="40" height="157" rx="4" fill="#C4C4C4"/>
</g>
<g id="Frame 1145">
<g clip-path="url(#clip2)">
<rect x="444" y="1" width="108" height="135" rx="3" fill="white"/>
<rect id="Rectangle 1565" x="444.5" y="1.5" width="108" height="135" fill="white" stroke="black"/>
<rect id="Rectangle 1548_3" x="450" y="53" width="20" height="30" rx="2" fill="#E5E5E5"/>
<path id="Rectangle 1557_3" d="M450 55C450 53.8954 450.895 53 452 53H468C469.105 53 470 53.8954 470 55V58H450V55Z" fill="#CCCCCC"/>
<rect id="Rectangle 1552_3" x="450" y="111" width="20" height="30" rx="2" fill="#E5E5E5"/>
<path id="Rectangle 1561_3" d="M450 113C450 111.895 450.895 111 452 111H468C469.105 111 470 111.895 470 113V116H450V113Z" fill="#CCCCCC"/>
<rect id="Rectangle 1549" x="475" y="53" width="20" height="30" rx="2" fill="#E5E5E5"/>
<path id="Rectangle 1558_3" d="M475 55C475 53.8954 475.895 53 477 53H493C494.105 53 495 53.8954 495 55V58H475V55Z" fill="#CCCCCC"/>
<rect id="Rectangle 1553" x="475" y="111" width="20" height="30" rx="2" fill="#E5E5E5"/>
<path id="Rectangle 1562_3" d="M475 113C475 111.895 475.895 111 477 111H493C494.105 111 495 111.895 495 113V116H475V113Z" fill="#CCCCCC"/>
<rect id="Rectangle 1550" x="500" y="53" width="20" height="30" rx="2" fill="#E5E5E5"/>
<path id="Rectangle 1559_3" d="M500 55C500 53.8954 500.895 53 502 53H518C519.105 53 520 53.8954 520 55V58H500V55Z" fill="#CCCCCC"/>
<rect id="Rectangle 1554" x="500" y="111" width="20" height="30" rx="2" fill="#E5E5E5"/>
<path id="Rectangle 1563_3" d="M500 113C500 111.895 500.895 111 502 111H518C519.105 111 520 111.895 520 113V116H500V113Z" fill="#CCCCCC"/>
<rect id="Rectangle 1551" x="525" y="53" width="20" height="30" rx="2" fill="#E5E5E5"/>
<path id="Rectangle 1560_3" d="M525 55C525 53.8954 525.895 53 527 53H543C544.105 53 545 53.8954 545 55V58H525V55Z" fill="#CCCCCC"/>
<rect id="Rectangle 1555" x="525" y="111" width="20" height="30" rx="2" fill="#E5E5E5"/>
<path id="Rectangle 1564" d="M525 113C525 111.895 525.895 111 527 111H543C544.105 111 545 111.895 545 113V116H525V113Z" fill="#CCCCCC"/>
<path id="Flow 1" d="M450.552 41.288V47H451.808V44.64H454.2V43.664H451.808V42.344H454.568V41.288H450.552ZM455.206 41.288V47H456.342V41.288H455.206ZM458.245 44.936C458.245 44.7707 458.261 44.608 458.293 44.448C458.325 44.288 458.378 44.1467 458.453 44.024C458.533 43.9013 458.637 43.8027 458.765 43.728C458.893 43.648 459.053 43.608 459.245 43.608C459.437 43.608 459.597 43.648 459.725 43.728C459.858 43.8027 459.962 43.9013 460.037 44.024C460.117 44.1467 460.173 44.288 460.205 44.448C460.237 44.608 460.253 44.7707 460.253 44.936C460.253 45.1013 460.237 45.264 460.205 45.424C460.173 45.5787 460.117 45.72 460.037 45.848C459.962 45.9707 459.858 46.0693 459.725 46.144C459.597 46.2187 459.437 46.256 459.245 46.256C459.053 46.256 458.893 46.2187 458.765 46.144C458.637 46.0693 458.533 45.9707 458.453 45.848C458.378 45.72 458.325 45.5787 458.293 45.424C458.261 45.264 458.245 45.1013 458.245 44.936ZM457.109 44.936C457.109 45.2667 457.159 45.5653 457.261 45.832C457.362 46.0987 457.506 46.328 457.693 46.52C457.879 46.7067 458.103 46.8507 458.365 46.952C458.626 47.0533 458.919 47.104 459.245 47.104C459.57 47.104 459.863 47.0533 460.125 46.952C460.391 46.8507 460.618 46.7067 460.805 46.52C460.991 46.328 461.135 46.0987 461.237 45.832C461.338 45.5653 461.389 45.2667 461.389 44.936C461.389 44.6053 461.338 44.3067 461.237 44.04C461.135 43.768 460.991 43.5387 460.805 43.352C460.618 43.16 460.391 43.0133 460.125 42.912C459.863 42.8053 459.57 42.752 459.245 42.752C458.919 42.752 458.626 42.8053 458.365 42.912C458.103 43.0133 457.879 43.16 457.693 43.352C457.506 43.5387 457.362 43.768 457.261 44.04C457.159 44.3067 457.109 44.6053 457.109 44.936ZM466.855 47L468.159 42.864H466.991L466.231 45.664H466.215L465.511 42.864H464.407L463.719 45.672H463.703L462.943 42.864H461.743L463.055 47H464.231L464.935 44.224H464.951L465.687 47H466.855ZM473.574 47V41.4H472.67C472.638 41.6133 472.571 41.792 472.47 41.936C472.368 42.08 472.243 42.1973 472.094 42.288C471.95 42.3733 471.784 42.4347 471.598 42.472C471.416 42.504 471.227 42.5173 471.03 42.512V43.368H472.438V47H473.574Z" fill="black"/>
<path id="Flow 2" d="M450.552 99.288V105H451.808V102.64H454.2V101.664H451.808V100.344H454.568V99.288H450.552ZM455.206 99.288V105H456.342V99.288H455.206ZM458.245 102.936C458.245 102.771 458.261 102.608 458.293 102.448C458.325 102.288 458.378 102.147 458.453 102.024C458.533 101.901 458.637 101.803 458.765 101.728C458.893 101.648 459.053 101.608 459.245 101.608C459.437 101.608 459.597 101.648 459.725 101.728C459.858 101.803 459.962 101.901 460.037 102.024C460.117 102.147 460.173 102.288 460.205 102.448C460.237 102.608 460.253 102.771 460.253 102.936C460.253 103.101 460.237 103.264 460.205 103.424C460.173 103.579 460.117 103.72 460.037 103.848C459.962 103.971 459.858 104.069 459.725 104.144C459.597 104.219 459.437 104.256 459.245 104.256C459.053 104.256 458.893 104.219 458.765 104.144C458.637 104.069 458.533 103.971 458.453 103.848C458.378 103.72 458.325 103.579 458.293 103.424C458.261 103.264 458.245 103.101 458.245 102.936ZM457.109 102.936C457.109 103.267 457.159 103.565 457.261 103.832C457.362 104.099 457.506 104.328 457.693 104.52C457.879 104.707 458.103 104.851 458.365 104.952C458.626 105.053 458.919 105.104 459.245 105.104C459.57 105.104 459.863 105.053 460.125 104.952C460.391 104.851 460.618 104.707 460.805 104.52C460.991 104.328 461.135 104.099 461.237 103.832C461.338 103.565 461.389 103.267 461.389 102.936C461.389 102.605 461.338 102.307 461.237 102.04C461.135 101.768 460.991 101.539 460.805 101.352C460.618 101.16 460.391 101.013 460.125 100.912C459.863 100.805 459.57 100.752 459.245 100.752C458.919 100.752 458.626 100.805 458.365 100.912C458.103 101.013 457.879 101.16 457.693 101.352C457.506 101.539 457.362 101.768 457.261 102.04C457.159 102.307 457.109 102.605 457.109 102.936ZM466.855 105L468.159 100.864H466.991L466.231 103.664H466.215L465.511 100.864H464.407L463.719 103.672H463.703L462.943 100.864H461.743L463.055 105H464.231L464.935 102.224H464.951L465.687 105H466.855ZM470.734 101.552H471.822C471.822 101.403 471.835 101.253 471.862 101.104C471.894 100.949 471.944 100.811 472.014 100.688C472.083 100.56 472.174 100.459 472.286 100.384C472.403 100.304 472.544 100.264 472.71 100.264C472.955 100.264 473.155 100.341 473.31 100.496C473.47 100.645 473.55 100.856 473.55 101.128C473.55 101.299 473.51 101.451 473.43 101.584C473.355 101.717 473.259 101.837 473.142 101.944C473.03 102.051 472.904 102.149 472.766 102.24C472.627 102.325 472.496 102.411 472.374 102.496C472.134 102.661 471.904 102.824 471.686 102.984C471.472 103.144 471.286 103.32 471.126 103.512C470.966 103.699 470.838 103.912 470.742 104.152C470.651 104.392 470.606 104.675 470.606 105H474.718V104.024H472.07C472.208 103.832 472.368 103.664 472.549 103.52C472.731 103.376 472.918 103.243 473.11 103.12C473.302 102.992 473.491 102.864 473.678 102.736C473.87 102.608 474.04 102.467 474.19 102.312C474.339 102.152 474.459 101.971 474.549 101.768C474.64 101.565 474.686 101.323 474.686 101.04C474.686 100.768 474.632 100.523 474.526 100.304C474.424 100.085 474.286 99.9013 474.11 99.752C473.934 99.6027 473.728 99.488 473.494 99.408C473.264 99.328 473.022 99.288 472.766 99.288C472.43 99.288 472.131 99.3467 471.87 99.464C471.614 99.576 471.4 99.736 471.23 99.944C471.059 100.147 470.931 100.387 470.846 100.664C470.76 100.936 470.723 101.232 470.734 101.552Z" fill="black"/>
<rect id="Rectangle 1556_3" x="445" y="2" width="108" height="29" fill="#E5E5E5"/>
<path id="InVision" d="M450.69 12.86V20H452.26V12.86H450.69ZM453.489 14.83V20H454.909V17.29C454.909 16.7633 454.996 16.3867 455.169 16.16C455.343 15.9267 455.623 15.81 456.009 15.81C456.349 15.81 456.586 15.9167 456.719 16.13C456.853 16.3367 456.919 16.6533 456.919 17.08V20H458.339V16.82C458.339 16.5 458.309 16.21 458.249 15.95C458.196 15.6833 458.099 15.46 457.959 15.28C457.819 15.0933 457.626 14.95 457.379 14.85C457.139 14.7433 456.829 14.69 456.449 14.69C456.149 14.69 455.856 14.76 455.569 14.9C455.283 15.0333 455.049 15.25 454.869 15.55H454.839V14.83H453.489ZM462.887 20L465.257 12.86H463.637L462.027 17.88H462.007L460.417 12.86H458.807L461.117 20H462.887ZM467 14.03V12.86H465.58V14.03H467ZM465.58 14.83V20H467V14.83H465.58ZM469.218 18.32H467.868C467.881 18.6667 467.958 18.9567 468.098 19.19C468.245 19.4167 468.428 19.6 468.648 19.74C468.875 19.88 469.131 19.98 469.418 20.04C469.705 20.1 469.998 20.13 470.298 20.13C470.591 20.13 470.878 20.1 471.158 20.04C471.445 19.9867 471.698 19.89 471.918 19.75C472.138 19.61 472.315 19.4267 472.448 19.2C472.588 18.9667 472.658 18.68 472.658 18.34C472.658 18.1 472.611 17.9 472.518 17.74C472.425 17.5733 472.301 17.4367 472.148 17.33C471.995 17.2167 471.818 17.1267 471.618 17.06C471.425 16.9933 471.225 16.9367 471.018 16.89C470.818 16.8433 470.621 16.8 470.428 16.76C470.235 16.72 470.061 16.6767 469.908 16.63C469.761 16.5767 469.641 16.51 469.548 16.43C469.455 16.35 469.408 16.2467 469.408 16.12C469.408 16.0133 469.435 15.93 469.488 15.87C469.541 15.8033 469.605 15.7533 469.678 15.72C469.758 15.6867 469.845 15.6667 469.938 15.66C470.031 15.6467 470.118 15.64 470.198 15.64C470.451 15.64 470.671 15.69 470.858 15.79C471.045 15.8833 471.148 16.0667 471.168 16.34H472.518C472.491 16.02 472.408 15.7567 472.268 15.55C472.135 15.3367 471.965 15.1667 471.758 15.04C471.551 14.9133 471.315 14.8233 471.048 14.77C470.788 14.7167 470.518 14.69 470.238 14.69C469.958 14.69 469.685 14.7167 469.418 14.77C469.151 14.8167 468.911 14.9033 468.698 15.03C468.485 15.15 468.311 15.3167 468.178 15.53C468.051 15.7433 467.988 16.0167 467.988 16.35C467.988 16.5767 468.035 16.77 468.128 16.93C468.221 17.0833 468.345 17.2133 468.498 17.32C468.651 17.42 468.825 17.5033 469.018 17.57C469.218 17.63 469.421 17.6833 469.628 17.73C470.135 17.8367 470.528 17.9433 470.808 18.05C471.095 18.1567 471.238 18.3167 471.238 18.53C471.238 18.6567 471.208 18.7633 471.148 18.85C471.088 18.93 471.011 18.9967 470.918 19.05C470.831 19.0967 470.731 19.1333 470.618 19.16C470.511 19.18 470.408 19.19 470.308 19.19C470.168 19.19 470.031 19.1733 469.898 19.14C469.771 19.1067 469.658 19.0567 469.558 18.99C469.458 18.9167 469.375 18.8267 469.308 18.72C469.248 18.6067 469.218 18.4733 469.218 18.32ZM474.949 14.03V12.86H473.529V14.03H474.949ZM473.529 14.83V20H474.949V14.83H473.529ZM477.327 17.42C477.327 17.2133 477.347 17.01 477.387 16.81C477.427 16.61 477.494 16.4333 477.587 16.28C477.687 16.1267 477.817 16.0033 477.977 15.91C478.137 15.81 478.337 15.76 478.577 15.76C478.817 15.76 479.017 15.81 479.177 15.91C479.344 16.0033 479.474 16.1267 479.567 16.28C479.667 16.4333 479.737 16.61 479.777 16.81C479.817 17.01 479.837 17.2133 479.837 17.42C479.837 17.6267 479.817 17.83 479.777 18.03C479.737 18.2233 479.667 18.4 479.567 18.56C479.474 18.7133 479.344 18.8367 479.177 18.93C479.017 19.0233 478.817 19.07 478.577 19.07C478.337 19.07 478.137 19.0233 477.977 18.93C477.817 18.8367 477.687 18.7133 477.587 18.56C477.494 18.4 477.427 18.2233 477.387 18.03C477.347 17.83 477.327 17.6267 477.327 17.42ZM475.907 17.42C475.907 17.8333 475.971 18.2067 476.097 18.54C476.224 18.8733 476.404 19.16 476.637 19.4C476.871 19.6333 477.151 19.8133 477.477 19.94C477.804 20.0667 478.171 20.13 478.577 20.13C478.984 20.13 479.351 20.0667 479.677 19.94C480.011 19.8133 480.294 19.6333 480.527 19.4C480.761 19.16 480.941 18.8733 481.067 18.54C481.194 18.2067 481.257 17.8333 481.257 17.42C481.257 17.0067 481.194 16.6333 481.067 16.3C480.941 15.96 480.761 15.6733 480.527 15.44C480.294 15.2 480.011 15.0167 479.677 14.89C479.351 14.7567 478.984 14.69 478.577 14.69C478.171 14.69 477.804 14.7567 477.477 14.89C477.151 15.0167 476.871 15.2 476.637 15.44C476.404 15.6733 476.224 15.96 476.097 16.3C475.971 16.6333 475.907 17.0067 475.907 17.42ZM482.181 14.83V20H483.601V17.29C483.601 16.7633 483.687 16.3867 483.861 16.16C484.034 15.9267 484.314 15.81 484.701 15.81C485.041 15.81 485.277 15.9167 485.411 16.13C485.544 16.3367 485.611 16.6533 485.611 17.08V20H487.031V16.82C487.031 16.5 487.001 16.21 486.941 15.95C486.887 15.6833 486.791 15.46 486.651 15.28C486.511 15.0933 486.317 14.95 486.071 14.85C485.831 14.7433 485.521 14.69 485.141 14.69C484.841 14.69 484.547 14.76 484.261 14.9C483.974 15.0333 483.741 15.25 483.561 15.55H483.531V14.83H482.181Z" fill="black"/>
</g>
<rect x="444" y="1" width="108" height="135" rx="3" stroke="black" stroke-width="2"/>
</g>
<path id="Line 37" d="M316 140L306 134.226V145.774L316 140ZM284 141H307V139H284V141Z" fill="#323232"/>
<path id="Line 39" d="M630 140L620 134.226L620 145.774L630 140ZM598 141L621 141L621 139L598 139L598 141Z" fill="#323232"/>
</g>
<defs>
<filter id="filter0_d" x="164" y="62" width="40" height="161" filterUnits="userSpaceOnUse" color-interpolation-filters="sRGB">
<feFlood flood-opacity="0" result="BackgroundImageFix"/>
<feColorMatrix in="SourceAlpha" type="matrix" values="0 0 0 0 0 0 0 0 0 0 0 0 0 0 0 0 0 0 127 0"/>
<feOffset dy="4"/>
<feColorMatrix type="matrix" values="0 0 0 0 0 0 0 0 0 0 0 0 0 0 0 0 0 0 0.5 0"/>
<feBlend mode="normal" in2="BackgroundImageFix" result="effect1_dropShadow"/>
<feBlend mode="normal" in="SourceGraphic" in2="effect1_dropShadow" result="shape"/>
</filter>
<filter id="filter1_d" x="710" y="62" width="40" height="161" filterUnits="userSpaceOnUse" color-interpolation-filters="sRGB">
<feFlood flood-opacity="0" result="BackgroundImageFix"/>
<feColorMatrix in="SourceAlpha" type="matrix" values="0 0 0 0 0 0 0 0 0 0 0 0 0 0 0 0 0 0 127 0"/>
<feOffset dy="4"/>
<feColorMatrix type="matrix" values="0 0 0 0 0 0 0 0 0 0 0 0 0 0 0 0 0 0 0.5 0"/>
<feBlend mode="normal" in2="BackgroundImageFix" result="effect1_dropShadow"/>
<feBlend mode="normal" in="SourceGraphic" in2="effect1_dropShadow" result="shape"/>
</filter>
<clipPath id="clip0">
</clipPath>
<clipPath id="clip1">
</clipPath>
<clipPath id="clip2">
</clipPath>
</defs>
</svg>
