<svg width="431" height="258" viewBox="0 0 431 258" fill="none" xmlns="http://www.w3.org/2000/svg">
<g filter="url(#filter0_d)">
<rect x="31" y="27" width="93.1677" height="93.1677" rx="10" fill="#6C7E9F" fill-opacity="0.1" stroke="#6C7E9F"/>
<rect x="37.2109" y="66.7515" width="80.7453" height="12.4224" rx="4" fill="#6C7E9F" fill-opacity="0.1"/>
<rect x="37.2109" y="60.5403" width="80.7453" height="4.34783" rx="2" fill="#DCEDFF" stroke="#60AFFF"/>
<circle cx="47.7706" cy="53.087" r="2.48447" fill="#6C7E9F"/>
<line x1="52.7393" y1="52.5869" x2="57.7082" y2="52.5869" stroke="#6C7E9F"/>
<circle cx="62.6769" cy="53.087" r="2.48447" fill="white"/>
<line x1="67.6455" y1="52.5869" x2="72.6144" y2="52.5869" stroke="#6C7E9F"/>
<circle cx="77.5841" cy="53.087" r="2.48447" fill="white"/>
<line x1="82.5527" y1="52.5869" x2="87.5217" y2="52.5869" stroke="#6C7E9F"/>
<circle cx="92.4903" cy="53.087" r="2.48447" fill="white"/>
<line x1="97.46" y1="52.5869" x2="102.429" y2="52.5869" stroke="#6C7E9F"/>
<circle cx="107.398" cy="53.087" r="2.48447" fill="white"/>
<rect x="37.2109" y="81.6584" width="80.7453" height="12.4224" rx="4" fill="#6C7E9F" fill-opacity="0.1"/>
<rect x="37.2109" y="96.5652" width="80.7453" height="12.4224" rx="4" fill="#6C7E9F" fill-opacity="0.1"/>
<path d="M31 37C31 31.4772 35.4772 27 41 27H114.168C119.691 27 124.168 31.4772 124.168 37V45.6335H31V37Z" fill="#6C7E9F"/>
<rect x="184.416" y="81.0374" width="93.1677" height="93.1677" rx="10" fill="#6C7E9F" fill-opacity="0.1" stroke="#6C7E9F"/>
<rect x="190.627" y="114.578" width="80.7453" height="12.4224" rx="4" fill="#6C7E9F" fill-opacity="0.1"/>
<circle cx="201.187" cy="107.124" r="2.48447" fill="#6C7E9F"/>
<line x1="206.155" y1="106.624" x2="211.124" y2="106.624" stroke="#6C7E9F"/>
<circle cx="216.093" cy="107.124" r="2.48447" fill="white"/>
<line x1="221.062" y1="106.624" x2="226.031" y2="106.624" stroke="#6C7E9F"/>
<circle cx="231" cy="107.124" r="2.48447" fill="white"/>
<line x1="235.969" y1="106.624" x2="240.938" y2="106.624" stroke="#6C7E9F"/>
<circle cx="245.906" cy="107.124" r="2.48447" fill="white"/>
<line x1="250.876" y1="106.624" x2="255.845" y2="106.624" stroke="#6C7E9F"/>
<circle cx="260.814" cy="107.124" r="2.48447" fill="white"/>
<rect x="190.627" y="133.211" width="80.7453" height="12.4224" rx="4" fill="#6C7E9F" fill-opacity="0.1"/>
<rect x="190.627" y="151.845" width="80.7453" height="12.4224" rx="4" fill="#6C7E9F" fill-opacity="0.1"/>
<path d="M184.416 91.0374C184.416 85.5145 188.893 81.0374 194.416 81.0374H267.584C273.107 81.0374 277.584 85.5145 277.584 91.0374V99.6709H184.416V91.0374Z" fill="#6C7E9F"/>
<path opacity="0.55" fill-rule="evenodd" clip-rule="evenodd" d="M184.416 91.0374C184.416 85.5145 188.893 81.0374 194.416 81.0374H267.584C273.107 81.0374 277.584 85.5145 277.584 91.0374V164.205C277.584 169.728 273.107 174.205 267.584 174.205H194.416C188.893 174.205 184.416 169.728 184.416 164.205V91.0374Z" fill="#89919A"/>
<rect x="215.472" y="107.124" width="31.0559" height="37.2671" rx="4" fill="#F7F7F7" stroke="#6C7E9F"/>
<circle cx="220.441" cy="117.062" r="1.86335" fill="#6C7E9F"/>
<circle cx="220.441" cy="123.273" r="1.86335" fill="#6C7E9F"/>
<circle cx="220.441" cy="129.484" r="1.86335" fill="#6C7E9F"/>
<circle cx="220.441" cy="135.696" r="1.86335" fill="#6C7E9F"/>
<rect x="223.547" y="115.199" width="9.93789" height="1.24224" fill="#C4C4C4"/>
<rect x="223.547" y="117.683" width="14.9068" height="1.24224" fill="#C4C4C4"/>
<rect x="223.547" y="121.41" width="9.93789" height="1.24224" fill="#C4C4C4"/>
<rect x="223.547" y="123.895" width="14.9068" height="1.24224" fill="#C4C4C4"/>
<rect x="223.547" y="127.621" width="9.93789" height="1.24224" fill="#C4C4C4"/>
<rect x="223.547" y="130.105" width="14.9068" height="1.24224" fill="#C4C4C4"/>
<rect x="223.547" y="133.832" width="9.93789" height="1.24224" fill="#C4C4C4"/>
<rect x="223.547" y="136.317" width="14.9068" height="1.24224" fill="#C4C4C4"/>
<rect x="337.832" y="129.484" width="93.1677" height="93.1677" rx="10" fill="#6C7E9F" fill-opacity="0.1" stroke="#6C7E9F"/>
<path d="M337.832 148.118H364.54V222.652H347.832C342.309 222.652 337.832 218.175 337.832 212.652V148.118Z" fill="#6C7E9F" fill-opacity="0.1"/>
<rect x="341.559" y="151.224" width="19.2547" height="4.34783" rx="2.17391" fill="white" stroke="#6C7E9F"/>
<rect x="341.559" y="158.677" width="19.2547" height="4.34783" rx="2" fill="#F7F7F7" stroke="#6C7E9F"/>
<rect x="341.559" y="166.13" width="19.2547" height="4.34783" rx="2" fill="#F7F7F7" stroke="#6C7E9F"/>
<rect x="341.559" y="181.037" width="19.2547" height="4.34783" rx="2" fill="#F7F7F7" stroke="#6C7E9F"/>
<rect x="341.559" y="173.584" width="19.2547" height="4.34783" rx="2" fill="#F7F7F7" stroke="#6C7E9F"/>
<path d="M337.832 139.484C337.832 133.962 342.309 129.484 347.832 129.484H421C426.523 129.484 431 133.962 431 139.484V148.118H337.832V139.484Z" fill="#6C7E9F"/>
<rect x="371.994" y="151.845" width="52.795" height="6.21118" rx="2" fill="white"/>
<circle cx="376.342" cy="154.95" r="1.86335" fill="#6C7E9F"/>
<rect x="371.994" y="160.54" width="52.795" height="6.21118" rx="2" fill="white"/>
<circle cx="376.342" cy="163.646" r="1.86335" fill="#6C7E9F"/>
<rect x="371.994" y="169.236" width="52.795" height="6.21118" rx="2" fill="white"/>
<circle cx="376.342" cy="172.342" r="1.86335" fill="#6C7E9F"/>
<rect x="371.994" y="195.323" width="52.795" height="6.21118" rx="2" fill="white"/>
<circle cx="376.342" cy="198.429" r="1.86335" fill="#6C7E9F"/>
<rect x="371.994" y="177.932" width="52.795" height="6.21118" rx="2" fill="white"/>
<circle cx="376.342" cy="181.037" r="1.86335" fill="#6C7E9F"/>
<rect x="371.994" y="204.019" width="52.795" height="6.21118" rx="2" fill="white"/>
<circle cx="376.342" cy="207.124" r="1.86335" fill="#6C7E9F"/>
<rect x="371.994" y="212.714" width="52.795" height="6.21118" rx="2" fill="white"/>
<circle cx="376.342" cy="215.82" r="1.86335" fill="#6C7E9F"/>
<rect x="371.994" y="186.627" width="52.795" height="6.21118" rx="2" fill="white"/>
<circle cx="376.342" cy="189.733" r="1.86335" fill="#6C7E9F"/>
<path d="M161.204 103.424C162.032 103.424 162.704 102.752 162.704 101.924L162.704 88.4239C162.704 87.5955 162.032 86.9239 161.204 86.9239C160.375 86.9239 159.704 87.5955 159.704 88.4239V100.424H147.704C146.875 100.424 146.204 101.095 146.204 101.924C146.204 102.752 146.875 103.424 147.704 103.424L161.204 103.424ZM146.089 88.9303L160.143 102.985L162.264 100.863L148.21 86.809L146.089 88.9303Z" fill="#6C7E9F"/>
<path d="M314.62 154.356C315.448 154.356 316.12 153.684 316.12 152.856L316.12 139.356C316.12 138.527 315.448 137.856 314.62 137.856C313.791 137.856 313.12 138.527 313.12 139.356V151.356H301.12C300.291 151.356 299.62 152.027 299.62 152.856C299.62 153.684 300.291 154.356 301.12 154.356L314.62 154.356ZM299.505 139.862L313.559 153.916L315.68 151.795L301.626 137.741L299.505 139.862Z" fill="#6C7E9F"/>
</g>
<defs>
<filter id="filter0_d" x="0.5" y="0.5" width="461" height="256.652" filterUnits="userSpaceOnUse" color-interpolation-filters="sRGB">
<feFlood flood-opacity="0" result="BackgroundImageFix"/>
<feColorMatrix in="SourceAlpha" type="matrix" values="0 0 0 0 0 0 0 0 0 0 0 0 0 0 0 0 0 0 127 0"/>
<feOffset dy="4"/>
<feGaussianBlur stdDeviation="15"/>
<feColorMatrix type="matrix" values="0 0 0 0 0 0 0 0 0 0 0 0 0 0 0 0 0 0 0.25 0"/>
<feBlend mode="normal" in2="BackgroundImageFix" result="effect1_dropShadow"/>
<feBlend mode="normal" in="SourceGraphic" in2="effect1_dropShadow" result="shape"/>
</filter>
</defs>
</svg>
