<svg width="146" height="68" viewBox="0 0 146 68" fill="none" xmlns="http://www.w3.org/2000/svg">
<path d="M117.001 0H8.29774C4.94804 0 3.08201 3.87095 5.16845 6.49149L25.0867 31.5085C26.2476 32.9666 26.2476 35.0334 25.0867 36.4915L5.16845 61.5085C3.08201 64.129 4.94804 68 8.29773 68H117.001C118.22 68 119.372 67.4447 120.131 66.4915L144.016 36.4915C145.177 35.0334 145.177 32.9666 144.016 31.5085L120.131 1.5085C119.372 0.555319 118.22 0 117.001 0Z" fill="#FAFAFA"/>
<path d="M43.957 29H45.1875V19.1357H43.957V29ZM49.5898 29.1367C50.6084 29.1367 51.4014 28.624 51.8457 27.7969H51.873V29H53.0625V19.1357H51.873V23.0801H51.8457C51.4014 22.2598 50.5742 21.7539 49.5693 21.7539C47.7852 21.7539 46.5684 23.1963 46.5684 25.4385V25.4453C46.5684 27.6875 47.7715 29.1367 49.5898 29.1367ZM49.8223 28.084C48.5645 28.084 47.7852 27.0791 47.7852 25.4453V25.4385C47.7852 23.8184 48.5645 22.8066 49.8223 22.8066C51.0186 22.8066 51.8799 23.8525 51.8799 25.4385V25.4453C51.8799 27.0381 51.0254 28.084 49.8223 28.084ZM57.5947 29.1367C59.1465 29.1367 60.3086 28.207 60.541 27.0312L60.5547 26.9629H59.3857L59.3652 27.0244C59.1602 27.6328 58.5244 28.084 57.6221 28.084C56.3574 28.084 55.5508 27.2295 55.5234 25.7666H60.6436V25.3291C60.6436 23.1963 59.4609 21.7539 57.5195 21.7539C55.5781 21.7539 54.3203 23.2646 54.3203 25.4658V25.4727C54.3203 27.708 55.5508 29.1367 57.5947 29.1367ZM57.5127 22.8066C58.5518 22.8066 59.3174 23.4561 59.4336 24.8369H55.5439C55.6738 23.5107 56.4805 22.8066 57.5127 22.8066ZM61.8467 29H63.0361V24.8164C63.0361 23.6064 63.7676 22.8066 64.8887 22.8066C65.9824 22.8066 66.5225 23.4424 66.5225 24.5977V29H67.7119V24.3857C67.7119 22.7656 66.8096 21.7539 65.251 21.7539C64.1709 21.7539 63.4463 22.2393 63.0635 22.9023H63.0361V21.8906H61.8467V29ZM71.54 29.1367C71.7725 29.1367 72.0254 29.1094 72.1758 29.0889V28.125C72.0732 28.1318 71.9365 28.1523 71.793 28.1523C71.1572 28.1523 70.8223 27.9404 70.8223 27.1816V22.875H72.1758V21.8906H70.8223V19.9697H69.5918V21.8906H68.5527V22.875H69.5918V27.1885C69.5918 28.5488 70.2344 29.1367 71.54 29.1367ZM74.124 20.6875C74.541 20.6875 74.8691 20.3525 74.8691 19.9424C74.8691 19.5254 74.541 19.1973 74.124 19.1973C73.7139 19.1973 73.3789 19.5254 73.3789 19.9424C73.3789 20.3525 73.7139 20.6875 74.124 20.6875ZM73.5293 29H74.7188V21.8906H73.5293V29ZM76.7217 29H77.9111V22.875H79.3604V21.8906H77.8975V21.0225C77.8975 20.3184 78.2256 19.9834 78.8818 19.9834C79.0664 19.9834 79.251 19.9902 79.3945 20.0107V19.0469C79.2168 19.0195 78.9365 18.999 78.6699 18.999C77.3574 18.999 76.7217 19.6484 76.7217 21.0156V21.8906H75.7305V22.875H76.7217V29ZM81.2744 31.3926C82.5596 31.3926 83.1816 30.8047 83.6875 29.4443L86.4629 21.8906H85.2119L83.2432 27.8105H83.2158L81.2539 21.8906H79.9824L82.6211 29.0068L82.4775 29.4102C82.1904 30.2168 81.7734 30.4082 81.0215 30.4082C80.8779 30.4082 80.7412 30.3877 80.6387 30.3672V31.3379C80.7891 31.3652 81.042 31.3926 81.2744 31.3926ZM46.2949 49.1367C47.8809 49.1367 49.0566 48.2617 49.0566 47.0176V47.0107C49.0566 45.999 48.5371 45.4316 47.1016 45.083L45.9736 44.8096C45.1875 44.6182 44.8662 44.2832 44.8662 43.7979V43.791C44.8662 43.1621 45.3994 42.7451 46.2607 42.7451C47.1426 42.7451 47.6689 43.2031 47.7646 43.8936L47.7715 43.9414H48.9062L48.8994 43.8525C48.8105 42.6631 47.8193 41.7539 46.2607 41.7539C44.7227 41.7539 43.6494 42.6221 43.6494 43.8457V43.8525C43.6494 44.8779 44.2988 45.5 45.6387 45.8213L46.7666 46.0947C47.5732 46.293 47.8398 46.5801 47.8398 47.0928V47.0996C47.8398 47.7422 47.2656 48.1455 46.3018 48.1455C45.3311 48.1455 44.8047 47.7285 44.6611 47.0176L44.6475 46.9492H43.458L43.4648 47.0107C43.6084 48.2822 44.6201 49.1367 46.2949 49.1367ZM50.2939 51.3926H51.4834V47.8105H51.5107C51.9551 48.6309 52.7822 49.1367 53.7871 49.1367C55.5713 49.1367 56.7881 47.6943 56.7881 45.4521V45.4453C56.7881 43.2031 55.585 41.7539 53.7666 41.7539C52.748 41.7539 51.9551 42.2666 51.5107 43.0938H51.4834V41.8906H50.2939V51.3926ZM53.5342 48.084C52.3379 48.084 51.4766 47.0381 51.4766 45.4521V45.4453C51.4766 43.8525 52.3311 42.8066 53.5342 42.8066C54.792 42.8066 55.5713 43.8115 55.5713 45.4453V45.4521C55.5713 47.0723 54.792 48.084 53.5342 48.084ZM60.917 49.1367C62.4688 49.1367 63.6309 48.207 63.8633 47.0312L63.877 46.9629H62.708L62.6875 47.0244C62.4824 47.6328 61.8467 48.084 60.9443 48.084C59.6797 48.084 58.873 47.2295 58.8457 45.7666H63.9658V45.3291C63.9658 43.1963 62.7832 41.7539 60.8418 41.7539C58.9004 41.7539 57.6426 43.2646 57.6426 45.4658V45.4727C57.6426 47.708 58.873 49.1367 60.917 49.1367ZM60.835 42.8066C61.874 42.8066 62.6396 43.4561 62.7559 44.8369H58.8662C58.9961 43.5107 59.8027 42.8066 60.835 42.8066ZM65.1689 49H66.3584V44.8164C66.3584 43.6064 67.0898 42.8066 68.2109 42.8066C69.3047 42.8066 69.8447 43.4424 69.8447 44.5977V49H71.0342V44.3857C71.0342 42.7656 70.1318 41.7539 68.5732 41.7539C67.4932 41.7539 66.7686 42.2393 66.3857 42.9023H66.3584V41.8906H65.1689V49ZM75.2246 49.1367C76.2432 49.1367 77.0361 48.624 77.4805 47.7969H77.5078V49H78.6973V39.1357H77.5078V43.0801H77.4805C77.0361 42.2598 76.209 41.7539 75.2041 41.7539C73.4199 41.7539 72.2031 43.1963 72.2031 45.4385V45.4453C72.2031 47.6875 73.4062 49.1367 75.2246 49.1367ZM75.457 48.084C74.1992 48.084 73.4199 47.0791 73.4199 45.4453V45.4385C73.4199 43.8184 74.1992 42.8066 75.457 42.8066C76.6533 42.8066 77.5146 43.8525 77.5146 45.4385V45.4453C77.5146 47.0381 76.6602 48.084 75.457 48.084Z" fill="#555555"/>
</svg>
