<svg width="146" height="68" viewBox="0 0 146 68" fill="none" xmlns="http://www.w3.org/2000/svg">
<path d="M117.001 0H8.29774C4.94804 0 3.08201 3.87095 5.16845 6.49149L25.0867 31.5085C26.2476 32.9666 26.2476 35.0334 25.0867 36.4915L5.16845 61.5085C3.08201 64.129 4.94804 68 8.29773 68H117.001C118.22 68 119.372 67.4447 120.131 66.4915L144.016 36.4915C145.177 35.0334 145.177 32.9666 144.016 31.5085L120.131 1.5085C119.372 0.555319 118.22 0 117.001 0Z" fill="#727272"/>
<path d="M42.957 29H49.0684V27.8926H44.1875V24.502H48.8154V23.4082H44.1875V20.2432H49.0684V19.1357H42.957V29ZM49.957 29H51.2764L52.9922 26.293H53.0195L54.7217 29H56.041L53.6758 25.3975L56.0752 21.8906H54.749L53.0605 24.5566H53.0332L51.3242 21.8906H49.998L52.377 25.4453L49.957 29ZM59.8623 29.1367C61.4141 29.1367 62.5762 28.207 62.8086 27.0312L62.8223 26.9629H61.6533L61.6328 27.0244C61.4277 27.6328 60.792 28.084 59.8896 28.084C58.625 28.084 57.8184 27.2295 57.791 25.7666H62.9111V25.3291C62.9111 23.1963 61.7285 21.7539 59.7871 21.7539C57.8457 21.7539 56.5879 23.2646 56.5879 25.4658V25.4727C56.5879 27.708 57.8184 29.1367 59.8623 29.1367ZM59.7803 22.8066C60.8193 22.8066 61.585 23.4561 61.7012 24.8369H57.8115C57.9414 23.5107 58.748 22.8066 59.7803 22.8066ZM67.0605 29.1367C68.667 29.1367 69.8359 28.0908 70.0273 26.7373L70.0342 26.6895H68.8652L68.8516 26.7441C68.6533 27.5371 68.0312 28.084 67.0605 28.084C65.8301 28.084 64.9824 27.1064 64.9824 25.4521V25.4453C64.9824 23.832 65.8096 22.8066 67.0469 22.8066C68.0928 22.8066 68.667 23.4355 68.8447 24.1465L68.8584 24.2012H70.0205L70.0137 24.1465C69.8633 22.9297 68.8174 21.7539 67.0469 21.7539C65.0713 21.7539 63.7656 23.1895 63.7656 25.4316V25.4385C63.7656 27.7012 65.0439 29.1367 67.0605 29.1367ZM73.5547 29.1367C74.6348 29.1367 75.3594 28.6514 75.7422 27.9883H75.7695V29H76.959V21.8906H75.7695V26.0742C75.7695 27.2842 75.0381 28.084 73.917 28.084C72.8232 28.084 72.2832 27.4482 72.2832 26.293V21.8906H71.0938V26.5049C71.0938 28.125 71.9961 29.1367 73.5547 29.1367ZM80.8213 29.1367C81.0537 29.1367 81.3066 29.1094 81.457 29.0889V28.125C81.3545 28.1318 81.2178 28.1523 81.0742 28.1523C80.4385 28.1523 80.1035 27.9404 80.1035 27.1816V22.875H81.457V21.8906H80.1035V19.9697H78.873V21.8906H77.834V22.875H78.873V27.1885C78.873 28.5488 79.5156 29.1367 80.8213 29.1367ZM85.4561 29.1367C87.0078 29.1367 88.1699 28.207 88.4023 27.0312L88.416 26.9629H87.2471L87.2266 27.0244C87.0215 27.6328 86.3857 28.084 85.4834 28.084C84.2188 28.084 83.4121 27.2295 83.3848 25.7666H88.5049V25.3291C88.5049 23.1963 87.3223 21.7539 85.3809 21.7539C83.4395 21.7539 82.1816 23.2646 82.1816 25.4658V25.4727C82.1816 27.708 83.4121 29.1367 85.4561 29.1367ZM85.374 22.8066C86.4131 22.8066 87.1787 23.4561 87.2949 24.8369H83.4053C83.5352 23.5107 84.3418 22.8066 85.374 22.8066ZM45.2949 49.1367C46.8809 49.1367 48.0566 48.2617 48.0566 47.0176V47.0107C48.0566 45.999 47.5371 45.4316 46.1016 45.083L44.9736 44.8096C44.1875 44.6182 43.8662 44.2832 43.8662 43.7979V43.791C43.8662 43.1621 44.3994 42.7451 45.2607 42.7451C46.1426 42.7451 46.6689 43.2031 46.7646 43.8936L46.7715 43.9414H47.9062L47.8994 43.8525C47.8105 42.6631 46.8193 41.7539 45.2607 41.7539C43.7227 41.7539 42.6494 42.6221 42.6494 43.8457V43.8525C42.6494 44.8779 43.2988 45.5 44.6387 45.8213L45.7666 46.0947C46.5732 46.293 46.8398 46.5801 46.8398 47.0928V47.0996C46.8398 47.7422 46.2656 48.1455 45.3018 48.1455C44.3311 48.1455 43.8047 47.7285 43.6611 47.0176L43.6475 46.9492H42.458L42.4648 47.0107C42.6084 48.2822 43.6201 49.1367 45.2949 49.1367ZM51.6045 49.1367C51.8369 49.1367 52.0898 49.1094 52.2402 49.0889V48.125C52.1377 48.1318 52.001 48.1523 51.8574 48.1523C51.2217 48.1523 50.8867 47.9404 50.8867 47.1816V42.875H52.2402V41.8906H50.8867V39.9697H49.6562V41.8906H48.6172V42.875H49.6562V47.1885C49.6562 48.5488 50.2988 49.1367 51.6045 49.1367ZM53.5186 49H54.708V44.5566C54.708 43.5518 55.3096 42.8887 56.2324 42.8887C56.5195 42.8887 56.7725 42.9229 56.8682 42.957V41.8018C56.7725 41.7881 56.5947 41.7539 56.3896 41.7539C55.5557 41.7539 54.8994 42.2529 54.667 43.0391H54.6396V41.8906H53.5186V49ZM59.7803 49.1367C60.7305 49.1367 61.585 48.624 62.002 47.8447H62.0293V49H63.2188V44.085C63.2188 42.6631 62.166 41.7539 60.4844 41.7539C58.8096 41.7539 57.791 42.6973 57.6885 43.8662L57.6816 43.9414H58.8301L58.8438 43.8799C58.9805 43.2441 59.5547 42.8066 60.4707 42.8066C61.4619 42.8066 62.0293 43.333 62.0293 44.2012V44.7959L59.9922 44.9121C58.3584 45.0078 57.415 45.7666 57.415 46.9766V46.9902C57.415 48.2822 58.3652 49.1367 59.7803 49.1367ZM58.6318 46.9902V46.9766C58.6318 46.3135 59.1787 45.8896 60.1289 45.835L62.0293 45.7188V46.2998C62.0293 47.332 61.168 48.1045 60.0469 48.1045C59.1924 48.1045 58.6318 47.6738 58.6318 46.9902ZM67.04 49.1367C67.2725 49.1367 67.5254 49.1094 67.6758 49.0889V48.125C67.5732 48.1318 67.4365 48.1523 67.293 48.1523C66.6572 48.1523 66.3223 47.9404 66.3223 47.1816V42.875H67.6758V41.8906H66.3223V39.9697H65.0918V41.8906H64.0527V42.875H65.0918V47.1885C65.0918 48.5488 65.7344 49.1367 67.04 49.1367ZM71.6748 49.1367C73.2266 49.1367 74.3887 48.207 74.6211 47.0312L74.6348 46.9629H73.4658L73.4453 47.0244C73.2402 47.6328 72.6045 48.084 71.7021 48.084C70.4375 48.084 69.6309 47.2295 69.6035 45.7666H74.7236V45.3291C74.7236 43.1963 73.541 41.7539 71.5996 41.7539C69.6582 41.7539 68.4004 43.2646 68.4004 45.4658V45.4727C68.4004 47.708 69.6309 49.1367 71.6748 49.1367ZM71.5928 42.8066C72.6318 42.8066 73.3975 43.4561 73.5137 44.8369H69.624C69.7539 43.5107 70.5605 42.8066 71.5928 42.8066ZM78.9346 51.5293C80.8623 51.5293 82.0723 50.4492 82.0723 48.8018V41.8906H80.8828V43.0938H80.8555C80.418 42.3008 79.625 41.7539 78.6201 41.7539C76.8154 41.7539 75.5781 43.1895 75.5781 45.3975V45.4043C75.5781 47.626 76.8018 49.0684 78.5928 49.0684C79.6113 49.0684 80.4316 48.5625 80.8555 47.7764H80.8828V48.6855C80.8828 49.7861 80.1719 50.4766 78.9209 50.4766C77.9502 50.4766 77.2734 50.1621 77.0479 49.6494L77.0205 49.5879H75.8242L75.8379 49.6494C76.0703 50.7021 77.1777 51.5293 78.9346 51.5293ZM78.8525 48.0156C77.5879 48.0156 76.7949 47.0176 76.7949 45.4043V45.3975C76.7949 43.8184 77.5879 42.8066 78.8525 42.8066C80.0557 42.8066 80.8828 43.832 80.8828 45.3975V45.4043C80.8828 46.9834 80.0625 48.0156 78.8525 48.0156ZM84.2939 51.3926C85.5791 51.3926 86.2012 50.8047 86.707 49.4443L89.4824 41.8906H88.2314L86.2627 47.8105H86.2354L84.2734 41.8906H83.002L85.6406 49.0068L85.4971 49.4102C85.21 50.2168 84.793 50.4082 84.041 50.4082C83.8975 50.4082 83.7607 50.3877 83.6582 50.3672V51.3379C83.8086 51.3652 84.0615 51.3926 84.2939 51.3926Z" fill="white"/>
</svg>
