<svg width="402" height="40" viewBox="0 0 402 40" fill="none" xmlns="http://www.w3.org/2000/svg">
<g opacity="0.8">
<mask maskUnits="userSpaceOnUse" x="0" y="0" width="0" height="0" fill="black">
<rect fill="white" width="0" height="0"/>
</mask>
<path d="M0.292893 31.2929C-0.0976312 31.6834 -0.0976311 32.3166 0.292893 32.7071L6.65685 39.0711C7.04738 39.4616 7.68054 39.4616 8.07107 39.0711C8.46159 38.6805 8.46159 38.0474 8.07107 37.6569L2.41421 32L8.07107 26.3431C8.46159 25.9526 8.46159 25.3195 8.07107 24.9289C7.68054 24.5384 7.04738 24.5384 6.65685 24.9289L0.292893 31.2929ZM401.707 32.7071C402.098 32.3165 402.098 31.6834 401.707 31.2929L395.343 24.9289C394.953 24.5384 394.319 24.5384 393.929 24.9289C393.538 25.3194 393.538 25.9526 393.929 26.3431L399.586 32L393.929 37.6568C393.538 38.0473 393.538 38.6805 393.929 39.071C394.319 39.4616 394.953 39.4616 395.343 39.071L401.707 32.7071ZM1 33L2.00251 33L2.00251 31L1 31L1 33ZM7.01504 33L9.02005 33L9.02005 31L7.01504 31L7.01504 33ZM14.0326 33L16.0376 33L16.0376 31L14.0326 31L14.0326 33ZM21.0501 33L23.0551 33L23.0551 31L21.0501 31L21.0501 33ZM28.0677 33L30.0727 33L30.0727 31L28.0677 31L28.0677 33ZM35.0852 33L37.0902 33L37.0902 31L35.0852 31L35.0852 33ZM42.1028 33L44.1078 33L44.1078 31L42.1028 31L42.1028 33ZM49.1203 33L51.1253 33L51.1253 31L49.1203 31L49.1203 33ZM56.1378 33L58.1429 33L58.1429 31L56.1378 31L56.1378 33ZM63.1554 33L65.1604 33L65.1604 31L63.1554 31L63.1554 33ZM70.1729 33L72.1779 33L72.1779 31L70.1729 31L70.1729 33ZM77.1905 33L79.1955 33L79.1955 31L77.1905 31L77.1905 33ZM84.208 33L86.213 33L86.213 31L84.208 31L84.208 33ZM91.2256 33L93.2306 33L93.2306 31L91.2256 31L91.2256 33ZM98.2431 33L100.248 33L100.248 31L98.2431 31L98.2431 33ZM105.261 33L107.266 33L107.266 31L105.261 31L105.261 33ZM112.278 33L114.283 33L114.283 31L112.278 31L112.278 33ZM119.296 33L121.301 33L121.301 31L119.296 31L119.296 33ZM126.313 33L128.318 33L128.318 31L126.313 31L126.313 33ZM133.331 33L135.336 33L135.336 31L133.331 31L133.331 33ZM140.348 33L142.353 33L142.353 31L140.348 31L140.348 33ZM147.366 33L149.371 33L149.371 31L147.366 31L147.366 33ZM154.383 33L156.389 33L156.389 31L154.383 31L154.383 33ZM161.401 33L163.406 33L163.406 31L161.401 31L161.401 33ZM168.419 33L170.424 33L170.424 31L168.419 31L168.419 33ZM175.436 33L177.441 33L177.441 31L175.436 31L175.436 33ZM182.454 33L184.459 33L184.459 31L182.454 31L182.454 33ZM189.471 33L191.476 33L191.476 31L189.471 31L189.471 33ZM196.489 33L198.494 33L198.494 31L196.489 31L196.489 33ZM203.506 33L205.511 33L205.511 31L203.506 31L203.506 33ZM210.524 33L212.529 33L212.529 31L210.524 31L210.524 33ZM217.541 33L219.546 33L219.546 31L217.541 31L217.541 33ZM224.559 33L226.564 33L226.564 31L224.559 31L224.559 33ZM231.577 33L233.582 33L233.582 31L231.577 31L231.577 33ZM238.594 33L240.599 33L240.599 31L238.594 31L238.594 33ZM245.612 33L247.617 33L247.617 31L245.612 31L245.612 33ZM252.629 33L254.634 33L254.634 31L252.629 31L252.629 33ZM259.647 33L261.652 33L261.652 31L259.647 31L259.647 33ZM266.664 33L268.669 33L268.669 31L266.664 31L266.664 33ZM273.682 33L275.687 33L275.687 31L273.682 31L273.682 33ZM280.699 33L282.704 33L282.704 31L280.699 31L280.699 33ZM287.717 33L289.722 33L289.722 31L287.717 31L287.717 33ZM294.734 33L296.739 33L296.739 31L294.734 31L294.734 33ZM301.752 33L303.757 33L303.757 31L301.752 31L301.752 33ZM308.77 33L310.775 33L310.775 31L308.77 31L308.77 33ZM315.787 33L317.792 33L317.792 31L315.787 31L315.787 33ZM322.805 33L324.81 33L324.81 31L322.805 31L322.805 33ZM329.822 33L331.827 33L331.827 31L329.822 31L329.822 33ZM336.84 33L338.845 33L338.845 31L336.84 31L336.84 33ZM343.857 33L345.862 33L345.862 31L343.857 31L343.857 33ZM350.875 33L352.88 33L352.88 31L350.875 31L350.875 33ZM357.892 33L359.897 33L359.897 31L357.892 31L357.892 33ZM364.91 33L366.915 33L366.915 31L364.91 31L364.91 33ZM371.927 33L373.932 33L373.932 31L371.927 31L371.927 33ZM378.945 33L380.95 33L380.95 31L378.945 31L378.945 33ZM385.963 33L387.968 33L387.968 31L385.963 31L385.963 33ZM392.98 33L394.985 33L394.985 31L392.98 31L392.98 33ZM399.998 33L401 33L401 31L399.998 31L399.998 33Z" fill="#555555" mask="url(#)"/>
</g>
<path opacity="0.8" d="M6.97656 15.1562C5.78906 15.1562 4.77865 14.9141 3.94531 14.4297C3.11198 13.9453 2.48177 13.2734 2.05469 12.4141C1.63281 11.5547 1.42188 10.5651 1.42188 9.44531C1.42188 8.30469 1.64062 7.3125 2.07812 6.46875C2.51562 5.625 3.14323 4.97396 3.96094 4.51562C4.78385 4.05729 5.75521 3.82812 6.875 3.82812C8.03646 3.82812 9.00781 4.0625 9.78906 4.53125C10.5703 5 11.1719 5.64583 11.5938 6.46875L9.67969 7.39844C9.4349 6.9349 9.07812 6.55208 8.60938 6.25C8.14583 5.94792 7.58333 5.79688 6.92188 5.79688C6.29167 5.79688 5.73438 5.94792 5.25 6.25C4.77083 6.55208 4.39844 6.97917 4.13281 7.53125C3.8724 8.07812 3.74219 8.71615 3.74219 9.44531C3.74219 10.1849 3.86458 10.8359 4.10938 11.3984C4.35417 11.9609 4.71875 12.3984 5.20312 12.7109C5.69271 13.0234 6.28385 13.1797 6.97656 13.1797C8.28385 13.1797 9.25781 12.5547 9.89844 11.3047L11.7891 12.2812C11.4036 13.125 10.8151 13.8151 10.0234 14.3516C9.23698 14.888 8.22135 15.1562 6.97656 15.1562ZM15.8984 15.1562C14.9349 15.1562 14.2292 14.8646 13.7812 14.2812C13.3385 13.6927 13.1172 12.9036 13.1172 11.9141V6.55469H15.3125V11.2891C15.3125 11.9193 15.4193 12.4089 15.6328 12.7578C15.8464 13.1016 16.2135 13.2734 16.7344 13.2734C17.0833 13.2734 17.3984 13.1823 17.6797 13C17.9609 12.8125 18.1823 12.5521 18.3438 12.2188C18.5052 11.8854 18.5859 11.5052 18.5859 11.0781V6.55469H20.7812V13.1094C20.7812 13.4635 20.7865 13.8333 20.7969 14.2188C20.8125 14.599 20.8281 14.8594 20.8438 15H18.75C18.7344 14.875 18.7135 14.6406 18.6875 14.2969C18.6667 13.9479 18.6562 13.6745 18.6562 13.4766H18.6172C18.3307 14.0547 17.9609 14.4792 17.5078 14.75C17.0599 15.0208 16.5234 15.1562 15.8984 15.1562ZM23.0234 8.53906C23.0234 8.17448 23.0156 7.78646 23 7.375C22.9896 6.95833 22.9766 6.6849 22.9609 6.55469H25.0547C25.0755 6.64844 25.0964 6.8724 25.1172 7.22656C25.1432 7.58073 25.1562 7.84635 25.1562 8.02344H25.1875C25.3542 7.6276 25.513 7.31771 25.6641 7.09375C25.8151 6.86979 26.0104 6.69531 26.25 6.57031C26.4896 6.4401 26.8021 6.375 27.1875 6.375C27.3281 6.375 27.4635 6.38802 27.5938 6.41406C27.7292 6.4401 27.8281 6.47135 27.8906 6.50781L27.8281 8.40625C27.7552 8.39583 27.7005 8.38542 27.6641 8.375C27.3828 8.32292 27.1432 8.29688 26.9453 8.29688C26.4036 8.29688 25.9792 8.51823 25.6719 8.96094C25.3698 9.39844 25.2188 10.0312 25.2188 10.8594V15H23.0234V8.53906ZM29.2578 8.53906C29.2578 8.17448 29.25 7.78646 29.2344 7.375C29.224 6.95833 29.2109 6.6849 29.1953 6.55469H31.2891C31.3099 6.64844 31.3307 6.8724 31.3516 7.22656C31.3776 7.58073 31.3906 7.84635 31.3906 8.02344H31.4219C31.5885 7.6276 31.7474 7.31771 31.8984 7.09375C32.0495 6.86979 32.2448 6.69531 32.4844 6.57031C32.724 6.4401 33.0365 6.375 33.4219 6.375C33.5625 6.375 33.6979 6.38802 33.8281 6.41406C33.9635 6.4401 34.0625 6.47135 34.125 6.50781L34.0625 8.40625C33.9896 8.39583 33.9349 8.38542 33.8984 8.375C33.6172 8.32292 33.3776 8.29688 33.1797 8.29688C32.638 8.29688 32.2135 8.51823 31.9062 8.96094C31.6042 9.39844 31.4531 10.0312 31.4531 10.8594V15H29.2578V8.53906ZM38.9531 15.1562C37.6562 15.1562 36.6458 14.7891 35.9219 14.0547C35.2031 13.3203 34.8438 12.2214 34.8438 10.7578C34.8438 9.77865 35.0208 8.96354 35.375 8.3125C35.7344 7.65625 36.2135 7.17188 36.8125 6.85938C37.4167 6.54688 38.0885 6.39062 38.8281 6.39062C39.6875 6.39062 40.3958 6.57552 40.9531 6.94531C41.5156 7.3151 41.9245 7.80729 42.1797 8.42188C42.4401 9.03125 42.5703 9.71354 42.5703 10.4688C42.5703 10.7656 42.5547 11.0599 42.5234 11.3516H37.1484C37.1484 12.0078 37.3021 12.5286 37.6094 12.9141C37.9219 13.2995 38.4089 13.4922 39.0703 13.4922C39.3672 13.4922 39.6354 13.4609 39.875 13.3984C40.1146 13.3307 40.349 13.2344 40.5781 13.1094C40.8073 12.9844 41.0885 12.8047 41.4219 12.5703L42.3125 13.9922C41.8177 14.3672 41.3177 14.6562 40.8125 14.8594C40.3073 15.0573 39.6875 15.1562 38.9531 15.1562ZM40.4453 9.85156C40.4245 9.21615 40.276 8.7474 40 8.44531C39.724 8.14323 39.3281 7.99219 38.8125 7.99219C38.3229 7.99219 37.9297 8.14583 37.6328 8.45312C37.3411 8.75521 37.1849 9.22135 37.1641 9.85156H40.4453ZM44.2422 8.4375C44.2422 8.07812 44.2344 7.70833 44.2188 7.32812C44.2083 6.94792 44.1953 6.6901 44.1797 6.55469H46.2734C46.2943 6.66927 46.3151 6.90104 46.3359 7.25C46.362 7.59375 46.375 7.86719 46.375 8.07031H46.4062C46.7031 7.49219 47.0755 7.0651 47.5234 6.78906C47.9714 6.51302 48.5052 6.375 49.125 6.375C50.0885 6.375 50.7917 6.67188 51.2344 7.26562C51.6823 7.85417 51.9062 8.64583 51.9062 9.64062V15H49.7188V10.2656C49.7188 9.63021 49.612 9.13802 49.3984 8.78906C49.1849 8.4401 48.8177 8.26562 48.2969 8.26562C47.9427 8.26562 47.625 8.35938 47.3438 8.54688C47.0625 8.72917 46.8411 8.98958 46.6797 9.32812C46.5182 9.66146 46.4375 10.0417 46.4375 10.4688V15H44.2422V8.4375ZM56.3438 15.1406C55.6406 15.1406 55.1016 14.9505 54.7266 14.5703C54.3568 14.1849 54.1719 13.6146 54.1719 12.8594V8.1875H53.1016V6.55469H54.2812L54.3906 4.64844L56.3438 4.48438V6.55469H58.0234V8.1875H56.3438V12.2656C56.3438 12.6302 56.4089 12.8984 56.5391 13.0703C56.6693 13.237 56.8776 13.3203 57.1641 13.3203C57.3932 13.3203 57.6589 13.2891 57.9609 13.2266L58.125 14.8906C57.526 15.0573 56.9323 15.1406 56.3438 15.1406ZM66.5391 15.1562C65.5755 15.1562 64.8698 14.8646 64.4219 14.2812C63.9792 13.6927 63.7578 12.9036 63.7578 11.9141V6.55469H65.9531V11.2891C65.9531 11.9193 66.0599 12.4089 66.2734 12.7578C66.487 13.1016 66.8542 13.2734 67.375 13.2734C67.724 13.2734 68.0391 13.1823 68.3203 13C68.6016 12.8125 68.8229 12.5521 68.9844 12.2188C69.1458 11.8854 69.2266 11.5052 69.2266 11.0781V6.55469H71.4219V13.1094C71.4219 13.4635 71.4271 13.8333 71.4375 14.2188C71.4531 14.599 71.4688 14.8594 71.4844 15H69.3906C69.375 14.875 69.3542 14.6406 69.3281 14.2969C69.3073 13.9479 69.2969 13.6745 69.2969 13.4766H69.2578C68.9714 14.0547 68.6016 14.4792 68.1484 14.75C67.7005 15.0208 67.1641 15.1562 66.5391 15.1562ZM76.5156 15.1562C75.7865 15.1562 75.1354 15.0599 74.5625 14.8672C73.9948 14.6745 73.4505 14.3672 72.9297 13.9453L73.9219 12.4375C74.3906 12.7969 74.8255 13.0677 75.2266 13.25C75.6276 13.4271 76.0573 13.5156 76.5156 13.5156C76.9792 13.5156 77.3385 13.4583 77.5938 13.3438C77.8542 13.224 77.9844 13.013 77.9844 12.7109C77.9844 12.4922 77.9167 12.3177 77.7812 12.1875C77.6458 12.0573 77.4714 11.9583 77.2578 11.8906C77.0495 11.8177 76.7526 11.737 76.3672 11.6484L75.9531 11.5469C75.3854 11.401 74.9115 11.2396 74.5312 11.0625C74.1562 10.8802 73.849 10.6198 73.6094 10.2812C73.3698 9.94271 73.25 9.5 73.25 8.95312C73.25 8.42188 73.3776 7.96615 73.6328 7.58594C73.888 7.20052 74.263 6.90625 74.7578 6.70312C75.2526 6.49479 75.849 6.39062 76.5469 6.39062C77.2135 6.39062 77.8203 6.49219 78.3672 6.69531C78.9193 6.89844 79.3906 7.20312 79.7812 7.60938L78.6562 8.90625C78.0573 8.31771 77.3594 8.02344 76.5625 8.02344C75.6979 8.02344 75.2656 8.27344 75.2656 8.77344C75.2656 8.96615 75.3203 9.11979 75.4297 9.23438C75.5443 9.34375 75.6927 9.42969 75.875 9.49219C76.0573 9.55469 76.3203 9.625 76.6641 9.70312L77.0625 9.79688C77.6875 9.95312 78.2005 10.1224 78.6016 10.3047C79.0078 10.4818 79.3411 10.75 79.6016 11.1094C79.8672 11.4688 80 11.9453 80 12.5391C80 13.0755 79.862 13.5417 79.5859 13.9375C79.3151 14.3281 78.9167 14.6302 78.3906 14.8438C77.8698 15.0521 77.2448 15.1562 76.5156 15.1562ZM85.2344 15.1562C83.9375 15.1562 82.9271 14.7891 82.2031 14.0547C81.4844 13.3203 81.125 12.2214 81.125 10.7578C81.125 9.77865 81.3021 8.96354 81.6562 8.3125C82.0156 7.65625 82.4948 7.17188 83.0938 6.85938C83.6979 6.54688 84.3698 6.39062 85.1094 6.39062C85.9688 6.39062 86.6771 6.57552 87.2344 6.94531C87.7969 7.3151 88.2057 7.80729 88.4609 8.42188C88.7214 9.03125 88.8516 9.71354 88.8516 10.4688C88.8516 10.7656 88.8359 11.0599 88.8047 11.3516H83.4297C83.4297 12.0078 83.5833 12.5286 83.8906 12.9141C84.2031 13.2995 84.6901 13.4922 85.3516 13.4922C85.6484 13.4922 85.9167 13.4609 86.1562 13.3984C86.3958 13.3307 86.6302 13.2344 86.8594 13.1094C87.0885 12.9844 87.3698 12.8047 87.7031 12.5703L88.5938 13.9922C88.099 14.3672 87.599 14.6562 87.0938 14.8594C86.5885 15.0573 85.9688 15.1562 85.2344 15.1562ZM86.7266 9.85156C86.7057 9.21615 86.5573 8.7474 86.2812 8.44531C86.0052 8.14323 85.6094 7.99219 85.0938 7.99219C84.6042 7.99219 84.2109 8.14583 83.9141 8.45312C83.6224 8.75521 83.4661 9.22135 83.4453 9.85156H86.7266ZM98.6562 15.1562C97.7656 15.1562 97.0078 14.9766 96.3828 14.6172C95.7578 14.2578 95.2839 13.7526 94.9609 13.1016C94.6432 12.4505 94.4844 11.6901 94.4844 10.8203C94.4844 9.88802 94.6562 9.09115 95 8.42969C95.3438 7.76302 95.8333 7.25781 96.4688 6.91406C97.1042 6.5651 97.8568 6.39062 98.7266 6.39062C100.169 6.39062 101.255 6.98438 101.984 8.17188L100.453 9.21094C100.224 8.86719 99.9766 8.60156 99.7109 8.41406C99.4505 8.22656 99.1224 8.13281 98.7266 8.13281C98.0964 8.13281 97.6146 8.35677 97.2812 8.80469C96.9531 9.2526 96.7891 9.89323 96.7891 10.7266C96.7891 11.5964 96.9583 12.2604 97.2969 12.7188C97.6406 13.1719 98.1224 13.3984 98.7422 13.3984C99.1589 13.3984 99.5182 13.3047 99.8203 13.1172C100.128 12.9245 100.451 12.651 100.789 12.2969L102.102 13.5625C101.695 14.0625 101.203 14.4531 100.625 14.7344C100.052 15.0156 99.3958 15.1562 98.6562 15.1562ZM105.414 15.1562C104.893 15.1562 104.435 15.0573 104.039 14.8594C103.648 14.6615 103.344 14.3724 103.125 13.9922C102.906 13.6068 102.797 13.1484 102.797 12.6172C102.797 11.6797 103.099 11 103.703 10.5781C104.312 10.151 105.125 9.92969 106.141 9.91406L107.961 9.88281V9.47656C107.961 8.96094 107.836 8.60156 107.586 8.39844C107.341 8.1901 107.003 8.08594 106.57 8.08594C105.826 8.08594 105.068 8.42708 104.297 9.10938L103.258 7.73438C104.268 6.83854 105.414 6.39062 106.695 6.39062C107.794 6.39062 108.646 6.65104 109.25 7.17188C109.854 7.69271 110.156 8.4401 110.156 9.41406V12.5078C110.156 13.4349 110.177 14.2656 110.219 15H108.141C108.104 14.6302 108.086 14.2344 108.086 13.8125H108.039C107.763 14.2448 107.404 14.5781 106.961 14.8125C106.523 15.0417 106.008 15.1562 105.414 15.1562ZM106.102 13.4922C106.461 13.4922 106.781 13.4062 107.062 13.2344C107.349 13.0625 107.57 12.8385 107.727 12.5625C107.883 12.2812 107.961 11.9844 107.961 11.6719V11.2422L106.828 11.2578C106.443 11.2786 106.13 11.3177 105.891 11.375C105.651 11.4271 105.456 11.5365 105.305 11.7031C105.154 11.8646 105.078 12.1094 105.078 12.4375C105.078 12.7812 105.169 13.0443 105.352 13.2266C105.539 13.4036 105.789 13.4922 106.102 13.4922ZM115.156 15.1562C114.427 15.1562 113.776 15.0599 113.203 14.8672C112.635 14.6745 112.091 14.3672 111.57 13.9453L112.562 12.4375C113.031 12.7969 113.466 13.0677 113.867 13.25C114.268 13.4271 114.698 13.5156 115.156 13.5156C115.62 13.5156 115.979 13.4583 116.234 13.3438C116.495 13.224 116.625 13.013 116.625 12.7109C116.625 12.4922 116.557 12.3177 116.422 12.1875C116.286 12.0573 116.112 11.9583 115.898 11.8906C115.69 11.8177 115.393 11.737 115.008 11.6484L114.594 11.5469C114.026 11.401 113.552 11.2396 113.172 11.0625C112.797 10.8802 112.49 10.6198 112.25 10.2812C112.01 9.94271 111.891 9.5 111.891 8.95312C111.891 8.42188 112.018 7.96615 112.273 7.58594C112.529 7.20052 112.904 6.90625 113.398 6.70312C113.893 6.49479 114.49 6.39062 115.188 6.39062C115.854 6.39062 116.461 6.49219 117.008 6.69531C117.56 6.89844 118.031 7.20312 118.422 7.60938L117.297 8.90625C116.698 8.31771 116 8.02344 115.203 8.02344C114.339 8.02344 113.906 8.27344 113.906 8.77344C113.906 8.96615 113.961 9.11979 114.07 9.23438C114.185 9.34375 114.333 9.42969 114.516 9.49219C114.698 9.55469 114.961 9.625 115.305 9.70312L115.703 9.79688C116.328 9.95312 116.841 10.1224 117.242 10.3047C117.648 10.4818 117.982 10.75 118.242 11.1094C118.508 11.4688 118.641 11.9453 118.641 12.5391C118.641 13.0755 118.503 13.5417 118.227 13.9375C117.956 14.3281 117.557 14.6302 117.031 14.8438C116.51 15.0521 115.885 15.1562 115.156 15.1562ZM123.875 15.1562C122.578 15.1562 121.568 14.7891 120.844 14.0547C120.125 13.3203 119.766 12.2214 119.766 10.7578C119.766 9.77865 119.943 8.96354 120.297 8.3125C120.656 7.65625 121.135 7.17188 121.734 6.85938C122.339 6.54688 123.01 6.39062 123.75 6.39062C124.609 6.39062 125.318 6.57552 125.875 6.94531C126.438 7.3151 126.846 7.80729 127.102 8.42188C127.362 9.03125 127.492 9.71354 127.492 10.4688C127.492 10.7656 127.477 11.0599 127.445 11.3516H122.07C122.07 12.0078 122.224 12.5286 122.531 12.9141C122.844 13.2995 123.331 13.4922 123.992 13.4922C124.289 13.4922 124.557 13.4609 124.797 13.3984C125.036 13.3307 125.271 13.2344 125.5 13.1094C125.729 12.9844 126.01 12.8047 126.344 12.5703L127.234 13.9922C126.74 14.3672 126.24 14.6562 125.734 14.8594C125.229 15.0573 124.609 15.1562 123.875 15.1562ZM125.367 9.85156C125.346 9.21615 125.198 8.7474 124.922 8.44531C124.646 8.14323 124.25 7.99219 123.734 7.99219C123.245 7.99219 122.852 8.14583 122.555 8.45312C122.263 8.75521 122.107 9.22135 122.086 9.85156H125.367ZM132.016 15.1562C131.286 15.1562 130.635 15.0599 130.062 14.8672C129.495 14.6745 128.951 14.3672 128.43 13.9453L129.422 12.4375C129.891 12.7969 130.326 13.0677 130.727 13.25C131.128 13.4271 131.557 13.5156 132.016 13.5156C132.479 13.5156 132.839 13.4583 133.094 13.3438C133.354 13.224 133.484 13.013 133.484 12.7109C133.484 12.4922 133.417 12.3177 133.281 12.1875C133.146 12.0573 132.971 11.9583 132.758 11.8906C132.549 11.8177 132.253 11.737 131.867 11.6484L131.453 11.5469C130.885 11.401 130.411 11.2396 130.031 11.0625C129.656 10.8802 129.349 10.6198 129.109 10.2812C128.87 9.94271 128.75 9.5 128.75 8.95312C128.75 8.42188 128.878 7.96615 129.133 7.58594C129.388 7.20052 129.763 6.90625 130.258 6.70312C130.753 6.49479 131.349 6.39062 132.047 6.39062C132.714 6.39062 133.32 6.49219 133.867 6.69531C134.419 6.89844 134.891 7.20312 135.281 7.60938L134.156 8.90625C133.557 8.31771 132.859 8.02344 132.062 8.02344C131.198 8.02344 130.766 8.27344 130.766 8.77344C130.766 8.96615 130.82 9.11979 130.93 9.23438C131.044 9.34375 131.193 9.42969 131.375 9.49219C131.557 9.55469 131.82 9.625 132.164 9.70312L132.562 9.79688C133.188 9.95312 133.701 10.1224 134.102 10.3047C134.508 10.4818 134.841 10.75 135.102 11.1094C135.367 11.4688 135.5 11.9453 135.5 12.5391C135.5 13.0755 135.362 13.5417 135.086 13.9375C134.815 14.3281 134.417 14.6302 133.891 14.8438C133.37 15.0521 132.745 15.1562 132.016 15.1562Z" fill="#555555"/>
</svg>
