<svg width="146" height="68" viewBox="0 0 146 68" fill="none" xmlns="http://www.w3.org/2000/svg">
<path d="M117.001 0H8.29774C4.94804 0 3.08201 3.87095 5.16845 6.49149L25.0867 31.5085C26.2476 32.9666 26.2476 35.0334 25.0867 36.4915L5.16845 61.5085C3.08201 64.129 4.94804 68 8.29773 68H117.001C118.22 68 119.372 67.4447 120.131 66.4915L144.016 36.4915C145.177 35.0334 145.177 32.9666 144.016 31.5085L120.131 1.5085C119.372 0.555319 118.22 0 117.001 0Z" fill="#727272"/>
<path d="M37.5303 29H38.7471V21.2139H38.7812L44.209 29H45.4053V19.1357H44.1885V26.9219H44.1543L38.7266 19.1357H37.5303V29ZM50.0605 29.1367C51.6123 29.1367 52.7744 28.207 53.0068 27.0312L53.0205 26.9629H51.8516L51.8311 27.0244C51.626 27.6328 50.9902 28.084 50.0879 28.084C48.8232 28.084 48.0166 27.2295 47.9893 25.7666H53.1094V25.3291C53.1094 23.1963 51.9268 21.7539 49.9854 21.7539C48.0439 21.7539 46.7861 23.2646 46.7861 25.4658V25.4727C46.7861 27.708 48.0166 29.1367 50.0605 29.1367ZM49.9785 22.8066C51.0176 22.8066 51.7832 23.4561 51.8994 24.8369H48.0098C48.1396 23.5107 48.9463 22.8066 49.9785 22.8066ZM57.3203 31.5293C59.248 31.5293 60.458 30.4492 60.458 28.8018V21.8906H59.2686V23.0938H59.2412C58.8037 22.3008 58.0107 21.7539 57.0059 21.7539C55.2012 21.7539 53.9639 23.1895 53.9639 25.3975V25.4043C53.9639 27.626 55.1875 29.0684 56.9785 29.0684C57.9971 29.0684 58.8174 28.5625 59.2412 27.7764H59.2686V28.6855C59.2686 29.7861 58.5576 30.4766 57.3066 30.4766C56.3359 30.4766 55.6592 30.1621 55.4336 29.6494L55.4062 29.5879H54.21L54.2236 29.6494C54.4561 30.7021 55.5635 31.5293 57.3203 31.5293ZM57.2383 28.0156C55.9736 28.0156 55.1807 27.0176 55.1807 25.4043V25.3975C55.1807 23.8184 55.9736 22.8066 57.2383 22.8066C58.4414 22.8066 59.2686 23.832 59.2686 25.3975V25.4043C59.2686 26.9834 58.4482 28.0156 57.2383 28.0156ZM64.9424 29.1367C66.9043 29.1367 68.2305 27.7148 68.2305 25.4453V25.4316C68.2305 23.1621 66.8975 21.7539 64.9355 21.7539C62.9736 21.7539 61.6475 23.1689 61.6475 25.4316V25.4453C61.6475 27.708 62.9668 29.1367 64.9424 29.1367ZM64.9492 28.084C63.6914 28.084 62.8643 27.1201 62.8643 25.4453V25.4316C62.8643 23.7705 63.6982 22.8066 64.9355 22.8066C66.1934 22.8066 67.0137 23.7637 67.0137 25.4316V25.4453C67.0137 27.1133 66.2002 28.084 64.9492 28.084ZM71.7441 29.1367C71.9766 29.1367 72.2295 29.1094 72.3799 29.0889V28.125C72.2773 28.1318 72.1406 28.1523 71.9971 28.1523C71.3613 28.1523 71.0264 27.9404 71.0264 27.1816V22.875H72.3799V21.8906H71.0264V19.9697H69.7959V21.8906H68.7568V22.875H69.7959V27.1885C69.7959 28.5488 70.4385 29.1367 71.7441 29.1367ZM74.3281 20.6875C74.7451 20.6875 75.0732 20.3525 75.0732 19.9424C75.0732 19.5254 74.7451 19.1973 74.3281 19.1973C73.918 19.1973 73.583 19.5254 73.583 19.9424C73.583 20.3525 73.918 20.6875 74.3281 20.6875ZM73.7334 29H74.9229V21.8906H73.7334V29ZM78.6211 29.1367C79.5713 29.1367 80.4258 28.624 80.8428 27.8447H80.8701V29H82.0596V24.085C82.0596 22.6631 81.0068 21.7539 79.3252 21.7539C77.6504 21.7539 76.6318 22.6973 76.5293 23.8662L76.5225 23.9414H77.6709L77.6846 23.8799C77.8213 23.2441 78.3955 22.8066 79.3115 22.8066C80.3027 22.8066 80.8701 23.333 80.8701 24.2012V24.7959L78.833 24.9121C77.1992 25.0078 76.2559 25.7666 76.2559 26.9766V26.9902C76.2559 28.2822 77.2061 29.1367 78.6211 29.1367ZM77.4727 26.9902V26.9766C77.4727 26.3135 78.0195 25.8896 78.9697 25.835L80.8701 25.7188V26.2998C80.8701 27.332 80.0088 28.1045 78.8877 28.1045C78.0332 28.1045 77.4727 27.6738 77.4727 26.9902ZM85.8809 29.1367C86.1133 29.1367 86.3662 29.1094 86.5166 29.0889V28.125C86.4141 28.1318 86.2773 28.1523 86.1338 28.1523C85.498 28.1523 85.1631 27.9404 85.1631 27.1816V22.875H86.5166V21.8906H85.1631V19.9697H83.9326V21.8906H82.8936V22.875H83.9326V27.1885C83.9326 28.5488 84.5752 29.1367 85.8809 29.1367ZM90.5156 29.1367C92.0674 29.1367 93.2295 28.207 93.4619 27.0312L93.4756 26.9629H92.3066L92.2861 27.0244C92.0811 27.6328 91.4453 28.084 90.543 28.084C89.2783 28.084 88.4717 27.2295 88.4443 25.7666H93.5645V25.3291C93.5645 23.1963 92.3818 21.7539 90.4404 21.7539C88.499 21.7539 87.2412 23.2646 87.2412 25.4658V25.4727C87.2412 27.708 88.4717 29.1367 90.5156 29.1367ZM90.4336 22.8066C91.4727 22.8066 92.2383 23.4561 92.3545 24.8369H88.4648C88.5947 23.5107 89.4014 22.8066 90.4336 22.8066ZM99.7168 29.1367C100.667 29.1367 101.521 28.624 101.938 27.8447H101.966V29H103.155V24.085C103.155 22.6631 102.103 21.7539 100.421 21.7539C98.7461 21.7539 97.7275 22.6973 97.625 23.8662L97.6182 23.9414H98.7666L98.7803 23.8799C98.917 23.2441 99.4912 22.8066 100.407 22.8066C101.398 22.8066 101.966 23.333 101.966 24.2012V24.7959L99.9287 24.9121C98.2949 25.0078 97.3516 25.7666 97.3516 26.9766V26.9902C97.3516 28.2822 98.3018 29.1367 99.7168 29.1367ZM98.5684 26.9902V26.9766C98.5684 26.3135 99.1152 25.8896 100.065 25.835L101.966 25.7188V26.2998C101.966 27.332 101.104 28.1045 99.9834 28.1045C99.1289 28.1045 98.5684 27.6738 98.5684 26.9902ZM104.666 29H105.855V24.8164C105.855 23.6064 106.587 22.8066 107.708 22.8066C108.802 22.8066 109.342 23.4424 109.342 24.5977V29H110.531V24.3857C110.531 22.7656 109.629 21.7539 108.07 21.7539C106.99 21.7539 106.266 22.2393 105.883 22.9023H105.855V21.8906H104.666V29ZM114.722 29.1367C115.74 29.1367 116.533 28.624 116.978 27.7969H117.005V29H118.194V19.1357H117.005V23.0801H116.978C116.533 22.2598 115.706 21.7539 114.701 21.7539C112.917 21.7539 111.7 23.1963 111.7 25.4385V25.4453C111.7 27.6875 112.903 29.1367 114.722 29.1367ZM114.954 28.084C113.696 28.084 112.917 27.0791 112.917 25.4453V25.4385C112.917 23.8184 113.696 22.8066 114.954 22.8066C116.15 22.8066 117.012 23.8525 117.012 25.4385V25.4453C117.012 27.0381 116.157 28.084 114.954 28.084ZM39.8682 49.1367C41.4541 49.1367 42.6299 48.2617 42.6299 47.0176V47.0107C42.6299 45.999 42.1104 45.4316 40.6748 45.083L39.5469 44.8096C38.7607 44.6182 38.4395 44.2832 38.4395 43.7979V43.791C38.4395 43.1621 38.9727 42.7451 39.834 42.7451C40.7158 42.7451 41.2422 43.2031 41.3379 43.8936L41.3447 43.9414H42.4795L42.4727 43.8525C42.3838 42.6631 41.3926 41.7539 39.834 41.7539C38.2959 41.7539 37.2227 42.6221 37.2227 43.8457V43.8525C37.2227 44.8779 37.8721 45.5 39.2119 45.8213L40.3398 46.0947C41.1465 46.293 41.4131 46.5801 41.4131 47.0928V47.0996C41.4131 47.7422 40.8389 48.1455 39.875 48.1455C38.9043 48.1455 38.3779 47.7285 38.2344 47.0176L38.2207 46.9492H37.0312L37.0381 47.0107C37.1816 48.2822 38.1934 49.1367 39.8682 49.1367ZM46.793 49.1367C48.3447 49.1367 49.5068 48.207 49.7393 47.0312L49.7529 46.9629H48.584L48.5635 47.0244C48.3584 47.6328 47.7227 48.084 46.8203 48.084C45.5557 48.084 44.749 47.2295 44.7217 45.7666H49.8418V45.3291C49.8418 43.1963 48.6592 41.7539 46.7178 41.7539C44.7764 41.7539 43.5186 43.2646 43.5186 45.4658V45.4727C43.5186 47.708 44.749 49.1367 46.793 49.1367ZM46.7109 42.8066C47.75 42.8066 48.5156 43.4561 48.6318 44.8369H44.7422C44.8721 43.5107 45.6787 42.8066 46.7109 42.8066ZM51.1064 49H52.2959V39.1357H51.1064V49ZM56.8281 49.1367C58.3799 49.1367 59.542 48.207 59.7744 47.0312L59.7881 46.9629H58.6191L58.5986 47.0244C58.3936 47.6328 57.7578 48.084 56.8555 48.084C55.5908 48.084 54.7842 47.2295 54.7568 45.7666H59.877V45.3291C59.877 43.1963 58.6943 41.7539 56.7529 41.7539C54.8115 41.7539 53.5537 43.2646 53.5537 45.4658V45.4727C53.5537 47.708 54.7842 49.1367 56.8281 49.1367ZM56.7461 42.8066C57.7852 42.8066 58.5508 43.4561 58.667 44.8369H54.7773C54.9072 43.5107 55.7139 42.8066 56.7461 42.8066ZM64.0264 49.1367C65.6328 49.1367 66.8018 48.0908 66.9932 46.7373L67 46.6895H65.8311L65.8174 46.7441C65.6191 47.5371 64.9971 48.084 64.0264 48.084C62.7959 48.084 61.9482 47.1064 61.9482 45.4521V45.4453C61.9482 43.832 62.7754 42.8066 64.0127 42.8066C65.0586 42.8066 65.6328 43.4355 65.8105 44.1465L65.8242 44.2012H66.9863L66.9795 44.1465C66.8291 42.9297 65.7832 41.7539 64.0127 41.7539C62.0371 41.7539 60.7314 43.1895 60.7314 45.4316V45.4385C60.7314 47.7012 62.0098 49.1367 64.0264 49.1367ZM70.4043 49.1367C70.6367 49.1367 70.8896 49.1094 71.04 49.0889V48.125C70.9375 48.1318 70.8008 48.1523 70.6572 48.1523C70.0215 48.1523 69.6865 47.9404 69.6865 47.1816V42.875H71.04V41.8906H69.6865V39.9697H68.4561V41.8906H67.417V42.875H68.4561V47.1885C68.4561 48.5488 69.0986 49.1367 70.4043 49.1367Z" fill="white"/>
</svg>
