<?xml version="1.0" encoding="UTF-8" standalone="no"?><svg xmlns="http://www.w3.org/2000/svg" xmlns:xlink="http://www.w3.org/1999/xlink" width="20px" height="20px" viewBox="0 0 20 20" version="1.1"><title>linkedin [#161]</title><g id="Page-1" stroke="none" stroke-width="1" fill="none" fill-rule="evenodd"><g id="Dribbble-Light-Preview" transform="translate(-180.000000, -7479.000000)" fill="#000"><g id="icons" transform="translate(56.000000, 160.000000)"><path d="M144 7339h-4v-6.999c0-1.92-.847-2.991-2.366-2.991-1.653 0-2.634 1.116-2.634 2.991V7339h-4v-13h4v1.462s1.255-2.202 4.083-2.202c2.829 0 4.917 1.726 4.917 5.298V7339zm-17.558-15.079a2.451 2.451 0 0 1-2.442-2.461 2.451 2.451 0 0 1 2.442-2.46 2.451 2.451 0 0 1 2.441 2.46 2.45 2.45 0 0 1-2.441 2.461zM124 7339h5v-13h-5v13z" id="linkedin-[#161]"/></g></g></g><metadata><rdf:RDF xmlns:rdf="http://www.w3.org/1999/02/22-rdf-syntax-ns#" xmlns:rdfs="http://www.w3.org/2000/01/rdf-schema#" xmlns:dc="http://purl.org/dc/elements/1.1/"><rdf:Description about="https://iconscout.com/legal#licenses" dc:title="linkedin" dc:description="linkedin" dc:publisher="Iconscout" dc:date="2017-09-15" dc:format="image/svg+xml" dc:language="en"><dc:creator><rdf:Bag><rdf:li>Alexandru Stoica</rdf:li></rdf:Bag></dc:creator></rdf:Description></rdf:RDF></metadata></svg>