<svg xmlns="http://www.w3.org/2000/svg" xmlns:xlink="http://www.w3.org/1999/xlink" version="1.1" x="0px" y="0px" viewBox="0 0 1024 1280" style="enable-background:new 0 0 1024 1024;" xml:space="preserve"><g><g><g><path d="M900.5,249.1c0,18.7,0,37.5,0,56.2c0,44.7,0,89.5,0,134.2c0,54.1,0,108.2,0,162.3c0,46.3,0,92.6,0,138.9     c0,21.9,0.1,43.8,0,65.7c0,2.1-0.1,4.1-0.4,6.1c0.5-3.5,1-7.1,1.4-10.6c-0.6,3.6-1.5,7-2.9,10.3c1.3-3.2,2.7-6.4,4-9.6     c-1.5,3.2-3.2,6.2-5.4,9c2.1-2.7,4.2-5.4,6.3-8.1c-2,2.4-4.1,4.5-6.5,6.5c2.7-2.1,5.4-4.2,8.1-6.3c-2.8,2.2-5.8,3.9-9,5.4     c3.2-1.3,6.4-2.7,9.6-4c-3.3,1.4-6.7,2.3-10.3,2.9c3.5-0.5,7.1-1,10.6-1.4c-8.2,1-16.9,0.4-25.1,0.4c-18.7,0-37.3,0-56,0     c-28,0-56,0-84,0c-34.2,0-68.3,0-102.5,0c-37.5,0-74.9,0-112.4,0c-37.8,0-75.6,0-113.5,0c-35.2,0-70.5,0-105.7,0     c-29.8,0-59.6,0-89.5,0c-21.2,0-42.4,0-63.6,0c-9.8,0-19.5,0-29.3,0c-2.2,0-4.3-0.1-6.5-0.4c3.5,0.5,7.1,1,10.6,1.4     c-3.6-0.6-7-1.5-10.3-2.9c3.2,1.3,6.4,2.7,9.6,4c-3.2-1.5-6.2-3.2-9-5.4c2.7,2.1,5.4,4.2,8.1,6.3c-2.4-2-4.5-4.1-6.5-6.5     c2.1,2.7,4.2,5.4,6.3,8.1c-2.2-2.8-3.9-5.8-5.4-9c1.3,3.2,2.7,6.4,4,9.6c-1.4-3.3-2.3-6.7-2.9-10.3c0.5,3.5,1,7.1,1.4,10.6     c-0.8-6.4-0.4-13.1-0.4-19.5c0-13.5,0-27.1,0-40.6c0-45.1,0-90.2,0-135.3c0-54.3,0-108.5,0-162.8c0-46.8,0-93.5,0-140.3     c0-21.5-0.1-43.1,0-64.6c0-3.5,0.3-7,0.7-10.5c-0.5,3.5-1,7.1-1.4,10.6c1-6.3,2.6-12.4,5.1-18.3c-1.3,3.2-2.7,6.4-4,9.6     c2.5-5.9,5.7-11.3,9.6-16.4c-2.1,2.7-4.2,5.4-6.3,8.1c3.7-4.7,7.9-8.9,12.7-12.7c-2.7,2.1-5.4,4.2-8.1,6.3     c4.9-3.7,10.2-6.8,15.9-9.2c-3.2,1.3-6.4,2.7-9.6,4c5.6-2.2,11.4-3.8,17.4-4.6c-3.5,0.5-7.1,1-10.6,1.4c9-1.1,18.4-0.7,27.5-0.7     c17.1,0,34.2,0,51.3,0c25.7,0,51.4,0,77.2,0c31.4,0,62.9,0,94.3,0c34.7,0,69.3,0,104,0c35,0,70,0,105,0c32.6,0,65.2,0,97.7,0     c27.4,0,54.8,0,82.2,0c19.4,0,38.7,0,58.1,0c8.7,0,17.5,0,26.2,0c3.7,0,7.3,0.2,11,0.7c-3.5-0.5-7.1-1-10.6-1.4     c6,0.9,11.8,2.4,17.4,4.6c-3.2-1.3-6.4-2.7-9.6-4c5.7,2.4,11,5.5,15.9,9.2c-2.7-2.1-5.4-4.2-8.1-6.3c4.7,3.7,8.9,7.9,12.7,12.7     c-2.1-2.7-4.2-5.4-6.3-8.1c3.9,5.1,7,10.6,9.6,16.4c-1.3-3.2-2.7-6.4-4-9.6c2.4,5.9,4.1,12,5.1,18.3c-0.5-3.5-1-7.1-1.4-10.6     C900.2,242.3,900.5,245.7,900.5,249.1c0.1,10.3,4.4,21,11.7,28.3c6.9,6.9,18.3,12.2,28.3,11.7c21.5-1,40.2-17.6,40-40     c-0.3-30.6-13-62.5-36.3-83c-21.2-18.7-47.2-28.9-75.5-29.1c-7.3,0-14.6,0-22,0c-17.6,0-35.3,0-52.9,0c-25.4,0-50.9,0-76.3,0     c-30.9,0-61.8,0-92.8,0c-33.6,0-67.2,0-100.7,0c-33.9,0-67.7,0-101.6,0c-31.7,0-63.3,0-95,0c-26.9,0-53.9,0-80.8,0     c-19.7,0-39.5,0-59.2,0c-10,0-20,0-30,0c-11.7,0-23.7,1.2-34.8,4.7c-31.8,9.9-56.9,33-69.8,63.5c-6.1,14.5-9.2,29.7-9.2,45.6     c0,4,0,8,0,11.9c0,17.7,0,35.3,0,53c0,27.3,0,54.7,0,82c0,32.6,0,65.2,0,97.9c0,33.9,0,67.8,0,101.8c0,31.1,0,62.2,0,93.4     c0,24.2,0,48.5,0,72.7c0,13.2,0,26.5,0,39.7c0,9.2,0.6,18.6,3.5,27.3c11.3,33.3,41,56.2,76.6,56.6c6.6,0.1,13.1,0,19.7,0     c16.3,0,32.6,0,48.8,0c23.9,0,47.8,0,71.7,0c29.5,0,59.1,0,88.6,0c32.8,0,65.6,0,98.4,0c34.1,0,68.1,0,102.2,0     c33.2,0,66.4,0,99.6,0c30.3,0,60.5,0,90.8,0c25.2,0,50.4,0,75.6,0c18,0,36,0,54,0c8.7,0,17.4,0,26.2,0c16.2,0,33.4-4.3,46.5-14.2     c16.1-12.1,29.6-28.6,33.1-49c1-5.9,1.9-11.8,1.9-17.8c0.1-10.6,0-21.1,0-31.7c0-22.4,0-44.7,0-67.1c0-30.1,0-60.1,0-90.2     c0-33.7,0-67.4,0-101.1c0-33.2,0-66.4,0-99.6c0-28.6,0-57.3,0-85.9c0-20,0-39.9,0-59.9c0-7.2,0-14.4,0-21.6c0-20.9-18.4-41-40-40     C918.8,210.1,900.5,226.7,900.5,249.1z"/></g></g><g><g><path d="M900.5,249.1c0,3-0.2,5.9-0.6,8.8c0.5-3.5,1-7.1,1.4-10.6c-0.9,6.5-2.6,12.7-5.1,18.8     c1.3-3.2,2.7-6.4,4-9.6c-2.4,5.3-5.3,10.2-8.8,14.9c2.1-2.7,4.2-5.4,6.3-8.1c-5.3,6.7-11.6,12-18,17.5     c-8.3,7.2-16.7,14.4-25,21.6c-28.3,24.5-56.6,48.9-85,73.4c-35,30.2-70.1,60.5-105.1,90.7c-30.1,26-60.3,52.1-90.4,78.1     c-14.5,12.5-28.9,25-43.4,37.5c-1.3,1.1-2.6,2.2-4,3.2c2.7-2.1,5.4-4.2,8.1-6.3c-4.8,3.5-9.8,6.5-15.3,8.9c3.2-1.3,6.4-2.7,9.6-4     c-5.8,2.4-11.8,4-18,5c3.5-0.5,7.1-1,10.6-1.4c-6.7,0.9-13.3,0.9-19.9,0c3.5,0.5,7.1,1,10.6,1.4c-6.2-0.9-12.2-2.6-18-5     c3.2,1.3,6.4,2.7,9.6,4c-5.4-2.4-10.5-5.3-15.3-8.9c2.7,2.1,5.4,4.2,8.1,6.3c-13.5-10.5-26-22.3-38.9-33.4     c-28.8-24.9-57.6-49.8-86.5-74.7c-35.1-30.3-70.1-60.5-105.2-90.8c-29.7-25.6-59.4-51.3-89.1-76.9     c-13.5-11.7-27.2-23.3-40.6-35.1c-3.9-3.4-7.4-7.1-10.6-11.1c2.1,2.7,4.2,5.4,6.3,8.1c-3.5-4.6-6.4-9.6-8.8-14.9     c1.3,3.2,2.7,6.4,4,9.6c-2.5-6.1-4.2-12.3-5.1-18.8c0.5,3.5,1,7.1,1.4,10.6c-0.7-6.4-0.7-12.7,0.2-19c-0.5,3.5-1,7.1-1.4,10.6     c1-6.3,2.6-12.4,5.1-18.3c-1.3,3.2-2.7,6.4-4,9.6c2.5-5.9,5.7-11.3,9.6-16.4c-2.1,2.7-4.2,5.4-6.3,8.1c3.7-4.7,7.9-8.9,12.7-12.7     c-2.7,2.1-5.4,4.2-8.1,6.3c4.9-3.7,10.2-6.8,15.9-9.2c-3.2,1.3-6.4,2.7-9.6,4c5.6-2.2,11.4-3.8,17.4-4.6c-3.5,0.5-7.1,1-10.6,1.4     c9-1.1,18.4-0.7,27.5-0.7c17.1,0,34.2,0,51.3,0c25.7,0,51.4,0,77.2,0c31.4,0,62.9,0,94.3,0c34.7,0,69.3,0,104,0c35,0,70,0,105,0     c32.6,0,65.2,0,97.7,0c27.4,0,54.8,0,82.2,0c19.4,0,38.7,0,58.1,0c8.7,0,17.5,0,26.2,0c3.7,0,7.3,0.2,11,0.7     c-3.5-0.5-7.1-1-10.6-1.4c6,0.9,11.8,2.4,17.4,4.6c-3.2-1.3-6.4-2.7-9.6-4c5.7,2.4,11,5.5,15.9,9.2c-2.7-2.1-5.4-4.2-8.1-6.3     c4.7,3.7,8.9,7.9,12.7,12.7c-2.1-2.7-4.2-5.4-6.3-8.1c3.9,5.1,7,10.6,9.6,16.4c-1.3-3.2-2.7-6.4-4-9.6c2.4,5.9,4.1,12,5.1,18.3     c-0.5-3.5-1-7.1-1.4-10.6C900.2,242.3,900.5,245.7,900.5,249.1c0.1,10.3,4.4,21,11.7,28.3c6.9,6.9,18.3,12.2,28.3,11.7     c21.5-1,40.2-17.6,40-40c-0.2-20.8-5.9-42.3-17.2-59.9c-11-17.1-26.6-32.5-45.3-40.9c-15.9-7.1-31.8-11.2-49.4-11.3     c-1.2,0-2.4,0-3.7,0c-17.4,0-34.9,0-52.3,0c-33.1,0-66.2,0-99.4,0c-42.4,0-84.9,0-127.3,0c-45.7,0-91.5,0-137.2,0     c-43.1,0-86.1,0-129.2,0c-34,0-67.9,0-101.9,0c-18.9,0-37.9,0-56.8,0c-10.9,0-21.6,0.8-32.4,3.1c-40.5,8.7-75.3,44.8-82.5,85.7     c-1.9,10.7-3.2,21.3-2,32.1c1.7,15.5,5.2,28.4,12.2,42.5c5.8,11.6,14.6,22.4,24.4,30.9c4.5,3.9,9.1,7.9,13.7,11.8     c23.3,20.2,46.7,40.3,70,60.5c33.3,28.7,66.6,57.5,99.9,86.2c32.8,28.3,65.6,56.7,98.5,85c21.5,18.6,43,37.1,64.5,55.7     c3.3,2.8,6.5,5.7,9.8,8.4c10,8.5,19.7,14.9,31.6,20c12.2,5.1,23.6,7.6,36.9,8.8c11.3,1,23.1-0.5,34-3.2     c10.7-2.6,21.5-7.2,30.9-13.1c17.4-11.1,32.9-26.7,48.4-40.1c27.7-23.9,55.4-47.9,83.1-71.8c34.4-29.7,68.8-59.4,103.2-89.1     c30.2-26.1,60.4-52.2,90.6-78.3c15.6-13.5,31.2-26.9,46.7-40.4c24-20.8,37.6-51.2,37.9-82.9c0.2-20.9-18.6-41-40-40     C918.6,210.1,900.7,226.7,900.5,249.1z"/></g></g></g><text x="0" y="1039" fill="#000000" font-size="5px" font-weight="bold" font-family="'Helvetica Neue', Helvetica, Arial-Unicode, Arial, Sans-serif">Created by shashank singh</text><text x="0" y="1044" fill="#000000" font-size="5px" font-weight="bold" font-family="'Helvetica Neue', Helvetica, Arial-Unicode, Arial, Sans-serif">from the Noun Project</text></svg>