<svg xmlns="http://www.w3.org/2000/svg" xmlns:xlink="http://www.w3.org/1999/xlink" version="1.1" x="0px" y="0px" viewBox="0 0 100 125" enable-background="new 0 0 100 100" xml:space="preserve"><path d="M86,20H14c-2.757,0-5,2.243-5,5v50c0,2.757,2.243,5,5,5h72c2.757,0,5-2.243,5-5V25C91,22.243,88.757,20,86,20z M50,54.409  L19.067,26h61.865L50,54.409z M36.632,50.278L15,69.557V30.411L36.632,50.278z M41.073,54.357l5.447,5.002  c0.938,0.91,2.17,1.41,3.48,1.41c1.31,0,2.543-0.5,3.48-1.41l5.446-5.002L80.967,74H19.032L41.073,54.357z M63.368,50.279L85,30.411  v39.146L63.368,50.279z"/><text x="0" y="115" fill="#000000" font-size="5px" font-weight="bold" font-family="'Helvetica Neue', Helvetica, Arial-Unicode, Arial, Sans-serif">Created by Rodolfo Alvarez</text><text x="0" y="120" fill="#000000" font-size="5px" font-weight="bold" font-family="'Helvetica Neue', Helvetica, Arial-Unicode, Arial, Sans-serif">from the Noun Project</text></svg>